<?xml version="1.0" encoding="UTF-8" standalone="no"?>
<!-- Created with Inkscape (http://www.inkscape.org/) -->

<svg
   xmlns:dc="http://purl.org/dc/elements/1.1/"
   xmlns:cc="http://creativecommons.org/ns#"
   xmlns:rdf="http://www.w3.org/1999/02/22-rdf-syntax-ns#"
   xmlns:svg="http://www.w3.org/2000/svg"
   xmlns="http://www.w3.org/2000/svg"
   xmlns:sodipodi="http://sodipodi.sourceforge.net/DTD/sodipodi-0.dtd"
   xmlns:inkscape="http://www.inkscape.org/namespaces/inkscape"
   width="93.850044mm"
   height="89.385506mm"
   viewBox="0 0 332.53953 316.72029"
   id="svg3342"
   version="1.1"
   inkscape:version="0.91 r13725"
   sodipodi:docname="notify_v2.svg">
  <defs
     id="defs3344" />
  <sodipodi:namedview
     id="base"
     pagecolor="#ffffff"
     bordercolor="#666666"
     borderopacity="1.0"
     inkscape:pageopacity="0.0"
     inkscape:pageshadow="2"
     inkscape:zoom="0.35"
     inkscape:cx="-225.47627"
     inkscape:cy="223.53363"
     inkscape:document-units="px"
     inkscape:current-layer="layer1"
     showgrid="false"
     inkscape:window-width="1920"
     inkscape:window-height="1017"
     inkscape:window-x="-8"
     inkscape:window-y="-8"
     inkscape:window-maximized="1"
     fit-margin-top="0"
     fit-margin-left="0"
     fit-margin-right="0"
     fit-margin-bottom="0" />
  <metadata
     id="metadata3347">
    <rdf:RDF>
      <cc:Work
         rdf:about="">
        <dc:format>image/svg+xml</dc:format>
        <dc:type
           rdf:resource="http://purl.org/dc/dcmitype/StillImage" />
        <dc:title></dc:title>
      </cc:Work>
    </rdf:RDF>
  </metadata>
  <g
     inkscape:label="Layer 1"
     inkscape:groupmode="layer"
     id="layer1"
     transform="translate(-163.33341,-439.17553)">
    <g
       id="g3342"
       transform="translate(40,334.28571)">
      <path
         style="fill:#d2abf0"
         d="m 418.64275,421.03974 c -10.43023,-2.33439 -21.3831,-7.02041 -31.68969,-13.55796 -4.22934,-2.6827 -8.50434,-4.86469 -9.5,-4.84887 -0.99567,0.0158 -10.38783,0.3276 -20.87148,0.69284 -17.40696,0.60645 -19.96004,0.47163 -29.41877,-1.55353 -22.33741,-4.78255 -38.21097,-12.44487 -54.31102,-26.21643 l -6.79095,-5.80881 -9.20905,0.53945 c -14.07975,0.82477 -14.55828,0.98003 -24.70904,8.01668 -12.4088,8.60197 -18.88095,11.82022 -33.28046,16.5486 -13.2367,4.34654 -25.67246,6.0651 -35.29262,4.87726 -6.85922,-0.84694 -10.05843,-2.27143 -12.7305,-5.66842 -1.01287,-1.28766 -2.44939,-2.34119 -3.19228,-2.34119 -3.52303,0 -10.50414,-8.49102 -10.50414,-12.77603 0,-2.51842 3.54213,-5.54862 8.92204,-7.63255 15.49724,-6.00293 24.22254,-17.50922 24.46052,-32.25676 l 0.11744,-7.27756 -8.60017,-8.77855 c -11.74104,-11.98458 -16.91793,-18.70778 -22.75514,-29.55199 -22.39184,-41.599 -21.18326,-84.21994 3.43739,-121.22045 43.55313,-65.45271 145.84717,-87.15794 223.41792,-47.40586 21.44965,10.99214 41.12905,27.64956 54.01608,45.72133 7.95552,11.15623 19.02521,33.75678 23.10785,47.17842 2.91247,9.57471 3.23287,11.97589 3.63579,27.24815 0.34765,13.1769 0.0894,18.33248 -1.21117,24.17823 l -1.65304,7.4301 4.05077,9.5173 c 7.02989,16.51677 9.01009,28.33772 7.09278,42.34093 -2.4354,17.7872 -9.60734,32.08533 -22.20361,44.26559 l -7.83545,7.57668 0,5.55006 c 0,7.17924 3.99954,13.50801 11.8209,18.70505 12.39491,8.23602 7.26759,17.3625 -9.59114,17.07191 -3.70137,-0.0638 -7.62976,-0.31743 -8.72976,-0.56362 z"
         id="path3356"
         inkscape:connector-curvature="0" />
      <path
         style="fill:#b46dec"
         d="m 418.64275,419.23812 c -11.28568,-2.21678 -23.27258,-7.47462 -33.79298,-14.82268 l -5.79297,-4.04615 -10.20703,1.18072 c -36.50855,4.2232 -69.74071,-5.15142 -94.74782,-26.72786 -10.48996,-9.05087 -10.90347,-9.19722 -23.01438,-8.14525 l -10.27952,0.89289 -10.40163,7.17173 c -18.97488,13.0828 -37.70533,19.97581 -56.35371,20.73876 -12.88614,0.52721 -15.06196,-0.0636 -27.04842,-7.34503 -11.66255,-7.08463 -11.53549,-10.73528 0.56829,-16.32724 16.92528,-7.8195 25.50132,-20.5389 24.3723,-36.14737 -0.41527,-5.74115 -0.49033,-5.8625 -9.37359,-15.15454 -12.2349,-12.79794 -18.42408,-21.32821 -24.87691,-34.28674 -9.82955,-19.73967 -12.82957,-31.85128 -12.88026,-52 -0.03,-11.93832 0.36365,-15.61113 2.67332,-24.94048 9.73141,-39.30764 40.97014,-72.65005 84.40714,-90.09126 53.30293,-21.402672 117.38306,-16.54188 164.74817,12.49696 41.81417,25.63564 66.5,68.73814 66.5,116.11178 0,7.25582 -0.52677,16.05131 -1.17061,19.54552 l -1.1706,6.35311 4.71856,10.51145 c 7.09425,15.8037 9.01422,24.55546 8.35014,38.06219 -0.97959,19.92392 -7.79347,34.82148 -22.50964,49.21411 l -8.44914,8.26337 0.39728,6.23906 c 0.50184,7.88125 4.65679,14.36628 12.36276,19.29573 6.10363,3.90445 7.3625,6.4293 5.00188,10.03206 -2.98872,4.56135 -11.27534,6.03777 -22.03063,3.92516 z m 25.55022,-80.13593 c 7.46114,-17.40612 6.28147,-35.65547 -3.58002,-55.38283 -3.45437,-6.91027 -14.85774,-19.05325 -24.09985,-25.66294 -37.18312,-26.59231 -90.92758,-27.77189 -129.92079,-2.85149 -7.97759,5.09844 -19.49175,16.40489 -24.43883,23.99795 -6.37878,9.79054 -10.04243,21.0963 -10.72136,33.08539 -0.37548,6.63032 -0.20941,10.36247 0.48004,10.78858 0.88289,0.54565 35.01098,4.64251 38.67355,4.64251 0.82217,0 1.06156,-1.7594 0.78235,-5.75 -0.33563,-4.79696 -0.0114,-6.33011 1.95612,-9.25 6.35553,-9.43183 20.10516,-9.16262 25.53705,0.5 2.59274,4.61215 2.87733,9.13827 0.87577,13.92867 l -1.40575,3.36443 5.65575,0.63469 c 13.01704,1.46076 16.59578,1.66592 15.54528,0.89118 -1.57854,-1.16417 -4.02645,-6.25154 -4.85159,-10.08283 -0.5129,-2.38149 -0.13602,-4.40906 1.39409,-7.5 2.69339,-5.44082 5.90062,-7.70463 11.81865,-8.34215 8.51291,-0.91706 15.015,4.34755 15.98368,12.94164 0.41883,3.71581 0.0231,5.40258 -2.12935,9.0754 -1.45409,2.48121 -3.36426,4.91448 -4.24481,5.40727 -1.08775,0.60873 2.04423,1.27394 9.76939,2.07494 6.25373,0.64843 15.42041,1.61132 20.37041,2.13976 4.95,0.52843 17.775,1.85697 28.5,2.95231 20.82949,2.1273 25.33363,2.62772 25.78554,2.86486 0.15704,0.0824 1.17615,-1.9279 2.26468,-4.46734 z m -60.50307,-7.47557 c -8.2766,-7.26696 -6.61349,-20.47464 3.08863,-24.52844 4.42765,-1.84999 8.04816,-1.70554 12.94008,0.51629 9.74051,4.42396 9.79621,20.37689 0.0902,25.81945 -1.19131,0.66802 -4.51285,1.23052 -7.38121,1.25 -4.43063,0.0301 -5.74512,-0.42983 -8.73765,-3.0573 z m 15.06506,-5.42856 c 1.54031,-1.54032 2.39806,-3.38845 2.20455,-4.75 -0.28978,-2.03887 -0.86002,-2.2287 -6.69479,-2.2287 -5.36297,0 -6.59917,0.33307 -7.76758,2.09279 -1.2268,1.84765 -1.14473,2.40403 0.7006,4.75 2.82629,3.59303 8.0388,3.65433 11.55722,0.13591 z m -87.19184,0.40528 c 1.93178,-1.51954 2.60404,-2.85851 2.38486,-4.75 -0.28607,-2.46863 -0.67148,-2.65296 -6.1396,-2.9364 -6.45704,-0.3347 -8.66563,0.77861 -8.66563,4.36816 0,5.03639 7.64092,7.07775 12.42037,3.31824 z m 42.69324,1.05522 c 2.69015,-1.43973 4.28122,-5.75854 2.78544,-7.56084 -1.35818,-1.63651 -10.11507,-1.8683 -12.96479,-0.34318 -4.31952,2.31174 -0.51128,8.96482 5.13148,8.96482 1.68616,0 3.9577,-0.47736 5.04787,-1.0608 z"
         id="path3354"
         inkscape:connector-curvature="0" />
      <path
         style="fill:#a653e7"
         d="m 416.64275,418.31745 c -11.19459,-2.75794 -21.296,-7.35335 -31.48225,-14.32216 -5.25802,-3.59722 -7.05217,-4.32748 -9.5,-3.86675 -1.65976,0.31241 -10.21942,0.86106 -19.02146,1.21923 -18.05919,0.73486 -29.33085,-0.64066 -43.14526,-5.26519 -16.45732,-5.50926 -26.68107,-11.16921 -38.01795,-21.04703 -10.88537,-9.48442 -12.59212,-10.30902 -21.33308,-10.30688 -10.50189,0.003 -14.18407,1.29291 -24.81998,8.69753 -11.30227,7.86854 -22.2157,13.09169 -36.18002,17.31571 -8.67781,2.62492 -12.32219,3.1989 -21,3.30742 l -10.5,0.13132 -10.23297,-5.35766 c -11.37366,-5.95489 -12.56566,-6.96995 -12.09379,-10.29859 0.25497,-1.79863 2.2539,-3.23309 9.09864,-6.5293 14.42317,-6.94575 21.31746,-15.51132 23.75608,-29.51493 1.76581,-10.13998 0.4331,-13.454 -9.53111,-23.70096 -14.18969,-14.59234 -21.81625,-25.89288 -29.06047,-43.05985 -6.34864,-15.04468 -7.89079,-23.26945 -7.87504,-42 0.0125,-14.8742 0.28384,-17.47964 2.75371,-26.44223 5.67438,-20.59102 16.11314,-38.17871 32.10332,-54.08911 21.48951,-21.3823 49.67331,-35.9689 83.52327,-43.22772 11.73904,-2.51733 14.18938,-2.69302 37.55836,-2.69302 23.41,0 25.80453,0.17245 37.64983,2.71154 33.34422,7.14748 60.76111,20.9721 81.71084,41.20166 21.11078,20.38507 32.78855,41.54954 38.09364,69.03986 2.2941,11.8878 2.89032,40.91729 0.98154,47.79092 -0.97365,3.50618 -0.68125,4.59872 3.88078,14.5 8.28497,17.98142 8.69184,19.71415 8.61965,36.7081 -0.06,14.12593 -0.23929,15.47581 -3.07671,23.16548 -4.43479,12.01867 -8.87219,18.85576 -18.19936,28.04136 -6.91057,6.80567 -8.42736,8.866 -8.85071,12.02234 -1.11751,8.33165 4.71232,18.92648 12.89943,23.44275 5.29723,2.92212 7.01665,6.81634 4.32355,9.79218 -3.56627,3.94068 -13.23869,5.04681 -23.03248,2.63398 z m 15.97354,-5.71239 3.97353,-1.10315 -3.14313,-1.64128 c -9.43975,-4.92923 -16.33527,-15.86551 -16.25884,-25.7865 0.0599,-7.77964 1.37036,-10.31581 8.22406,-15.91669 20.80999,-17.00603 29.64763,-46.52751 21.415,-71.53518 -4.33205,-13.15913 -7.76166,-18.69453 -17.33805,-27.98365 -13.20064,-12.80465 -25.97716,-20.70018 -42.34611,-26.16867 -50.42119,-16.84459 -109.36542,3.05515 -129.7473,43.80305 -5.74707,11.48967 -6.72324,15.83771 -6.72324,29.94637 0,14.08508 0.97896,18.46152 6.67917,29.85906 11.47566,22.94553 36.56658,40.54739 67.57574,47.40592 9.47422,2.09549 38.84133,2.39155 47.02665,0.47409 6.11803,-1.43318 6.28765,-1.37159 16.31974,5.92513 3.65674,2.65969 7.3467,4.8358 8.19991,4.8358 0.85321,0 1.80579,0.41178 2.11684,0.91507 0.71168,1.15152 13.88027,6.23431 18.55249,7.16085 5.46323,1.08341 11.13718,1.01365 15.47354,-0.19022 z M 297.27537,329.9603 c -5.05518,-4.80888 -6.16021,-9.63576 -3.53744,-15.45201 3.21603,-7.13187 10.90821,-9.69457 18.97823,-6.3227 2.62165,1.09539 4.02784,2.63877 5.55996,6.10238 2.81219,6.35741 1.89393,10.76382 -3.26599,15.67233 -3.46872,3.29971 -4.55229,3.75906 -8.86738,3.75906 -4.31509,0 -5.39866,-0.45935 -8.86738,-3.75906 z m 13.77619,-1.69378 c 1.54521,-0.79906 3.38933,-2.85272 4.09804,-4.56369 1.14033,-2.75301 1.05889,-3.41985 -0.70805,-5.79716 -4.5618,-6.13765 -16.2988,-2.72351 -16.2988,4.74111 0,1.97147 0.86041,3.60422 2.63486,5 3.09661,2.43579 6.37918,2.6338 10.27395,0.61974 z m 32.25508,3.81927 c -8.43839,-4.2991 -10.04292,-15.2759 -3.19235,-21.83917 4.05365,-3.88364 11.9689,-4.61743 16.83864,-1.56103 5.46612,3.4307 7.68914,11.25145 4.78483,16.83343 -3.74241,7.19281 -11.66313,10.01485 -18.43112,6.56677 z m 12.91303,-5.28951 c 3.47996,-3.47995 3.77606,-7.22394 0.8062,-10.1938 -4.37856,-4.37856 -15.88312,-0.15092 -15.88312,5.83665 0,3.65612 4.24698,7.28023 8.53147,7.28023 2.67035,0 4.39062,-0.76824 6.54545,-2.92308 z m 31.34152,5.95423 c -3.15769,-1.27742 -7.26117,-6.67593 -7.97771,-10.49541 -0.89571,-4.77451 1.14032,-10.10054 4.88127,-12.76891 2.41469,-1.72237 4.55445,-2.26683 8.90877,-2.26683 5.09756,0 6.07961,0.34884 8.88786,3.1571 4.27367,4.27366 5.14263,11.56607 1.98669,16.67249 -3.40519,5.50972 -10.86256,8.05774 -16.68688,5.70156 z m 11.50483,-5.62004 c 5.59086,-4.7044 3.33809,-12.41111 -3.62792,-12.41111 -7.4347,0 -12.40539,4.90592 -10.24795,10.11442 2.30342,5.56096 8.73198,6.62499 13.87587,2.29669 z m -210.42327,48.47126 c 6.6,-2.11723 15.72104,-5.95855 20.26898,-8.53626 8.36807,-4.74291 16.23102,-10.75176 16.23102,-12.40371 0,-0.90484 -3.57992,-3.04703 -13.74533,-8.22508 -3.00459,-1.53048 -6.12318,-3.44298 -6.93021,-4.25 -0.80702,-0.80703 -2.11017,-1.46732 -2.89589,-1.46732 -0.78571,0 -1.42857,-0.36111 -1.42857,-0.80246 0,-0.44135 -2.25,-1.61154 -5,-2.60043 -2.75,-0.98888 -5,-2.22808 -5,-2.75377 0,-0.52569 -2.08227,-1.87689 -4.62727,-3.00266 -5.56376,-2.46112 -6.32884,-1.78132 -6.36929,5.65932 -0.0575,10.58122 -5.36945,23.21013 -12.65863,30.09542 -2.41887,2.28484 -7.12748,5.60908 -10.46359,7.3872 -3.3361,1.77813 -5.68665,3.60438 -5.22343,4.05834 1.28283,1.2572 7.91956,1.70581 17.34221,1.17224 6.11127,-0.34606 11.87232,-1.56314 20.5,-4.33083 z"
         id="path3352"
         inkscape:connector-curvature="0" />
      <path
         style="fill:#8a24db"
         d="m 420.4775,418.67266 c -11.18842,-1.97646 -21.82308,-6.76471 -38.50415,-17.33648 -2.73697,-1.73458 -3.75784,-1.79376 -12.93687,-0.75 -37.16507,4.22609 -69.85097,-5.19746 -94.89373,-27.35848 -10.4021,-9.20511 -11.09444,-9.50033 -22.28984,-9.5046 -11.06791,-0.004 -13.43634,0.84963 -24.04094,8.66719 -8.34682,6.15314 -19.80751,11.7855 -32.56354,16.00334 -8.85948,2.92942 -12.49913,3.59007 -22.10568,4.01248 -11.45053,0.5035 -11.51936,0.49289 -16,-2.46723 -2.475,-1.63509 -6.975,-3.75641 -10,-4.71403 -3.025,-0.95762 -6.12084,-2.32503 -6.87965,-3.03868 -1.77396,-1.66838 -0.68486,-6.34466 1.65945,-7.12519 10.72122,-3.56962 21.0397,-10.95057 25.77639,-18.43821 4.76827,-7.53755 6.89522,-20.94697 4.37596,-27.58831 -0.58732,-1.54831 -4.793,-6.6401 -9.34594,-11.3151 -17.94083,-18.42178 -29.2505,-38.20753 -34.73587,-60.76878 -3.22766,-13.27532 -3.05571,-33.18921 0.40781,-47.23122 4.68141,-18.97967 13.12284,-35.18434 26.00642,-49.92349 20.31062,-23.23587 52.27819,-41.24667 86.23543,-48.58578 60.21636,-13.014436 123.17081,3.30627 162.04396,42.00927 25.68497,25.57255 37.44055,53.69372 37.45202,89.591 0.002,6.92504 -0.48592,16.2315 -1.08473,20.68101 l -1.08874,8.09001 4.99546,10.35663 c 8.08483,16.76154 9.69615,23.10231 9.60102,37.78135 -0.0699,10.79156 -0.4583,13.66174 -2.84147,21 -3.70783,11.41717 -10.39834,21.92207 -19.79729,31.08413 l -7.78023,7.58414 0,5.71552 c 0,8.49733 5.25563,17.14348 13.10109,21.55287 4.75678,2.67346 4.49536,3.74532 -0.51052,2.09323 -3.88821,-1.28322 -10.67804,-8.34422 -13.69318,-14.24005 -1.39315,-2.72416 -1.89739,-5.82381 -1.89739,-11.66345 l 0,-7.95329 6.25,-5.21243 c 9.9891,-8.33078 16.94098,-18.44246 21.35854,-31.06652 2.02059,-5.77424 2.70261,-10.02311 3.11313,-19.39415 0.62467,-14.25963 -0.65955,-20.52766 -6.91527,-33.75217 -3.81264,-8.05989 -5.02505,-9.56277 -15.32768,-19 -13.07039,-11.9725 -23.3046,-18.43592 -36.86677,-23.28323 -13.39027,-4.78587 -25.49845,-6.79273 -41.11195,-6.81409 -25.75544,-0.0352 -46.78054,6.11709 -65.72746,19.23301 -41.81832,28.94856 -46.42778,80.78822 -10.08957,113.47099 14.81408,13.32385 29.74153,20.95991 50.26449,25.71254 10.22652,2.36822 28.48887,3.11823 40.05254,1.6449 2.475,-0.31534 6.75,-0.86573 9.5,-1.22308 4.81436,-0.62562 5.24134,-0.47222 11.5,4.13158 17.81032,13.10106 38.89348,18.80916 50.31372,13.62205 l 4.81371,-2.18641 -0.31371,2.71457 c -0.54583,4.72297 -9.13882,7.00925 -19.47897,5.18264 z M 189.35699,376.88779 c 15.82177,-5.41324 22.49356,-8.85552 34.27395,-17.68349 l 9.98819,-7.48494 9.87844,0 c 8.96519,0 9.82413,-0.16179 9.29092,-1.75 -0.32314,-0.9625 -1.99857,-5.78681 -3.72318,-10.72069 -4.08977,-11.70033 -4.95143,-24.34559 -2.4875,-36.50557 2.03446,-10.04047 4.78403,-17.06861 11.00647,-28.13348 2.55005,-4.53455 4.44439,-8.7274 4.20963,-9.31745 -0.23475,-0.59005 -4.33115,-3.07497 -9.10311,-5.52205 -4.77196,-2.44707 -8.91044,-4.8281 -9.19663,-5.29116 -0.28618,-0.46306 -3.51983,-2.2487 -7.18588,-3.9681 -3.66605,-1.71939 -9.81554,-4.98877 -13.66554,-7.26529 -3.85,-2.27652 -9.475,-5.42269 -12.5,-6.99149 -9.80742,-5.08624 -12.06826,-6.34648 -13.46511,-7.50576 -0.75547,-0.62699 -4.67239,-2.8236 -8.70424,-4.88135 -4.03186,-2.05775 -14.87736,-7.99527 -24.10112,-13.19449 -20.24232,-11.41012 -22.93471,-12.84313 -24.2465,-12.90509 -0.55933,-0.0264 -2.80933,4.56447 -5,10.20197 -3.90848,10.05816 -3.98906,10.52651 -4.30545,25.02394 -0.24013,11.00345 0.0555,15.98009 1.15835,19.5 0.81442,2.59933 1.74933,6.25642 2.07758,8.12686 0.32824,1.87044 1.44412,5.24544 2.47971,7.5 1.0356,2.25456 3.54522,7.98906 5.57695,12.74334 2.03172,4.75428 4.92141,9.92928 6.42153,11.5 1.50013,1.57072 3.72017,4.49528 4.93342,6.49901 1.21326,2.00373 3.68215,4.76912 5.48642,6.1453 7.30864,5.57458 17.52163,16.35298 18.58203,19.61077 2.61062,8.02046 0.26202,23.26177 -5.15088,33.42679 -3.67583,6.90293 -8.43552,11.21387 -17.83409,16.15268 -3.79973,1.9967 -6.9086,4.04725 -6.9086,4.55679 0,0.50953 1.2375,1.19935 2.75,1.53294 1.5125,0.33359 3.2,0.78665 3.75,1.00681 0.55,0.22015 6.175,0.22046 12.5,6.8e-4 10.2194,-0.3551 12.80445,-0.8459 23.21424,-4.40748 z m 109.50776,-46.30391 c -8.49344,-6.3353 -7.0502,-19.06316 2.57711,-22.72734 7.1827,-2.73376 15.87135,1.92405 17.24467,9.24452 0.96787,5.15919 -0.1804,8.53944 -4.18332,12.31467 -2.95241,2.78448 -4.23811,3.29865 -8.18166,3.27195 -3.13428,-0.0212 -5.59585,-0.71571 -7.4568,-2.1038 z m 12.29802,-1.37487 c 3.55047,-1.83602 4.97998,-4.30737 4.97998,-8.60946 0,-7.85298 -8.84867,-10.58599 -15.4652,-4.7766 -4.72127,4.14533 -4.88638,8.58135 -0.45807,12.30752 3.49935,2.94451 6.72091,3.26202 10.94329,1.07854 z m 31.2896,1.43305 c -4.46416,-2.85953 -6.93974,-9.48339 -5.34745,-14.30808 2.46063,-7.45579 10.76961,-11.25933 17.55867,-8.03771 9.01219,4.27657 9.98624,15.94606 1.86428,22.33479 -3.47077,2.73011 -9.8228,2.73508 -14.0755,0.011 z m 14.2819,-3.00868 c 4.20984,-3.95493 3.97893,-10.18967 -0.50486,-13.63222 -4.174,-3.20469 -13.56973,0.46353 -15.54044,6.06721 -2.85588,8.12065 9.33544,13.86859 16.0453,7.56501 z m 29.02336,2.99768 c -5.83877,-4.59277 -7.24353,-12.19572 -3.32832,-18.01382 2.60764,-3.87502 8.5158,-6.31984 12.92975,-5.35037 4.21885,0.92661 8.59876,5.1032 9.89751,9.43804 1.00656,3.35961 0.87136,4.41361 -1.08435,8.45358 -1.29054,2.66588 -3.43725,5.2375 -5.08222,6.08815 -4.14899,2.14552 -10.17597,1.86725 -13.33237,-0.61558 z m 14.63512,-3.89275 c 3.51355,-3.89749 3.62438,-8.23548 0.29545,-11.5644 -5.54178,-5.54179 -16.54545,-0.85616 -16.54545,7.04545 0,8.31876 10.25391,11.17027 16.25,4.51895 z"
         id="path3350"
         inkscape:connector-curvature="0" />
      <path
         style="fill:#7c0bd5"
         d="m 420.4775,418.67266 c -11.18842,-1.97646 -21.82308,-6.76471 -38.50415,-17.33648 -2.73697,-1.73458 -3.75784,-1.79376 -12.93687,-0.75 -35.25234,4.0086 -68.31327,-4.77145 -90.98501,-24.16306 -3.3462,-2.86207 -8.18206,-6.88489 -10.74636,-8.93961 l -4.66236,-3.73586 -10.79966,-0.0141 c -12.16537,-0.0159 -12.73527,0.1807 -24.70034,8.52255 -10.13326,7.06474 -19.28069,11.49292 -33,15.97497 -10.29175,3.36228 -12.66077,3.76916 -22.54809,3.87267 -10.47723,0.10968 -11.20593,-0.0167 -14.10307,-2.44615 -1.68024,-1.40899 -6.02852,-3.36671 -9.66285,-4.35047 -3.63433,-0.98377 -7.1257,-2.41261 -7.7586,-3.17521 -1.51717,-1.82808 -0.33443,-6.34278 1.85241,-7.07089 10.72122,-3.56962 21.0397,-10.95057 25.77639,-18.43821 5.0182,-7.93263 6.93857,-21.39018 4.04171,-28.32334 -0.77115,-1.84563 -5.17141,-7.12501 -9.77835,-11.73194 -13.37965,-13.3797 -25.49743,-32.97762 -31.13122,-50.34817 -3.859,-11.89835 -4.94646,-19.5788 -4.814,-34 0.2468,-26.86971 9.74019,-51.08735 28.39024,-72.42349 20.31062,-23.23587 52.27819,-41.24667 86.23543,-48.58578 60.21636,-13.014436 123.17081,3.30627 162.04396,42.00927 20.19366,20.10528 31.70738,41.84983 36.0286,68.04283 1.26821,7.68727 1.50978,13.60463 1.05966,25.95717 -0.32066,8.8 -1.04455,17.57363 -1.60864,19.49697 -0.9431,3.21557 -0.54341,4.50304 4.96711,16 8.08698,16.87238 10.43741,26.40853 9.73367,39.49138 -1.04384,19.40546 -8.49418,35.51003 -22.94413,49.59578 l -7.78023,7.58414 0,5.69911 c 0,7.18292 3.27663,14.00164 9.14001,19.02047 2.321,1.98668 3.75327,3.61215 3.18285,3.61215 -1.9507,0 -11.15771,-10.11723 -13.24176,-14.55086 -1.40205,-2.98273 -2.0811,-6.43246 -2.0811,-10.57249 l 0,-6.14516 8.7797,-8.62228 c 12.81623,-12.58644 18.12651,-22.25481 21.75507,-39.60921 3.18345,-15.22563 0.98153,-28.65859 -7.4178,-45.25275 -3.80079,-7.50907 -17.3049,-20.83383 -29.37749,-28.98737 -35.32468,-23.85741 -85.93348,-24.78932 -123.82221,-2.28004 -8.79383,5.22432 -23.13376,18.76273 -28.78005,27.17141 -8.97236,13.362 -13.69055,32.50265 -11.2412,45.60306 5.095,27.25076 17.2216,43.98489 42.80569,59.06981 6.47974,3.82059 22.02265,9.67671 31.53243,11.8805 8.52978,1.97669 42.45101,2.37545 49.5287,0.58224 4.66547,-1.18205 4.15483,-1.40824 15.85659,7.02407 2.81569,2.02899 5.76319,3.68907 6.55,3.68907 0.78681,0 1.89953,0.46896 2.4727,1.04213 2.27715,2.27715 17.20062,7.01648 23.94859,7.60549 5.36784,0.46854 8.36004,0.19732 12.31478,-1.11623 5.49567,-1.82537 6.72762,-1.62365 5.74366,0.94049 -1.2687,3.30618 -10.69159,5.00466 -19.31441,3.48142 z M 186.24329,378.69349 c 14.94795,-4.60535 27.02501,-10.59639 37.89946,-18.80071 l 9.5,-7.16736 10.75,-0.003 c 5.9125,-0.002 10.75,-0.17204 10.75,-0.3786 0,-0.20656 -1.14487,-2.96433 -2.54416,-6.12837 -5.08395,-11.49571 -7.27196,-26.7062 -5.42577,-37.71854 3.08277,-18.38837 9.71461,-30.72515 24.37504,-45.34329 10.96947,-10.93782 19.56624,-16.59505 34.6433,-22.79752 14.42841,-5.93561 26.6523,-8.03015 46.95159,-8.04504 9.625,-0.007 19.975,0.51379 23,1.15744 13.03928,2.77446 18.62025,4.0913 20.41404,4.81672 1.33703,0.5407 1.69843,0.42517 1.19881,-0.38324 -0.39338,-0.6365 -5.0797,-3.27143 -10.41405,-5.8554 -5.33434,-2.58397 -11.57988,-5.96466 -13.87898,-7.51265 -2.29909,-1.548 -4.74509,-2.81454 -5.43554,-2.81454 -0.69046,0 -2.18438,-0.82717 -3.31983,-1.83816 -1.13545,-1.01102 -3.63945,-2.45107 -5.56445,-3.20013 -3.36569,-1.30968 -15.58053,-8.28881 -21.20951,-12.11838 -1.49023,-1.01385 -3.36523,-1.84336 -4.16666,-1.84336 -0.80144,0 -1.60716,-0.36787 -1.7905,-0.8175 -0.18333,-0.44962 -3.25833,-2.30854 -6.83333,-4.13092 -12.3447,-6.29282 -15.32131,-8.0048 -17.5371,-10.08643 -2.51505,-2.36277 -18.92503,-10.96515 -20.91722,-10.96515 -0.71544,0 -1.86099,-0.675 -2.54568,-1.5 -0.68469,-0.825 -1.88666,-1.5 -2.67104,-1.5 -0.78439,0 -4.03178,-1.7307 -7.21643,-3.846 -3.18465,-2.11531 -7.12641,-4.31179 -8.75948,-4.88108 -1.63306,-0.56929 -4.50586,-2.43859 -6.38399,-4.154 -1.87813,-1.7154 -4.15939,-3.11892 -5.06948,-3.11892 -0.91008,0 -2.19088,-0.64607 -2.84623,-1.43572 -0.65535,-0.78965 -2.51508,-1.72642 -4.13273,-2.08172 -1.61766,-0.35529 -3.51937,-1.22417 -4.22603,-1.93082 -1.44901,-1.44902 -10.76116,-6.55174 -11.95651,-6.55174 -0.4278,0 -2.68138,-1.21703 -5.00795,-2.7045 -2.32657,-1.48747 -5.58013,-3.4357 -7.23013,-4.32939 -1.65,-0.89369 -5.20452,-2.82666 -7.89894,-4.2955 -6.20176,-3.38083 -8.31716,-3.34964 -15.37958,0.2267 -11.73195,5.94096 -23.73429,14.84869 -33.30668,24.71908 -14.66235,15.11882 -21.78697,26.9307 -29.05367,48.16794 -3.83,11.19334 -3.86113,11.40929 -3.86113,26.78212 0,11.51359 0.38562,16.42071 1.5,19.08779 0.825,1.97451 1.5,4.80879 1.5,6.29841 0,1.48961 1.12312,4.92216 2.49581,7.62787 1.3727,2.70571 2.4977,5.33099 2.5,5.83394 0.0101,2.20504 7.29608,15.98179 11.50715,21.75837 2.53685,3.47994 9.42398,10.72167 15.30474,16.09272 11.84717,10.82033 13.01912,12.85722 13.0806,22.73445 0.053,8.52049 -1.89286,16.3524 -5.9577,23.97882 -3.61095,6.77484 -8.24006,11.02702 -17.4306,16.01127 -3.3,1.78967 -6.4275,3.64903 -6.95,4.13193 -2.98615,2.75977 6.89412,4.93572 20.05054,4.41577 6.62895,-0.26198 11.92492,-1.22983 19.5,-3.56366 z m 243.89946,-121.3575 c 0,-1.62631 -0.71469,-2.5749 -2.25,-2.98634 -4.62739,-1.2401 -5.16547,-0.67338 -2.25,2.36971 3.47079,3.62272 4.5,3.76376 4.5,0.61663 z M 297.60169,328.3783 c -5.48783,-5.48783 -5.77266,-10.7558 -0.89496,-16.55261 4.7809,-5.68177 13.43626,-5.92833 18.51028,-0.52729 2.01391,2.14371 2.42574,3.60567 2.42574,8.61113 0,5.65458 -0.21504,6.20856 -3.46223,8.91944 -1.90422,1.58971 -4.15422,2.88871 -5,2.88665 -0.84577,-0.002 -0.12779,-0.8635 1.59552,-1.91432 6.92508,-4.22271 8.30507,-10.29743 3.44363,-15.15886 -4.27607,-4.27607 -8.28597,-3.74815 -14.32692,1.8862 -4.44274,4.14371 -3.47675,10.64615 2.02514,13.63192 2.10465,1.14215 2.30378,1.48784 0.87486,1.51876 -1.0175,0.022 -3.35347,-1.46343 -5.19106,-3.30102 z m 44.94233,1.44401 c -3.5614,-2.1717 -6.45069,-8.39359 -5.70623,-12.28797 0.77477,-4.05294 5.35974,-8.83455 9.30496,-9.70403 7.44789,-1.64143 15.07289,3.38374 14.90981,9.82614 l -0.0902,3.56291 -0.93514,-3.23742 c -1.3349,-4.62134 -5.93214,-6.86448 -10.97315,-5.35416 -4.11032,1.23148 -8.91133,6.14559 -8.91133,9.12125 0,3.37967 2.20878,6.82112 5.38294,8.38704 1.71438,0.84576 2.44206,1.54631 1.61706,1.55678 -0.825,0.0105 -2.89443,-0.83127 -4.59873,-1.87054 z m 11.61433,0.0622 c 1.91642,-1.00914 4.2712,-3.37164 5.23285,-5.25 1.13855,-2.2239 1.74898,-2.76987 1.75,-1.56519 0.002,2.38907 -6.24651,8.65 -8.63285,8.65 -1.17968,0 -0.59077,-0.65486 1.65,-1.83481 z m 30.21971,-1.58835 c -3.36141,-3.08047 -3.73531,-3.92473 -3.73531,-8.4343 0,-4.18395 0.48585,-5.51829 2.94315,-8.08317 4.27258,-4.4596 8.84871,-5.46616 14.16318,-3.11532 5.24458,2.31993 7.83339,6.74095 7.10915,12.14058 -0.77341,5.76618 -5.60956,11.01953 -10.01253,10.87627 -0.66162,-0.0215 0.25069,-0.67108 2.02736,-1.44345 3.50964,-1.52574 7.25998,-6.75568 7.26595,-10.13255 0.005,-3.08469 -3.57208,-7.13278 -6.96157,-7.87724 -3.47036,-0.76222 -9.37322,1.70991 -11.5693,4.84525 -3.01792,4.30869 -1.45108,10.50472 3.30975,13.08833 1.97671,1.07272 2.24034,1.48972 0.96017,1.51876 -0.97057,0.022 -3.44557,-1.50038 -5.5,-3.38312 z"
         id="path3348"
         inkscape:connector-curvature="0" />
      <path
         style="fill:#631d9d"
         d="m 420.4775,418.67266 c -11.18842,-1.97646 -21.82308,-6.76471 -38.50415,-17.33648 -2.73697,-1.73458 -3.75784,-1.79376 -12.93687,-0.75 -35.25234,4.0086 -68.31327,-4.77145 -90.98501,-24.16306 -3.3462,-2.86207 -8.18206,-6.88489 -10.74636,-8.93961 l -4.66236,-3.73586 -10.79966,-0.0141 c -12.16537,-0.0159 -12.73527,0.1807 -24.70034,8.52255 -10.13326,7.06474 -19.28069,11.49292 -33,15.97497 -10.29175,3.36228 -12.66077,3.76916 -22.54809,3.87267 -10.47723,0.10968 -11.20593,-0.0167 -14.10307,-2.44615 -1.68024,-1.40899 -6.02852,-3.36671 -9.66285,-4.35047 -3.63433,-0.98377 -7.1257,-2.41261 -7.7586,-3.17521 -1.51717,-1.82808 -0.33443,-6.34278 1.85241,-7.07089 10.72122,-3.56962 21.0397,-10.95057 25.77639,-18.43821 5.0182,-7.93263 6.93857,-21.39018 4.04171,-28.32334 -0.77115,-1.84563 -5.17141,-7.12501 -9.77835,-11.73194 -13.37965,-13.3797 -25.49743,-32.97762 -31.13122,-50.34817 -3.859,-11.89835 -4.94646,-19.5788 -4.814,-34 0.2468,-26.86971 9.74019,-51.08735 28.39024,-72.42349 20.31062,-23.23587 52.27819,-41.24667 86.23543,-48.58578 60.21636,-13.014436 123.17081,3.30627 162.04396,42.00927 20.19366,20.10528 31.70738,41.84983 36.0286,68.04283 1.26821,7.68727 1.50978,13.60463 1.05966,25.95717 -0.32066,8.8 -1.04455,17.57363 -1.60864,19.49697 -0.9431,3.21557 -0.54341,4.50304 4.96711,16 8.08698,16.87238 10.43741,26.40853 9.73367,39.49138 -1.04384,19.40546 -8.49418,35.51003 -22.94413,49.59578 l -7.78023,7.58414 0,5.69911 c 0,7.18292 3.27663,14.00164 9.14001,19.02047 2.321,1.98668 3.75327,3.61215 3.18285,3.61215 -1.9507,0 -11.15771,-10.11723 -13.24176,-14.55086 -1.40205,-2.98273 -2.0811,-6.43246 -2.0811,-10.57249 l 0,-6.14516 8.7797,-8.62228 c 12.81623,-12.58644 18.12651,-22.25481 21.75507,-39.60921 3.18345,-15.22563 0.98153,-28.65859 -7.4178,-45.25275 -3.80079,-7.50907 -17.3049,-20.83383 -29.37749,-28.98737 -35.32468,-23.85741 -85.93348,-24.78932 -123.82221,-2.28004 -8.79383,5.22432 -23.13376,18.76273 -28.78005,27.17141 -8.97236,13.362 -13.69055,32.50265 -11.2412,45.60306 5.095,27.25076 17.2216,43.98489 42.80569,59.06981 6.47974,3.82059 22.02265,9.67671 31.53243,11.8805 8.52978,1.97669 42.45101,2.37545 49.5287,0.58224 4.66547,-1.18205 4.15483,-1.40824 15.85659,7.02407 2.81569,2.02899 5.76319,3.68907 6.55,3.68907 0.78681,0 1.89953,0.46896 2.4727,1.04213 2.27715,2.27715 17.20062,7.01648 23.94859,7.60549 5.36784,0.46854 8.36004,0.19732 12.31478,-1.11623 5.49567,-1.82537 6.72762,-1.62365 5.74366,0.94049 -1.2687,3.30618 -10.69159,5.00466 -19.31441,3.48142 z M 186.24329,378.69349 c 14.94795,-4.60535 27.02501,-10.59639 37.89946,-18.80071 l 9.5,-7.16736 10.75,-0.003 c 5.9125,-0.002 10.75,-0.17204 10.75,-0.3786 0,-0.20656 -1.14487,-2.96433 -2.54416,-6.12837 -5.90366,-13.34922 -7.54033,-31.63866 -4.02656,-44.99606 7.40898,-28.16486 30.36989,-50.80376 62.33363,-61.45944 39.09745,-13.03383 86.52846,-4.45468 114.35388,20.68392 2.09431,1.89208 4.23267,3.17758 4.75191,2.85667 0.51925,-0.32092 1.66121,-2.68812 2.5377,-5.26045 2.12983,-6.25074 2.24813,-34.77598 0.17634,-42.52191 -9.3617,-35.00111 -23.11966,-53.90091 -56.46915,-77.57369 -13.394,-9.50762 -40.73869,-20.27042 -60.11359,-23.66058 -5.225,-0.91426 -10.88195,-2.09029 -12.571,-2.61341 -3.96706,-1.22866 -38.83824,-1.24049 -42.858,-0.0145 -1.68905,0.51512 -8.246,1.88384 -14.571,3.04158 -32.5507,5.95818 -62.80911,21.58474 -83.51819,43.13186 -15.40273,16.02604 -23.20562,28.99329 -29.85914,49.62147 -3.52675,10.93413 -3.62267,11.64326 -3.62267,26.78212 0,11.56054 0.38488,16.47175 1.5,19.14061 0.825,1.97451 1.5,4.80879 1.5,6.29841 0,1.48961 1.12312,4.92216 2.49581,7.62787 1.3727,2.70571 2.4977,5.33099 2.5,5.83394 0.0101,2.20504 7.29608,15.98179 11.50715,21.75837 2.53685,3.47994 9.42398,10.72167 15.30474,16.09272 11.84717,10.82033 13.01912,12.85722 13.0806,22.73445 0.053,8.52049 -1.89286,16.3524 -5.9577,23.97882 -3.61095,6.77484 -8.24006,11.02702 -17.4306,16.01127 -3.3,1.78967 -6.4275,3.64903 -6.95,4.13193 -2.98615,2.75977 6.89412,4.93572 20.05054,4.41577 6.62895,-0.26198 11.92492,-1.22983 19.5,-3.56366 z m 111.3584,-50.31519 c -5.48783,-5.48783 -5.77266,-10.7558 -0.89496,-16.55261 4.7809,-5.68177 13.43626,-5.92833 18.51028,-0.52729 2.01391,2.14371 2.42574,3.60567 2.42574,8.61113 0,5.65458 -0.21504,6.20856 -3.46223,8.91944 -1.90422,1.58971 -4.15422,2.88871 -5,2.88665 -0.84577,-0.002 -0.12779,-0.8635 1.59552,-1.91432 6.92508,-4.22271 8.30507,-10.29743 3.44363,-15.15886 -4.27607,-4.27607 -8.28597,-3.74815 -14.32692,1.8862 -4.44274,4.14371 -3.47675,10.64615 2.02514,13.63192 2.10465,1.14215 2.30378,1.48784 0.87486,1.51876 -1.0175,0.022 -3.35347,-1.46343 -5.19106,-3.30102 z m 44.94233,1.44401 c -3.5614,-2.1717 -6.45069,-8.39359 -5.70623,-12.28797 0.77477,-4.05294 5.35974,-8.83455 9.30496,-9.70403 7.44789,-1.64143 15.07289,3.38374 14.90981,9.82614 l -0.0902,3.56291 -0.93514,-3.23742 c -1.3349,-4.62134 -5.93214,-6.86448 -10.97315,-5.35416 -4.11032,1.23148 -8.91133,6.14559 -8.91133,9.12125 0,3.37967 2.20878,6.82112 5.38294,8.38704 1.71438,0.84576 2.44206,1.54631 1.61706,1.55678 -0.825,0.0105 -2.89443,-0.83127 -4.59873,-1.87054 z m 11.61433,0.0622 c 1.91642,-1.00914 4.2712,-3.37164 5.23285,-5.25 1.13855,-2.2239 1.74898,-2.76987 1.75,-1.56519 0.002,2.38907 -6.24651,8.65 -8.63285,8.65 -1.17968,0 -0.59077,-0.65486 1.65,-1.83481 z m 30.21971,-1.58835 c -3.36141,-3.08047 -3.73531,-3.92473 -3.73531,-8.4343 0,-4.18395 0.48585,-5.51829 2.94315,-8.08317 4.27258,-4.4596 8.84871,-5.46616 14.16318,-3.11532 5.24458,2.31993 7.83339,6.74095 7.10915,12.14058 -0.77341,5.76618 -5.60956,11.01953 -10.01253,10.87627 -0.66162,-0.0215 0.25069,-0.67108 2.02736,-1.44345 3.50964,-1.52574 7.25998,-6.75568 7.26595,-10.13255 0.005,-3.08469 -3.57208,-7.13278 -6.96157,-7.87724 -3.47036,-0.76222 -9.37322,1.70991 -11.5693,4.84525 -3.01792,4.30869 -1.45108,10.50472 3.30975,13.08833 1.97671,1.07272 2.24034,1.48972 0.96017,1.51876 -0.97057,0.022 -3.44557,-1.50038 -5.5,-3.38312 z"
         id="path3346"
         inkscape:connector-curvature="0" />
      <path
         style="fill:#400b78"
         d="m 167.14275,388.24437 c -2.475,-0.7348 -6.525,-2.06269 -9,-2.95087 l -4.5,-1.61488 3.81505,0.46805 c 10.90751,1.33821 35.10396,-4.60521 50.68495,-12.44984 6.57599,-3.31085 18.40724,-11.12762 23.08882,-15.25453 0.97666,-0.86095 5.02219,-1.62113 10.5,-1.97303 11.09453,-0.71272 17.77097,0.15715 18.19649,2.3708 0.40463,2.10501 -2.49296,2.84843 -11.16929,2.86564 -9.38561,0.0186 -13.03058,1.31366 -21.69066,7.70664 -10.26139,7.57508 -18.30985,11.90958 -29.62063,15.95221 -15.04363,5.3768 -23.8528,6.7953 -30.30473,4.87981 z m -26,-7.58403 c 0,-0.58246 0.45,-0.7809 1,-0.44098 0.55,0.33992 1,0.81648 1,1.05902 0,0.24254 -0.45,0.44098 -1,0.44098 -0.55,0 -1,-0.47656 -1,-1.05902 z m 32.63587,-53.25565 c -0.41208,-1.64186 -4.09978,-6.04931 -8.91874,-10.65948 -4.51888,-4.32309 -7.90126,-8.17505 -7.51639,-8.55993 0.38488,-0.38487 4.08995,2.39035 8.2335,6.16716 7.11515,6.48538 10.33963,11.54531 9.31541,14.61796 -0.22616,0.67848 -0.72736,-0.0261 -1.11378,-1.56571 z m 165.36413,-11.06398 c 0,-2.11337 2.53229,-4.94581 5.54837,-6.20601 4.56149,-1.90591 6.70063,-1.72943 2.95163,0.24351 -1.65,0.86832 -4.2375,2.7345 -5.75,4.14705 -1.5125,1.41256 -2.75,2.22951 -2.75,1.81545 z m -43,-1.39614 c 0,-1.83798 4.74086,-5.21716 8.04807,-5.73651 3.13393,-0.49213 3.22438,-0.44295 0.98181,0.53382 -1.35856,0.59174 -3.94606,2.20164 -5.75,3.57757 -1.80393,1.37593 -3.27988,2.10723 -3.27988,1.62512 z m 87,0.12342 c 0,-1.76043 4.4016,-5.17984 7.5,-5.82641 l 3,-0.62604 -3,1.67351 c -1.65,0.92042 -4.0125,2.59722 -5.25,3.72622 -1.2375,1.12899 -2.25,1.60272 -2.25,1.05272 z m 48.61313,-47.16557 c -0.33693,-0.54517 0.29511,-2.94688 1.40452,-5.33714 l 2.01711,-4.34592 -0.43846,4.37108 c -0.45609,4.54675 -1.88432,7.08994 -2.98317,5.31198 z m 4.09405,-19.18306 c -1.00095,-3.68067 -0.8552,-28 0.16782,-28 0.48125,0 1.15625,1.40625 1.5,3.125 0.82072,4.10359 0.62206,21.68025 -0.28115,24.875 l -0.70679,2.5 -0.67988,-2.5 z m -1.63976,-33.25 c -0.48934,-1.2375 -1.92399,-6.075 -3.18813,-10.75 -2.65405,-9.81516 -9.65956,-24.13534 -16.48939,-33.70649 -14.53095,-20.36331 -41.60093,-40.13748 -69.3899,-50.68818 -6.90208,-2.62053 -28.15069,-8.01065 -36.5,-9.25893 -3.61436,-0.54037 -4.2644,-0.84636 -2.34561,-1.10416 3.51914,-0.47281 25.2656,4.1626 34.78179,7.41398 39.00387,13.3264 69.44729,38.25356 85.29984,69.84378 4.46637,8.90038 8.38508,19.79049 9.28795,25.81128 0.74574,4.97296 0.0236,6.182 -1.45655,2.43872 z m -301.98182,-14.25 c 0.10413,-1.89422 1.77076,-5.08385 1.8288,-3.5 0.0302,0.825 -0.38124,2.175 -0.9144,3 -0.53316,0.825 -0.94464,1.05 -0.9144,0.5 z m 4.40335,-11.5 c 1.04095,-3.52911 5.58389,-11.81556 7.22395,-13.17669 0.75696,-0.62822 -0.51913,2.41704 -2.83574,6.76724 -4.79246,8.99941 -5.42441,9.92244 -4.38821,6.40945 z m 9.55166,-17.07588 c 1.89857,-3.54751 11.89868,-15.17065 17.81448,-20.70581 19.6779,-18.41172 46.45741,-32.50738 73.45696,-38.66478 12.07771,-2.75439 10.56788,-1.50049 -2.31205,1.92014 -35.82254,9.5137 -63.54126,26.75154 -83.25714,51.77633 -6.24674,7.9288 -7.6633,9.33837 -5.70225,5.67412 z m 103.45939,-61.92412 c 1.1,-0.47268 4.025,-0.83781 6.5,-0.8114 4.06267,0.0434 4.20845,0.12222 1.5,0.8114 -1.65,0.41986 -4.575,0.78499 -6.5,0.8114 -2.81455,0.0386 -3.10831,-0.12028 -1.5,-0.8114 z m 24,-2 c -0.39465,-0.63855 2.65628,-1 8.44098,-1 5.37268,0 9.05902,0.40693 9.05902,1 0,0.58769 -3.48033,1 -8.44098,1 -4.64254,0 -8.7191,-0.45 -9.05902,-1 z"
         id="path3344"
         inkscape:connector-curvature="0" />
    </g>
  </g>
</svg>
