<?xml version="1.0" encoding="UTF-8" standalone="no"?>
<!-- Created with Inkscape (http://www.inkscape.org/) -->

<svg
   xmlns:dc="http://purl.org/dc/elements/1.1/"
   xmlns:cc="http://creativecommons.org/ns#"
   xmlns:rdf="http://www.w3.org/1999/02/22-rdf-syntax-ns#"
   xmlns:svg="http://www.w3.org/2000/svg"
   xmlns="http://www.w3.org/2000/svg"
   xmlns:sodipodi="http://sodipodi.sourceforge.net/DTD/sodipodi-0.dtd"
   xmlns:inkscape="http://www.inkscape.org/namespaces/inkscape"
   width="43.760857mm"
   height="44.575306mm"
   viewBox="0 0 155.05815 157.94399"
   id="svg3342"
   version="1.1"
   inkscape:version="0.91 r13725"
   sodipodi:docname="notify_spot.svg">
  <defs
     id="defs3344" />
  <sodipodi:namedview
     id="base"
     pagecolor="#ffffff"
     bordercolor="#666666"
     borderopacity="1.0"
     inkscape:pageopacity="0.0"
     inkscape:pageshadow="2"
     inkscape:zoom="0.35"
     inkscape:cx="-809.34743"
     inkscape:cy="142.69891"
     inkscape:document-units="px"
     inkscape:current-layer="layer1"
     showgrid="false"
     inkscape:window-width="1920"
     inkscape:window-height="1017"
     inkscape:window-x="-8"
     inkscape:window-y="-8"
     inkscape:window-maximized="1"
     fit-margin-top="0"
     fit-margin-left="0"
     fit-margin-right="0"
     fit-margin-bottom="0" />
  <metadata
     id="metadata3347">
    <rdf:RDF>
      <cc:Work
         rdf:about="">
        <dc:format>image/svg+xml</dc:format>
        <dc:type
           rdf:resource="http://purl.org/dc/dcmitype/StillImage" />
        <dc:title></dc:title>
      </cc:Work>
    </rdf:RDF>
  </metadata>
  <g
     inkscape:label="Layer 1"
     inkscape:groupmode="layer"
     id="layer1"
     transform="translate(-310.06171,-517.1171)">
    <g
       id="g3352"
       transform="translate(2.8571429,57.142857)">
      <path
         style="fill:#fcf000"
         d="m 365.85271,615.89655 c -4.31082,-1.05924 -11.96082,-4.04172 -17,-6.62774 -7.4846,-3.84096 -10.91197,-6.45039 -18.71899,-14.2517 -8.15558,-8.14963 -10.24117,-10.94278 -14.22413,-19.04986 -6.11171,-12.44004 -8.70502,-23.46267 -8.70502,-37 0,-31.09299 16.45651,-58.0048 43.40853,-70.98722 12.22947,-5.89077 21.32398,-8.01503 34.27487,-8.00577 12.90111,0.009 24.00067,2.71831 35.66766,8.70549 7.45432,3.82535 10.89316,6.44473 18.69177,14.23764 8.15558,8.14963 10.24117,10.94278 14.22413,19.04986 13.1991,26.866 11.44198,57.99313 -4.64151,82.22394 -7.38216,11.12168 -20.62278,22.19064 -33.13946,27.70408 -13.94823,6.14402 -34.4264,7.78813 -49.83785,4.00128 z"
         id="path3366"
         inkscape:connector-curvature="0" />
      <path
         style="fill:#9e9e9e"
         d="m 365.85271,615.89655 c -4.31082,-1.05924 -11.96082,-4.04172 -17,-6.62774 -7.4846,-3.84096 -10.91197,-6.45039 -18.71899,-14.2517 -8.15558,-8.14963 -10.24117,-10.94278 -14.22413,-19.04986 -6.11171,-12.44004 -8.70502,-23.46267 -8.70502,-37 0,-31.09299 16.45651,-58.0048 43.40853,-70.98722 12.22947,-5.89077 21.32398,-8.01503 34.27487,-8.00577 12.90111,0.009 24.00067,2.71831 35.66766,8.70549 7.45432,3.82535 10.89316,6.44473 18.69177,14.23764 8.15558,8.14963 10.24117,10.94278 14.22413,19.04986 13.1991,26.866 11.44198,57.99313 -4.64151,82.22394 -7.38216,11.12168 -20.62278,22.19064 -33.13946,27.70408 -13.94823,6.14402 -34.4264,7.78813 -49.83785,4.00128 z m 37.84389,-8.98515 c 12.00283,-3.67515 20.22128,-8.61805 28.99396,-17.43811 12.45565,-12.52293 18.43133,-24.66868 20.67024,-42.01287 1.92486,-14.91132 -1.65316,-32.24457 -9.34945,-45.29212 -4.3149,-7.31506 -17.77648,-20.79585 -24.98619,-25.02184 -12.82969,-7.52015 -29.31353,-11.02174 -43.05474,-9.14592 -16.35073,2.23205 -27.89536,8.00813 -39.8293,19.92762 -13.12795,13.11206 -19.57927,27.49846 -20.66207,46.07629 -2.14058,36.72656 22.58893,68.44361 58.4749,74.99747 7.32445,1.33767 21.88993,0.31391 29.74265,-2.09052 z"
         id="path3364"
         inkscape:connector-curvature="0" />
      <path
         style="fill:#9d9a68"
         d="m 374.66711,615.97931 c -38.01528,-5.58808 -65.61789,-37.7734 -65.61789,-76.51206 0,-13.77746 2.34495,-23.46645 8.83379,-36.5 3.92825,-7.89031 6.26122,-11.03941 13.7686,-18.5852 7.63401,-7.67308 10.51555,-9.8118 18.53895,-13.7599 12.47971,-6.14093 22.64608,-8.6549 35,-8.6549 22.17979,0 43.73401,10.03209 57.55524,26.78821 19.12634,23.18774 23.26437,56.62883 10.40728,84.10525 -13.96222,29.83813 -46.65318,47.79789 -78.48597,43.1186 z m 29.02949,-9.06791 c 12.00283,-3.67515 20.22128,-8.61805 28.99396,-17.43811 12.45565,-12.52293 18.43133,-24.66868 20.67024,-42.01287 1.92486,-14.91132 -1.65316,-32.24457 -9.34945,-45.29212 -4.3149,-7.31506 -17.77648,-20.79585 -24.98619,-25.02184 -12.82969,-7.52015 -29.31353,-11.02174 -43.05474,-9.14592 -16.35073,2.23205 -27.89536,8.00813 -39.8293,19.92762 -13.12795,13.11206 -19.57927,27.49846 -20.66207,46.07629 -2.14058,36.72656 22.58893,68.44361 58.4749,74.99747 7.32445,1.33767 21.88993,0.31391 29.74265,-2.09052 z"
         id="path3362"
         inkscape:connector-curvature="0" />
      <path
         style="fill:#a39b09"
         d="m 375.9225,615.93402 c -29.41931,-3.4992 -53.78559,-23.86742 -63.36359,-52.96677 -2.55911,-7.77497 -2.79849,-9.77946 -2.80641,-23.5 -0.008,-14.16924 0.16454,-15.51397 3.11866,-24.28018 4.26175,-12.64652 10.21147,-22.26468 19.31236,-31.21982 9.19404,-9.0468 17.35313,-13.99857 30.00704,-18.21133 8.65861,-2.88264 10.65137,-3.16727 22.5,-3.21372 13.77738,-0.054 20.01163,1.16745 31.35408,6.14316 40.16865,17.62119 56.57893,69.46481 34.51898,109.0529 -14.66828,26.32323 -44.80435,41.74463 -74.64112,38.19576 z m 27.7741,-9.02262 c 12.00283,-3.67515 20.22128,-8.61805 28.99396,-17.43811 12.45565,-12.52293 18.43133,-24.66868 20.67024,-42.01287 1.92486,-14.91132 -1.65316,-32.24457 -9.34945,-45.29212 -4.31156,-7.30939 -17.77477,-20.79492 -24.9716,-25.01299 -3.10794,-1.82157 -8.66925,-4.36668 -12.35847,-5.65579 -4.14974,-1.45004 -5.99895,-2.49928 -4.84919,-2.75145 2.69242,-0.59052 -7.85906,-2.77659 -16.64153,-3.44782 -28.57835,-2.1842 -57.13563,17.49571 -67.00237,46.17389 -2.32686,6.76314 -2.54941,9.3033 -0.43745,4.99311 0.80849,-1.65 1.19973,-2.1 0.86941,-1 -11.65066,38.79888 8.36824,78.96654 45.3338,90.96168 12.49316,4.05397 27.48398,4.23596 39.74265,0.48247 z m -6.69354,-138.62726 c 0.72187,-0.28888 1.58438,-0.25335 1.91667,0.079 0.33229,0.33229 -0.25834,0.56864 -1.3125,0.52522 -1.16495,-0.048 -1.4019,-0.28495 -0.60417,-0.60417 z m -8.54347,-1.00988 c 0.97297,-0.25354 2.32297,-0.23687 3,0.037 0.67703,0.27392 -0.11903,0.48137 -1.76903,0.46099 -1.65,-0.0204 -2.20394,-0.2445 -1.23097,-0.49805 z m -72.58592,53.50549 c -0.31922,-0.79773 -0.55618,-0.56078 -0.60416,0.60417 -0.0434,1.05416 0.19293,1.64479 0.52522,1.3125 0.33229,-0.3323 0.36781,-1.1948 0.0789,-1.91667 z"
         id="path3360"
         inkscape:connector-curvature="0" />
      <path
         style="fill:#666664"
         d="m 375.9225,615.93402 c -29.41931,-3.4992 -53.78559,-23.86742 -63.36359,-52.96677 -2.55911,-7.77497 -2.79849,-9.77946 -2.80641,-23.5 -0.008,-14.16924 0.16454,-15.51397 3.11866,-24.28018 4.26175,-12.64652 10.21147,-22.26468 19.31236,-31.21982 9.19404,-9.0468 17.35313,-13.99857 30.00704,-18.21133 8.65861,-2.88264 10.65137,-3.16727 22.5,-3.21372 13.77738,-0.054 20.01163,1.16745 31.35408,6.14316 40.16865,17.62119 56.57893,69.46481 34.51898,109.0529 -14.66828,26.32323 -44.80435,41.74463 -74.64112,38.19576 z m 29.9058,-8.47792 c 23.13127,-7.75524 38.92215,-24.23202 46.50411,-48.52409 3.34168,-10.70652 3.34267,-29.20148 0.002,-39.96476 -6.51106,-20.97882 -20.6343,-37.58459 -39.644,-46.61246 -20.00199,-9.49911 -41.4112,-9.56772 -60.43802,-0.19369 -11.98715,5.90577 -23.84863,17.74769 -29.85536,29.80615 -13.29923,26.69807 -10.51926,58.28674 7.18917,81.69024 10.00389,13.22116 26.49879,23.31954 42.92655,26.28015 9.05172,1.6313 24.47465,0.48251 33.3154,-2.48154 z"
         id="path3358"
         inkscape:connector-curvature="0" />
      <path
         style="fill:#5e5a0a"
         d="m 369.69056,613.48517 c -23.40251,-5.16054 -41.44458,-19.51076 -51.57051,-41.01792 -6.17645,-13.11857 -8.75914,-30.7632 -5.43565,-37.13569 1.4458,-2.7722 1.49404,-2.62024 1.5,4.72573 0.0158,19.41186 10.80275,42.30303 25.62357,54.37598 7.36688,6.00102 14.40068,9.87458 23.88259,13.15229 7.14104,2.46852 9.39581,2.76544 21,2.76544 11.60419,0 13.85896,-0.29692 21,-2.76544 23.50458,-8.12507 39.05518,-24.34638 46.64185,-48.65355 3.34361,-10.7127 3.34361,-29.21682 0,-39.92952 -5.64604,-18.08951 -16.00541,-31.97281 -31.62398,-42.38144 -3.64439,-2.42872 -3.77091,-2.6538 -1.49166,-2.6538 3.77525,0 14.1533,7.29794 20.99352,14.76283 3.96875,4.3312 7.65572,9.82238 10.54091,15.69913 6.55683,13.35533 7.93002,19.56148 7.86327,35.53804 -0.0499,11.95698 -0.37356,14.47153 -2.8313,22 -8.59954,26.34185 -27.56368,44.246 -54.00257,50.9841 -9.20205,2.34519 -22.84637,2.57217 -32.09004,0.53382 z"
         id="path3356"
         inkscape:connector-curvature="0" />
      <path
         style="fill:#242317"
         d="m 369.69056,613.48517 c -12.56367,-2.77044 -23.5449,-8.22067 -33.53416,-16.64373 -14.74455,-12.43279 -25.20956,-35.21381 -24.8439,-54.08203 l 0.12194,-6.29216 0.8629,5.9165 c 3.70657,25.41439 15.21397,45.33036 33.03853,57.1801 36.24723,24.09711 83.61925,11.16291 102.90493,-28.0966 11.38984,-23.18611 10.23897,-48.804 -3.19563,-71.13316 -4.01087,-6.66632 -13.42895,-17.17632 -20.34867,-22.70785 -5.88566,-4.70492 -3.65272,-4.19085 4.07417,0.93797 8.48072,5.62918 16.92288,15.56326 21.98053,25.865 6.55683,13.35533 7.93002,19.56148 7.86327,35.53804 -0.0499,11.95698 -0.37356,14.47153 -2.8313,22 -8.59954,26.34185 -27.56368,44.246 -54.00257,50.9841 -9.20205,2.34519 -22.84637,2.57217 -32.09004,0.53382 z"
         id="path3354"
         inkscape:connector-curvature="0" />
    </g>
  </g>
</svg>
