<?xml version="1.0" encoding="UTF-8" standalone="no"?>
<!-- Created with Inkscape (http://www.inkscape.org/) -->

<svg
   xmlns:dc="http://purl.org/dc/elements/1.1/"
   xmlns:cc="http://creativecommons.org/ns#"
   xmlns:rdf="http://www.w3.org/1999/02/22-rdf-syntax-ns#"
   xmlns:svg="http://www.w3.org/2000/svg"
   xmlns="http://www.w3.org/2000/svg"
   xmlns:sodipodi="http://sodipodi.sourceforge.net/DTD/sodipodi-0.dtd"
   xmlns:inkscape="http://www.inkscape.org/namespaces/inkscape"
   width="220.32809mm"
   height="201.79442mm"
   viewBox="0 0 780.69008 715.01958"
   id="svg2"
   version="1.1"
   inkscape:version="0.91 r13725"
   sodipodi:docname="notify_v22.svg">
  <defs
     id="defs4" />
  <sodipodi:namedview
     id="base"
     pagecolor="#ffffff"
     bordercolor="#666666"
     borderopacity="1.0"
     inkscape:pageopacity="0"
     inkscape:pageshadow="2"
     inkscape:zoom="0.49497475"
     inkscape:cx="-639.96326"
     inkscape:cy="312.99707"
     inkscape:document-units="px"
     inkscape:current-layer="layer1"
     showgrid="false"
     inkscape:window-width="1920"
     inkscape:window-height="1017"
     inkscape:window-x="-8"
     inkscape:window-y="-8"
     inkscape:window-maximized="1"
     showborder="true"
     fit-margin-top="0"
     fit-margin-left="0"
     fit-margin-right="0"
     fit-margin-bottom="0" />
  <metadata
     id="metadata7">
    <rdf:RDF>
      <cc:Work
         rdf:about="">
        <dc:format>image/svg+xml</dc:format>
        <dc:type
           rdf:resource="http://purl.org/dc/dcmitype/StillImage" />
        <dc:title></dc:title>
      </cc:Work>
    </rdf:RDF>
  </metadata>
  <g
     inkscape:label="Layer 1"
     inkscape:groupmode="layer"
     id="layer1"
     transform="translate(-145.22281,-323.78095)">
    <g
       id="g3343"
       transform="matrix(2.3791245,0,0,2.2699095,-70.503283,-1204.535)">
      <path
         style="fill:#d7e3ef"
         d="m 381.70498,987.37258 c -8.06444,-1.95029 -17.55068,-6.12132 -25.89198,-11.3845 l -8.88976,-5.60925 -20.85913,0.65416 c -17.64569,0.55339 -22.16859,0.38779 -29.35913,-1.07498 -21.16687,-4.30595 -38.74337,-12.39991 -52.81017,-24.31903 -10.77682,-9.13144 -14.0583,-10.85454 -24.4418,-12.83439 -12.59045,-2.40066 -15.04084,-1.8012 -26.59677,6.50659 -8.72871,6.27524 -27.16387,16.10874 -30.19954,16.10874 -0.59453,0 -3.18938,0.84541 -5.76634,1.87868 -2.57696,1.03327 -8.73538,2.64153 -13.68538,3.57391 -7.61511,1.43437 -10.60623,1.52867 -19.43845,0.61285 -6.01465,-0.62366 -11.43831,-1.73751 -12.79774,-2.62824 -3.30373,-2.16469 -6.25565,-7.36689 -6.26007,-11.03221 -0.004,-3.4844 1.8624,-5.45823 6.99626,-7.39811 14.72692,-5.56473 23.81684,-15.64421 25.82476,-28.63611 1.55482,-10.06018 0.73118,-12.67254 -6.21956,-19.72669 -22.26789,-22.5992 -32.356754,-39.6948 -38.149277,-64.64408 -2.692729,-11.59799 -3.253053,-27.66611 -1.412308,-40.5 6.336132,-44.17625 41.379075,-83.2554 91.456385,-101.99021 35.00428,-13.09572 76.01769,-15.23655 113.40413,-5.91949 62.3802,15.54574 106.70801,61.59047 111.1063,115.4097 1.14523,14.01347 0.75533,20.02505 -2.23759,34.5 -1.13721,5.5 -1.98722,11.4625 -1.88892,13.25 0.0983,1.7875 -0.11785,3.25 -0.48034,3.25 -0.36249,0 -5.01259,-4.1625 -10.33356,-9.25 -14.65322,-14.01029 -31.14584,-22.49473 -52.07002,-26.78682 -9.11851,-1.87045 -12.7367,-2.08869 -27.5,-1.65876 -18.21257,0.53039 -26.82837,2.23251 -41.95726,8.28902 -14.24244,5.70164 -31.43817,19.12697 -39.49204,30.83287 -8.27373,12.02546 -14.21287,31.83061 -12.16718,40.57369 0.72634,3.10431 0.90687,2.5673 1.59683,-4.75 0.94213,-9.99174 2.21209,-10.95501 3.95518,-3 0.70854,3.23361 3.0958,3.6502 3.87358,0.67597 0.51845,-1.98257 1.10793,-2.06114 13.36663,-1.78161 10.04095,0.22897 13.07595,0.62196 13.98394,1.81076 1.02375,1.34036 1.40755,1.29401 3.27433,-0.3954 1.16306,-1.05255 1.95438,-2.39456 1.75848,-2.98224 -0.19589,-0.58768 1.70566,-1.61317 4.22567,-2.27886 10.43559,-2.7567 19.07886,-0.53926 21.73182,5.57531 1.02001,2.35093 1.7377,3.09858 2.04087,2.12607 0.25718,-0.825 0.6409,-2.05747 0.8527,-2.73881 0.2731,-0.87854 1.08259,-0.97363 2.78345,-0.32697 1.75618,0.6677 2.8026,0.50761 3.90812,-0.59791 1.34635,-1.34635 1.58259,-1.12154 2.18263,2.07696 0.81872,4.36417 1.49543,4.42746 4.08225,0.38178 3.13191,-4.89816 6.82864,-7.07483 12.86574,-7.57547 6.89989,-0.5722 12.54573,2.27453 15.08919,7.60823 1.50659,3.15936 1.84455,3.38843 2.71206,1.83829 0.68041,-1.21584 0.62694,-2.20947 -0.17062,-3.17047 -0.63888,-0.76981 -0.8691,-2.32125 -0.5116,-3.44764 0.67188,-2.1169 2.41989,-2.81074 2.64023,-1.04799 0.0688,0.55 0.18125,1.46641 0.25,2.03647 0.20586,1.70692 2.98792,2.95969 5.125,2.3078 1.91888,-0.58533 1.92902,-0.53051 0.25,1.35157 -2.14429,2.40361 -2.21243,3.30416 -0.25,3.30416 0.825,0 1.5,-0.66088 1.5,-1.46862 0,-0.86379 0.58991,-1.24224 1.43241,-0.91894 0.90171,0.34602 2.00529,-0.55818 2.9787,-2.44055 2.04976,-3.9638 8.82015,-6.5963 15.35081,-5.96879 3.40542,0.32722 6.37485,1.54569 10.23073,4.19807 4.77163,3.2823 5.50722,3.52458 6.04516,1.99105 0.57626,-1.6428 0.65147,-1.64434 1.27249,-0.026 0.5177,1.34912 1.07311,1.49893 2.57573,0.69476 2.96953,-1.58925 13.66942,-1.83825 13.36397,-0.311 -0.35451,1.77253 0.44571,1.55429 2.75,-0.75 1.71071,-1.71071 3.22416,-2.09749 7.75,-1.98063 0.4125,0.0106 0.75,1.02315 0.75,2.25 0,1.62714 0.67636,2.31741 2.5,2.55137 1.375,0.17641 3.09209,1.07641 3.81575,2 1.10974,1.41632 1.26632,0.30881 1,-7.07307 -0.17366,-4.81379 -0.0367,-8.75129 0.30429,-8.75 0.57745,0.002 1.95087,4.6329 3.37157,11.3678 1.20862,5.72954 0.60119,16.55955 -1.40181,24.99326 -3.231,13.60425 -8.15445,22.19969 -20.08809,35.07014 -7.54746,8.13995 -8.56745,10.42697 -7.64661,17.14524 0.8741,6.37722 4.11975,12.0701 8.41465,14.75933 2.05164,1.28462 5.65833,3.55182 8.01487,5.03822 l 4.28462,2.70254 -1.78462,3.09572 c -0.98154,1.70264 -3.23267,3.71095 -5.0025,4.4629 -3.5262,1.49817 -15.65595,1.68047 -21.28212,0.31984 z m 30,-125.01168 c 0,-1.13246 0.45,-1.7809 1,-1.44098 0.55,0.33992 1,1.26648 1,2.05902 0,0.79254 -0.45,1.44098 -1,1.44098 -0.55,0 -1,-0.92656 -1,-2.05902 z"
         id="path3358"
         inkscape:connector-curvature="0" />
      <path
         style="fill:#98d4ee"
         d="m 384.70498,985.40498 c -10.24715,-1.7755 -19.2151,-5.79575 -32.28217,-14.4718 l -5.70543,-3.78819 -9.7562,0.7279 c -26.31804,1.96357 -45.88998,-0.0949 -61.75059,-6.49453 -8.25156,-3.32945 -18.97836,-9.07088 -22.50561,-12.04595 -1.375,-1.15975 1.325,-0.10154 6,2.35158 25.50233,13.38186 52.04005,17.23054 83.79567,12.15261 3.36343,-0.53783 4.29015,-0.16007 8.73351,3.56007 5.92236,4.9584 18.6316,11.22082 27.54764,13.57397 3.77824,0.99716 10.43803,1.72568 16.17318,1.76919 5.3625,0.0407 9.75,0.2333 9.75,0.42805 0,0.19475 -1.56055,1.00613 -3.46788,1.80307 -3.70612,1.54851 -9.25864,1.69429 -16.53212,0.43403 z M 115.86503,958.06289 c -6.97565,-1.86559 -12.1168,-9.12184 -9.39474,-13.25981 0.40408,-0.61427 4.19843,-2.71151 8.43188,-4.66054 13.69199,-6.30361 21.86309,-16.19742 23.91867,-28.96143 1.66834,-10.35946 0.5257,-14.07759 -6.49617,-21.13837 -15.86616,-15.95408 -23.29738,-26.16489 -30.73062,-42.22519 -13.475171,-29.11452 -13.010993,-64.21408 1.22659,-92.75085 6.79579,-13.62096 12.68715,-21.61773 24.80174,-33.66521 25.11718,-24.97801 55.9679,-39.69826 95.21094,-45.42939 13.67173,-1.99664 38.59864,-1.9991 52.89423,-0.005 62.86171,8.76769 112.86338,47.18595 127.48668,97.95303 3.08468,10.70898 4.64745,29.13475 3.40824,40.18477 -0.91987,8.2025 -4.63096,24.29688 -5.91796,25.66519 -0.43969,0.46748 -3.43197,-1.5587 -6.64949,-4.50262 -23.73854,-21.71989 -54.0968,-31.72192 -87.40975,-28.79859 -52.19404,4.58022 -91.05939,40.744 -88.61065,82.45125 0.87996,14.9877 4.85154,25.13743 16.31908,41.70493 l 5.33313,7.70493 -6.74093,-3.40418 c -8.29184,-4.18739 -23.45637,-6.99915 -28.54272,-5.29228 -1.75901,0.59028 -7.0232,3.88246 -11.6982,7.31594 -13.86561,10.18339 -31.46523,18.06249 -46.97628,21.03061 -8.83268,1.69018 -23.69974,1.73151 -29.86367,0.083 z m 270.83995,-12.42427 c 0,-0.42972 2.75732,-3.46722 6.12739,-6.75 7.01693,-6.83521 6.7346,-5.1937 -0.41746,2.42722 -4.78086,5.09426 -5.70993,5.79763 -5.70993,4.32278 z m -119.5,-45.07926 c -4.92421,-3.04166 -6.76246,-5.80587 -7.23494,-10.87931 -1.36461,-14.65321 18.0432,-20.64277 25.77894,-7.9558 6.99224,11.4676 -7.17527,25.85752 -18.544,18.83511 z m 43.57108,0.16511 c -10.29802,-5.41959 -10.11804,-19.73266 0.31036,-24.68126 4.47851,-2.1252 7.11036,-2.04772 12.07468,0.35547 5.12366,2.48032 7.54388,6.47909 7.54388,12.46425 0,3.98208 -0.5331,5.20595 -3.78725,8.69457 -4.6337,4.96757 -10.52424,6.12328 -16.14167,3.16697 z m 42.99058,-0.13182 c -4.27114,-2.29063 -7.06166,-7.37733 -7.06166,-12.87233 0,-3.30313 0.67814,-5.00316 3.09274,-7.75325 6.15839,-7.01401 16.2166,-6.94134 21.63021,0.15627 8.97031,11.76068 -4.5915,27.47872 -17.66129,20.46931 z"
         id="path3356"
         inkscape:connector-curvature="0" />
      <path
         style="fill:#69d0fb"
         d="m 375.03236,982.47584 c -4.49494,-1.55876 -9.21994,-3.61439 -10.5,-4.56806 -1.93214,-1.43948 -1.98774,-1.60914 -0.32738,-0.99903 17.16497,6.30742 17.88285,6.47132 28.5,6.50675 7.15502,0.0239 10.02215,0.34386 9,1.00442 -0.825,0.53316 -5.325,0.95152 -10,0.92971 -6.67273,-0.0311 -10.25689,-0.64893 -16.67262,-2.87379 z m -25.32738,-14.04507 c -0.91379,-0.58393 -10.29319,-0.73077 -24,-0.37574 -20.5178,0.53145 -23.33693,0.3968 -32,-1.52843 -9.42737,-2.09508 -28.56775,-8.87227 -27.64982,-9.79019 0.26319,-0.26319 1.30457,-0.0497 2.31417,0.47441 3.92368,2.03689 14.27659,5.16786 23.83565,7.20847 12.19314,2.60292 35.10791,2.94148 45.76609,0.67617 7.12087,-1.51347 7.58299,-1.39095 13.18391,3.49562 1.2842,1.12042 0.40149,1.02282 -1.45,-0.16031 z m -231,-10.14111 c -5.98301,-0.97519 -9.71459,-3.18089 -11.90376,-7.03619 -2.66674,-4.69633 -0.9551,-6.95351 8.73827,-11.52338 14.19465,-6.69196 20.95567,-14.87456 23.30348,-28.20329 2.05712,-11.67847 1.12859,-13.89793 -11.19199,-26.75206 -17.24142,-17.98806 -26.93082,-34.34781 -32.624465,-55.08368 -2.423051,-8.82458 -2.682672,-11.41798 -2.680026,-26.77114 0.0026,-15.20857 0.282453,-18.05378 2.65551,-27 13.941711,-52.55904 66.075711,-92.33002 131.676751,-100.451 12.15113,-1.50423 35.06294,-1.29294 48.32577,0.44567 62.67877,8.21647 113.59606,47.14083 128.2016,98.00533 2.97723,10.36834 4.3562,26.68987 3.31551,39.2423 -0.69429,8.37429 -4.34688,25.04537 -5.8332,26.62374 -0.44853,0.47631 -3.99896,-2.12383 -7.88982,-5.7781 -17.97889,-16.88565 -42.48197,-26.90222 -69.17791,-28.27912 -21.64804,-1.11655 -40.24908,2.70165 -59.41572,12.19615 -18.26932,9.04999 -31.6317,21.88537 -39.55507,37.99503 -5.86024,11.91494 -7.26675,18.73137 -6.70079,32.47421 0.59703,14.49729 3.22898,22.12753 12.88674,37.35979 3.77802,5.95871 6.86912,10.94448 6.86912,11.07951 0,0.13502 -2.5875,-1.01652 -5.75,-2.55898 -3.1625,-1.54246 -9.68933,-3.56142 -14.50406,-4.48657 -11.12786,-2.13823 -13.45797,-1.48554 -24.94305,6.98679 -23.01879,16.98052 -51.20701,25.19794 -73.80289,21.51499 z m 11.06948,-13.28321 c 9.10233,-4.33051 25.29972,-21.55066 22.70825,-24.14213 -1.04243,-1.04243 -3.97434,0.94252 -4.86937,3.29662 -0.73918,1.94419 -1.43249,2.34425 -3.26543,1.88421 -1.79418,-0.45031 -2.63602,-0.007 -3.67652,1.93754 -1.889,3.52963 -10.49042,10.66641 -18.3527,15.22762 -3.65126,2.11823 -6.29554,4.19886 -5.87618,4.62361 1.26938,1.28572 7.43481,-0.0219 13.33195,-2.82747 z m 26.43052,0.12014 c 6.48674,-2.24114 11.9126,-4.81287 20.37532,-9.65744 1.85642,-1.06272 4.17588,-3.19605 5.15434,-4.74073 2.95129,-4.65911 9.51703,-11.18565 12.32796,-12.25437 1.5784,-0.60011 2.64238,-1.77061 2.64238,-2.90693 0,-2.37871 -2.51324,-4.56607 -4.11144,-3.57833 -0.65948,0.40758 -2.81633,0.91928 -4.793,1.13711 -1.97667,0.21782 -5.6193,1.61059 -8.09475,3.09503 -2.47545,1.48445 -4.95081,2.92663 -5.50081,3.20486 -4.90115,2.47935 -12.56103,7.40408 -14.01478,9.01046 -0.98736,1.09102 -2.62069,1.98367 -3.62962,1.98367 -1.00894,0 -4.249,2.1375 -7.20013,4.75 -2.95114,2.6125 -7.43887,6.325 -9.97273,8.25 -2.53387,1.925 -4.62406,3.90245 -4.64489,4.39434 -0.0675,1.59539 14.25755,-0.19851 21.46215,-2.68767 z m -1.66585,-36.57827 c 0.42487,-2.98956 -1.80789,-2.43168 -2.98316,0.74537 -0.68766,1.85891 -0.5236,2.21046 0.9045,1.93828 0.95948,-0.18286 1.89487,-1.39051 2.07866,-2.68365 z m -0.83415,-197.69967 c 20.24975,-13.00791 43.31123,-21.17132 68,-24.07092 20.93399,-2.45862 37.27544,-2.54558 53.5,-0.28467 18.84269,2.62575 25.69186,4.32258 41,10.15748 13.81002,5.26387 19.6338,8.17145 30.6805,15.31752 8.45742,5.47108 9.66178,5.69836 3.20013,0.60391 -42.64632,-33.62291 -115.0921,-41.35301 -169.89714,-18.12832 -13.49978,5.72079 -30.87328,16.0688 -34.52378,20.56308 -1.72491,2.12361 -1.79495,2.15982 8.04029,-4.15808 z m 234,233.8487 c 0,-1.25825 2.85836,-3.7524 3.5303,-3.08047 0.26508,0.26508 -0.4208,1.29895 -1.52417,2.29749 -1.10337,0.99854 -2.00613,1.35088 -2.00613,0.78298 z m -122.44091,-46.3597 c -3.55723,-3.12328 -5.87988,-8.68319 -4.90534,-11.74233 2.57506,-8.08331 6.25776,-11.1754 13.30999,-11.1754 8.73786,0 13.54305,5.61494 13.15141,15.36765 -0.0763,1.90078 -1.42413,4.17662 -3.9975,6.75 -3.49139,3.49138 -4.39422,3.88235 -8.96521,3.88235 -4.2518,0 -5.65682,-0.50395 -8.59335,-3.08227 z m 44.73946,1.12275 c -7.46136,-4.54945 -8.40593,-14.80468 -1.91177,-20.75613 3.02439,-2.77164 4.34359,-3.28435 8.45065,-3.28435 6.49556,0 11.15868,3.11873 13.13174,8.7826 1.29222,3.70946 1.29222,4.72534 0,8.4348 -2.76672,7.94217 -12.37137,11.2737 -19.67062,6.82308 z m 43.12141,0.0738 c -3.24038,-1.97594 -6.41996,-7.44741 -6.41996,-11.04753 0,-7.3852 6.238,-13.05677 14.36765,-13.06301 4.32331,-0.003 5.3018,0.43041 8.75,3.87861 3.32677,3.32678 3.88182,4.50738 3.87861,8.25 -0.009,10.87436 -11.45896,17.54171 -20.5763,11.98197 z"
         id="path3354"
         inkscape:connector-curvature="0" />
      <path
         style="fill:#8fb8e7"
         d="m 375.03236,982.47584 c -4.49494,-1.55876 -9.21994,-3.61439 -10.5,-4.56806 -1.93214,-1.43948 -1.98774,-1.60914 -0.32738,-0.99903 17.16497,6.30742 17.88285,6.47132 28.5,6.50675 7.15502,0.0239 10.02215,0.34386 9,1.00442 -0.825,0.53316 -5.325,0.95152 -10,0.92971 -6.67273,-0.0311 -10.25689,-0.64893 -16.67262,-2.87379 z m -25.32738,-14.04507 c -0.91379,-0.58393 -10.29319,-0.73077 -24,-0.37574 -20.5178,0.53145 -23.33693,0.3968 -32,-1.52843 -9.42737,-2.09508 -28.56775,-8.87227 -27.64982,-9.79019 0.26319,-0.26319 1.30457,-0.0497 2.31417,0.47441 3.92368,2.03689 14.27659,5.16786 23.83565,7.20847 12.19314,2.60292 35.10791,2.94148 45.76609,0.67617 7.12087,-1.51347 7.58299,-1.39095 13.18391,3.49562 1.2842,1.12042 0.40149,1.02282 -1.45,-0.16031 z m -231,-10.14111 c -5.98301,-0.97519 -9.71459,-3.18089 -11.90376,-7.03619 -2.66674,-4.69633 -0.9551,-6.95351 8.73827,-11.52338 14.19465,-6.69196 20.95567,-14.87456 23.30348,-28.20329 2.05712,-11.67847 1.12859,-13.89793 -11.19199,-26.75206 -17.24142,-17.98806 -26.93082,-34.34781 -32.624465,-55.08368 -2.423051,-8.82458 -2.682672,-11.41798 -2.680026,-26.77114 0.0026,-15.20857 0.282453,-18.05378 2.65551,-27 13.941711,-52.55904 66.075711,-92.33002 131.676751,-100.451 12.15113,-1.50423 35.06294,-1.29294 48.32577,0.44567 62.67877,8.21647 113.59606,47.14083 128.2016,98.00533 2.97723,10.36834 4.3562,26.68987 3.31551,39.2423 -0.69429,8.37429 -4.34688,25.04537 -5.8332,26.62374 -0.44853,0.47631 -3.99896,-2.12383 -7.88982,-5.7781 -17.97889,-16.88565 -42.48197,-26.90222 -69.17791,-28.27912 -21.64804,-1.11655 -40.24908,2.70165 -59.41572,12.19615 -18.26932,9.04999 -31.6317,21.88537 -39.55507,37.99503 -5.86024,11.91494 -7.26675,18.73137 -6.70079,32.47421 0.59703,14.49729 3.22898,22.12753 12.88674,37.35979 3.77802,5.95871 6.86912,10.94448 6.86912,11.07951 0,0.13502 -2.5875,-1.01652 -5.75,-2.55898 -3.1625,-1.54246 -9.68933,-3.56142 -14.50406,-4.48657 -11.12786,-2.13823 -13.45797,-1.48554 -24.94305,6.98679 -23.01879,16.98052 -51.20701,25.19794 -73.80289,21.51499 z m 36,-11.33774 c 11.46556,-3.69815 25.79687,-11.20596 35.5,-18.59754 10.84237,-8.25943 12.34969,-8.93446 19.95034,-8.93446 3.60231,0 6.54966,-0.25458 6.54966,-0.56574 0,-0.31116 -0.47261,-1.44882 -1.05024,-2.52813 -0.57763,-1.07931 -1.70291,-7.84316 -2.50063,-15.03077 -0.79771,-7.1876 -1.64817,-13.3884 -1.88992,-13.77955 -1.1128,-1.80055 1.40259,-19.30561 3.21198,-22.35283 1.0591,-1.78364 3.19972,-6.39298 4.75693,-10.24298 1.55721,-3.85 3.20042,-7.4275 3.65158,-7.95 1.31085,-1.51811 0.94779,-4.55 -0.54484,-4.55 -0.75083,0 -2.50931,0.9 -3.90773,2 -1.39842,1.1 -2.89742,2 -3.33111,2 -0.43368,0 -2.47419,1.16817 -4.53445,2.59594 -3.22421,2.23437 -5.04232,2.6523 -13.05376,3.00066 -5.11929,0.2226 -10.54531,0.66519 -12.05781,0.98352 -4.26196,0.89701 -3.41863,-1.0602 3.8305,-8.88993 7.41713,-8.01119 7.26371,-8.50693 -2.51923,-8.14041 -3.55738,0.13328 -6.82242,0.96331 -9.06127,2.30352 -1.925,1.15234 -6.76035,3.94625 -10.74523,6.2087 -3.98487,2.26244 -7.49893,4.52404 -7.80901,5.02577 -0.31009,0.50172 -1.63568,0.91223 -2.94576,0.91223 -1.31008,0 -2.63482,0.40912 -2.94386,0.90917 -0.30904,0.50004 -4.4981,0.80642 -9.30902,0.68086 -4.81092,-0.12557 -9.26371,0.1573 -9.89509,0.6286 -1.68825,1.2602 -5.35203,1.80469 -5.35203,0.79538 0,-1.34584 2.98448,-4.01401 4.48987,-4.01401 0.74085,0 2.25463,-1.46857 3.36395,-3.26348 1.10932,-1.79491 3.20086,-4.29289 4.64788,-5.55105 3.09391,-2.69012 2.79547,-4.83357 -0.60291,-4.33007 -1.31934,0.19547 -4.64879,0.42499 -7.39879,0.51003 -3.04374,0.0941 -6.76064,1.07321 -9.5,2.5024 -5.1964,2.7111 -11,7.91407 -11,9.86158 0,1.85757 4.85814,11.27059 5.81684,11.27059 0.43074,0 1.31566,-0.5325 1.96649,-1.18333 1.75651,-1.75652 2.54721,-0.31882 1.09955,1.99926 -1.1139,1.78363 -0.61987,2.85547 4.37479,9.49147 3.09677,4.11443 8.17175,9.66594 11.27774,12.33669 7.44001,6.39745 8.46459,8.58566 8.46459,18.07789 0,19.55364 -8.43293,33.59558 -25.46508,42.40271 -3.59014,1.85642 -6.52919,3.70424 -6.53122,4.10626 -0.004,0.70015 1.52965,1.17359 6.9963,2.16045 1.375,0.24821 7.675,0.32326 14,0.16677 9.26899,-0.22934 13.149,-0.81641 20,-3.02617 z m -9.32671,-228.76675 c 1.82805,-1.07857 3.10327,-2.31777 2.83381,-2.75376 -0.26946,-0.436 0.70084,-1.57294 2.15623,-2.52655 2.33742,-1.53154 2.57408,-1.54601 2.02841,-0.12402 -0.52376,1.36489 -0.32515,1.42709 1.30537,0.40881 1.15707,-0.7226 1.50892,-1.45699 0.8833,-1.84364 -1.69433,-1.04715 13.77063,-9.4247 27.37218,-14.82781 18.04184,-7.16698 39.77459,-10.98915 66.24741,-11.65102 13.43618,-0.33594 33.53029,1.84198 48,5.20252 8.45352,1.9633 31.02494,10.45508 38.14025,14.34906 9.99391,5.46935 17.63241,10.74356 16.23986,11.21326 -0.85795,0.28938 -0.0559,1.14187 2.11989,2.25319 1.925,0.98322 6.65,4.2723 10.5,7.30906 l 7,5.52137 -6.47111,-6.64786 c -4.46599,-4.58797 -7.25471,-6.67232 -9,-6.72681 -1.39089,-0.0434 -1.95815,-0.30866 -1.26059,-0.58943 1.58254,-0.63697 -5.72984,-6.49953 -15.2683,-12.24108 -45.20533,-27.21076 -108.2679,-31.22481 -158,-10.057 -15.75405,6.7055 -36.37044,19.30434 -36.45097,22.27548 -0.03,1.10632 -0.49749,1.53185 -1.20354,1.09549 -0.7153,-0.44208 -0.88306,-0.27432 -0.44098,0.44098 0.39244,0.63498 0.23696,1.15451 -0.34549,1.15451 -0.58246,0 -1.39652,0.014 -1.80902,0.031 -1.04205,0.0432 -11.25,10.21511 -11.25,11.21033 0,0.44534 3.00365,-1.73837 6.67478,-4.85268 3.67113,-3.11432 8.17046,-6.54487 9.99851,-7.62345 z m 53.53102,0.66448 c 6.10006,-1.92379 9.87134,-2.42973 18.11133,-2.42973 l 10.40702,0 -0.50536,2.64362 -0.50536,2.64362 10.01326,-0.57159 c 7.37244,-0.42084 11.0252,-1.11396 13.85029,-2.62811 3.04533,-1.6322 4.8969,-1.93196 8.97374,-1.45281 3.13342,0.36827 5.9775,0.15374 7.29263,-0.55009 1.35144,-0.72328 4.03157,-0.90501 7.18246,-0.48703 4.24963,0.56374 4.9379,0.94607 4.45305,2.47369 -0.36939,1.16386 0.1017,2.16824 1.32374,2.82226 2.82516,1.51198 16.11167,0.20892 19.90979,-1.95262 2.44583,-1.39194 6.4369,-1.99468 16.75,-2.52959 l 13.5391,-0.70224 0,2.64545 c 0,2.56082 0.18819,2.64544 5.88337,2.64544 5.04236,0 5.95813,-0.28589 6.40638,-2 0.5307,-2.02942 2.71025,-2.8336 2.71025,-1 0,0.55 0.7875,0.98569 1.75,0.9682 1.66667,-0.0303 1.66667,-0.0951 0,-1.36025 -0.9625,-0.73064 -1.75,-1.78019 -1.75,-2.33233 0,-0.55215 -2.03014,-1.77922 -4.51141,-2.72683 -2.48128,-0.94761 -4.97211,-2.58374 -5.53519,-3.63586 -1.15694,-2.16176 -0.67237,-2.36808 2.08984,-0.88979 1.49456,0.79987 1.79558,0.72042 1.37942,-0.36409 -0.86755,-2.2608 -14.1911,-1.69772 -15.92397,0.67297 -0.73852,1.01035 -2.38404,1.74559 -3.66891,1.63931 -4.12473,-0.34118 -5.65425,-0.004 -7.25835,1.6001 -0.86429,0.86428 -1.57143,1.25918 -1.57143,0.87755 0,-0.38163 -0.5625,-0.25011 -1.25,0.29227 -1.56181,1.23213 -3.30911,1.31375 -13.03341,0.60887 -6.92558,-0.50202 -7.72015,-0.76355 -7.20933,-2.373 0.31575,-0.99484 0.10579,-2.09823 -0.46658,-2.45198 -0.57238,-0.35375 -1.04068,0.002 -1.04068,0.79084 0,1.87854 -4.80268,1.93947 -7.70358,0.0978 -1.21198,-0.76945 -3.23698,-1.34143 -4.5,-1.27105 -1.26303,0.0704 -2.9977,-0.173 -3.85482,-0.54083 -1.62762,-0.69848 -5.9416,2.3217 -5.9416,4.15966 0,0.5648 -1.0125,1.0538 -2.25,1.08666 -1.2375,0.0329 -7.31116,0.26466 -13.49703,0.5151 -6.24777,0.25296 -11.49757,0.05 -11.81069,-0.45666 -0.33142,-0.53626 -1.36879,-0.48112 -2.5178,0.13381 -1.56049,0.83515 -2.09098,0.68461 -2.63336,-0.7473 -1.06864,-2.82121 -2.9514,-4.29428 -5.46969,-4.27946 -3.75748,0.0221 -6.8471,1.13578 -6.1737,2.22537 0.39403,0.63756 -0.71365,0.85534 -2.99546,0.58895 -1.99976,-0.23346 -3.79565,0.0462 -4.01148,0.62466 -0.27018,0.72412 -0.74366,0.71763 -1.53415,-0.021 -0.74965,-0.70047 -2.94488,-0.7878 -6.375,-0.2536 -19.1814,2.98724 -20.92426,3.12833 -21.76858,1.7622 -0.4571,-0.73961 -0.62318,-1.68115 -0.36907,-2.09231 0.90496,-1.46425 -3.46682,-2.8069 -7.3644,-2.26173 -3.03373,0.42433 -4.1029,0.18633 -4.56429,-1.01603 -0.65559,-1.70842 -4.6653,-2.19846 -4.6653,-0.57016 0,0.55 -0.47656,1 -1.05902,1 -0.58246,0 -0.7809,-0.45 -0.44098,-1 0.98805,-1.59871 -2.12763,-1.15361 -3.5,0.5 -0.68469,0.825 -0.97593,1.5 -0.6472,1.5 0.32873,0 0.18685,1.08061 -0.3153,2.40135 -1.53957,4.04939 1.43526,5.79562 8.46565,4.96933 l 5.78921,-0.6804 -0.49819,2.60611 c -0.4708,2.46284 -0.24519,2.62747 4.10382,2.9946 6.71029,0.56647 11.64007,-0.12816 20.30632,-2.86126 z m 143.79569,-7.92973 c 0,-0.15731 -0.6,-0.51626 -1.33333,-0.79767 -0.73334,-0.28141 -1.33334,0.0775 -1.33334,0.79767 0,0.72013 0.6,1.07908 1.33334,0.79767 0.73333,-0.28141 1.33333,-0.64036 1.33333,-0.79767 z m 45,233.77743 c 0,-1.25825 2.85836,-3.7524 3.5303,-3.08047 0.26508,0.26508 -0.4208,1.29895 -1.52417,2.29749 -1.10337,0.99854 -2.00613,1.35088 -2.00613,0.78298 z m -122.44091,-46.3597 c -3.55723,-3.12328 -5.87988,-8.68319 -4.90534,-11.74233 2.57506,-8.08331 6.25776,-11.1754 13.30999,-11.1754 8.73786,0 13.54305,5.61494 13.15141,15.36765 -0.0763,1.90078 -1.42413,4.17662 -3.9975,6.75 -3.49139,3.49138 -4.39422,3.88235 -8.96521,3.88235 -4.2518,0 -5.65682,-0.50395 -8.59335,-3.08227 z m 44.73946,1.12275 c -7.46136,-4.54945 -8.40593,-14.80468 -1.91177,-20.75613 3.02439,-2.77164 4.34359,-3.28435 8.45065,-3.28435 6.49556,0 11.15868,3.11873 13.13174,8.7826 1.29222,3.70946 1.29222,4.72534 0,8.4348 -2.76672,7.94217 -12.37137,11.2737 -19.67062,6.82308 z m 43.12141,0.0738 c -3.24038,-1.97594 -6.41996,-7.44741 -6.41996,-11.04753 0,-7.3852 6.238,-13.05677 14.36765,-13.06301 4.32331,-0.003 5.3018,0.43041 8.75,3.87861 3.32677,3.32678 3.88182,4.50738 3.87861,8.25 -0.009,10.87436 -11.45896,17.54171 -20.5763,11.98197 z"
         id="path3352"
         inkscape:connector-curvature="0" />
      <path
         style="fill:#54aafa"
         d="m 115.82523,954.34035 c -6.37364,-1.25216 -9.30918,-3.45938 -8.93063,-6.71492 0.26444,-2.27418 1.67993,-3.34639 9.56348,-7.24422 13.80027,-6.82321 20.08498,-13.91181 22.8864,-25.81384 1.38379,-5.87912 1.63193,-15.04289 0.51082,-18.86386 -0.35768,-1.21902 -5.61337,-7.29402 -11.67933,-13.5 -17.31087,-17.71046 -27.08757,-34.30914 -32.571217,-55.29872 -2.012662,-7.70381 -2.337328,-11.26615 -2.277075,-24.98487 0.06115,-13.9241 0.407976,-17.26855 2.673123,-25.77735 5.416439,-20.3463 15.954959,-38.06675 32.320479,-54.34667 30.14686,-29.98918 72.9217,-46.37598 121.05625,-46.37598 48.35584,0 90.53494,16.21515 120.8882,46.47375 16.86276,16.81016 26.98615,33.72841 32.62694,54.52625 1.98247,7.30943 2.30586,10.88115 2.30884,25.5 0.003,14.60406 -0.32983,18.30536 -2.3614,26.26198 -1.30068,5.09408 -2.71527,9.47853 -3.14355,9.74322 -0.42827,0.26469 -3.18908,-1.79897 -6.13513,-4.58592 -20.63917,-19.52453 -51.91195,-30.35561 -82.3418,-28.51842 -30.68108,1.85235 -55.01908,12.18834 -73.66805,31.28575 -10.32265,10.57086 -16.8244,22.32772 -19.87464,35.93852 -1.54807,6.90781 -1.26557,23.02708 0.52358,29.87487 1.48384,5.67927 6.499,16.79037 10.24296,22.6933 0.93953,1.48132 1.41963,2.98191 1.06689,3.33465 -0.35274,0.35274 -5.24092,-0.29675 -10.86261,-1.4433 -5.6217,-1.14656 -11.17111,-2.06687 -12.33202,-2.04513 -1.16092,0.0217 -6.61076,3.41731 -12.11076,7.54574 -14.99177,11.25316 -34.00282,19.83559 -49.5,22.34648 -7.58577,1.22907 -22.59597,1.22319 -28.87975,-0.0113 z m 38.87975,-7.38843 c 11.46556,-3.69815 25.79687,-11.20596 35.5,-18.59754 10.84237,-8.25943 12.34969,-8.93446 19.95034,-8.93446 3.60231,0 6.54966,-0.25458 6.54966,-0.56574 0,-0.31116 -0.47261,-1.44882 -1.05024,-2.52813 -0.57763,-1.07931 -1.70291,-7.84316 -2.50063,-15.03077 -0.79771,-7.1876 -1.64817,-13.3884 -1.88992,-13.77955 -1.1128,-1.80055 1.40259,-19.30561 3.21198,-22.35283 1.0591,-1.78364 3.19972,-6.39298 4.75693,-10.24298 1.55721,-3.85 3.20042,-7.4275 3.65158,-7.95 1.31085,-1.51811 0.94779,-4.55 -0.54484,-4.55 -0.75083,0 -2.50931,0.9 -3.90773,2 -1.39842,1.1 -2.89742,2 -3.33111,2 -0.43368,0 -2.47419,1.16817 -4.53445,2.59594 -3.22421,2.23437 -5.04232,2.6523 -13.05376,3.00066 -5.11929,0.2226 -10.54531,0.66519 -12.05781,0.98352 -4.26196,0.89701 -3.41863,-1.0602 3.8305,-8.88993 7.41713,-8.01119 7.26371,-8.50693 -2.51923,-8.14041 -3.55738,0.13328 -6.82242,0.96331 -9.06127,2.30352 -1.925,1.15234 -6.76035,3.94625 -10.74523,6.2087 -3.98487,2.26244 -7.49893,4.52404 -7.80901,5.02577 -0.31009,0.50172 -1.63568,0.91223 -2.94576,0.91223 -1.31008,0 -2.63482,0.40912 -2.94386,0.90917 -0.30904,0.50004 -4.4981,0.80642 -9.30902,0.68086 -4.81092,-0.12557 -9.26371,0.1573 -9.89509,0.6286 -1.68825,1.2602 -5.35203,1.80469 -5.35203,0.79538 0,-1.34584 2.98448,-4.01401 4.48987,-4.01401 0.74085,0 2.25463,-1.46857 3.36395,-3.26348 1.10932,-1.79491 3.20086,-4.29289 4.64788,-5.55105 3.09391,-2.69012 2.79547,-4.83357 -0.60291,-4.33007 -1.31934,0.19547 -4.64879,0.42499 -7.39879,0.51003 -3.04374,0.0941 -6.76064,1.07321 -9.5,2.5024 -5.1964,2.7111 -11,7.91407 -11,9.86158 0,1.85757 4.85814,11.27059 5.81684,11.27059 0.43074,0 1.31566,-0.5325 1.96649,-1.18333 1.75651,-1.75652 2.54721,-0.31882 1.09955,1.99926 -1.1139,1.78363 -0.61987,2.85547 4.37479,9.49147 3.09677,4.11443 8.17175,9.66594 11.27774,12.33669 7.44001,6.39745 8.46459,8.58566 8.46459,18.07789 0,19.55364 -8.43293,33.59558 -25.46508,42.40271 -3.59014,1.85642 -6.52919,3.70424 -6.53122,4.10626 -0.004,0.70015 1.52965,1.17359 6.9963,2.16045 1.375,0.24821 7.675,0.32326 14,0.16677 9.26899,-0.22934 13.149,-0.81641 20,-3.02617 z m -3.89426,-232.09399 c 7.33009,-4.29734 10.69999,-4.9801 9.52987,-1.93082 -0.2754,0.7177 0.30456,2.03367 1.2888,2.9244 1.42675,1.2912 2.96312,1.48157 7.57874,0.93909 l 5.78921,-0.6804 -0.50751,2.65486 c -0.48593,2.542 -0.31148,2.66339 4.10382,2.85542 8.23492,0.35817 12.47666,-0.21132 20.31564,-2.72755 6.16444,-1.97873 9.78437,-2.47301 18.11133,-2.47301 l 10.40702,0 -0.50536,2.64362 -0.50536,2.64362 10.01326,-0.57159 c 7.37244,-0.42084 11.0252,-1.11396 13.85029,-2.62811 3.04533,-1.6322 4.8969,-1.93196 8.97374,-1.45281 3.13342,0.36827 5.9775,0.15374 7.29263,-0.55009 1.35144,-0.72328 4.03157,-0.90501 7.18246,-0.48703 4.24963,0.56374 4.9379,0.94607 4.45305,2.47369 -0.36939,1.16386 0.1017,2.16824 1.32374,2.82226 2.82516,1.51198 16.11167,0.20892 19.90979,-1.95262 2.44583,-1.39194 6.4369,-1.99468 16.75,-2.52959 l 13.5391,-0.70224 0,2.64545 c 0,2.56082 0.18819,2.64544 5.88337,2.64544 5.04236,0 5.95813,-0.28589 6.40638,-2 0.5307,-2.02942 2.71025,-2.8336 2.71025,-1 0,0.55 0.7875,0.98569 1.75,0.9682 1.66667,-0.0303 1.66667,-0.0951 0,-1.36025 -0.9625,-0.73064 -1.75,-1.67604 -1.75,-2.1009 0,-1.51301 -4.34321,-4.50705 -6.538,-4.50705 -1.30523,0 -2.94562,-1.08915 -3.95072,-2.62312 -0.9453,-1.44272 -1.33456,-2.4076 -0.86501,-2.14419 14.53442,8.15375 24.24746,14.1999 29.85373,18.58327 l 7,5.47309 -8.5,-8.71301 c -17.61507,-18.0565 -45.06268,-32.09485 -75.5,-38.61521 -12.74648,-2.73059 -46.90536,-3.85378 -60.86332,-2.00127 -27.06162,3.59163 -51.54135,12.71487 -72.73523,27.10737 -6.48298,4.4025 -23.90145,20.49539 -23.90145,22.0825 0,0.47536 3.21104,-1.83181 7.13565,-5.12706 3.9246,-3.29524 10.66114,-8.0582 14.97009,-10.58436 z m 14.39426,-7.43801 c 0.33992,-0.55 0.81647,-1 1.05902,-1 0.24254,0 0.44098,0.45 0.44098,1 0,0.55 -0.47656,1 -1.05902,1 -0.58246,0 -0.7809,-0.45 -0.44098,-1 z m 98.8346,174.57044 c 0.36597,-0.95371 0.6654,-1.91065 0.6654,-2.12655 0,-1.11167 6.34785,-3.44389 9.37361,-3.44389 3.48618,0 9.62639,3.98267 9.62639,6.24388 0,0.58635 -0.7875,0.35943 -1.75,-0.50428 -1.79401,-1.60986 -8.56797,-3.34461 -11.25,-2.88101 -0.825,0.1426 -2.81193,1.20126 -4.4154,2.35257 -2.50251,1.79683 -2.82117,1.84771 -2.25,0.35928 z m 59.59631,-0.68618 c -3.19663,-2.49428 -9.98151,-2.73635 -13.42661,-0.47903 -1.37737,0.90248 -2.5043,1.17389 -2.5043,0.60312 0,-1.70016 6.27025,-5.00087 9.5,-5.00087 3.63298,0 9.5,3.383 9.5,5.47782 0,1.84524 0.0881,1.8625 -3.06909,-0.60104 z m 26.6997,0.63598 c 0.31231,-0.81387 2.12817,-2.4441 4.03523,-3.62274 4.49451,-2.77775 10.54753,-2.13868 14.18371,1.49751 3.20114,3.20113 2.34417,4.33181 -1.18134,1.55865 -4.26799,-3.35721 -8.56074,-3.53524 -12.96262,-0.53761 -4.39458,2.99266 -4.84666,3.11516 -4.07498,1.10419 z"
         id="path3350"
         inkscape:connector-curvature="0" />
      <path
         style="fill:#3a9df7"
         d="m 115.82523,954.34035 c -6.37364,-1.25216 -9.30918,-3.45938 -8.93063,-6.71492 0.26444,-2.27418 1.67993,-3.34639 9.56348,-7.24422 13.80027,-6.82321 20.08498,-13.91181 22.8864,-25.81384 1.38379,-5.87912 1.63193,-15.04289 0.51082,-18.86386 -0.35768,-1.21902 -5.61337,-7.29402 -11.67933,-13.5 -17.31087,-17.71046 -27.08757,-34.30914 -32.571217,-55.29872 -2.012662,-7.70381 -2.337328,-11.26615 -2.277075,-24.98487 0.06115,-13.9241 0.407976,-17.26855 2.673123,-25.77735 5.416439,-20.3463 15.954959,-38.06675 32.320479,-54.34667 30.14686,-29.98918 72.9217,-46.37598 121.05625,-46.37598 48.35584,0 90.53494,16.21515 120.8882,46.47375 16.86276,16.81016 26.98615,33.72841 32.62694,54.52625 1.98247,7.30943 2.30586,10.88115 2.30884,25.5 0.003,14.60406 -0.32983,18.30536 -2.3614,26.26198 -1.30068,5.09408 -2.71398,9.47774 -3.14068,9.74145 -0.42669,0.26371 -3.4125,-2.11484 -6.63513,-5.28567 -12.5372,-12.3357 -31.92237,-22.05298 -52.2632,-26.19817 -12.23786,-2.49392 -32.82931,-2.71797 -45.57181,-0.49587 -22.22862,3.87635 -42.59402,13.93372 -57.38244,28.3381 -2.82803,2.75458 -5.14187,4.6771 -5.14187,4.27225 0,-2.94076 28.41726,-26.13407 32.02038,-26.13407 0.50872,0 3.29975,-1.05909 6.20228,-2.35353 2.90254,-1.29445 8.65234,-3.37512 12.77734,-4.62373 10.19991,-3.08743 13.97827,-5.14941 18.39595,-10.03925 4.14518,-4.58822 4.11177,-5.8126 -0.11389,-4.17365 -1.53013,0.59347 -4.73111,0.94082 -7.11329,0.77187 -3.53076,-0.2504 -6.03594,0.55554 -13.5553,4.36087 -5.07324,2.56741 -10.21169,5.65564 -11.41877,6.86272 -1.20709,1.20709 -2.8697,2.25095 -3.6947,2.3197 -0.825,0.0687 -1.89927,0.18125 -2.38727,0.25 -0.488,0.0687 -1.7255,1.15535 -2.75,2.41468 -1.51792,1.86583 -3.02617,2.34666 -8.14795,2.59752 -3.45687,0.16932 -6.52092,-0.0735 -6.80901,-0.53967 -0.28809,-0.46614 -1.63808,-0.84753 -2.99997,-0.84753 -2.25476,0 -2.36947,-0.20118 -1.28293,-2.25 0.65628,-1.2375 3.57457,-4.93104 6.4851,-8.20788 4.09192,-4.6069 5.04073,-6.26048 4.18433,-7.29238 -0.75183,-0.9059 -1.43467,-1.00737 -2.12612,-0.31592 -0.69146,0.69146 -1.44375,0.66574 -2.34239,-0.0801 -1.74313,-1.44663 -1.68535,-2.85372 0.11719,-2.85372 1.9061,0 2.62046,-1.28256 1.61788,-2.90476 -1.29655,-2.09786 -4.78199,-0.32824 -5.94941,3.02063 -0.58174,1.66878 -1.48789,2.76827 -2.01367,2.44332 -1.51771,-0.93799 -26.137,12.525 -31.09578,17.00464 -2.64014,2.38504 -12.47839,4.08917 -13.55459,2.34785 -0.30989,-0.50143 -1.63533,-0.91168 -2.94541,-0.91168 -1.31008,0 -2.65054,-0.43457 -2.9788,-0.9657 -1.05316,-1.70405 3.13916,-8.43142 7.37304,-11.83142 4.51933,-3.62925 5.15623,-5.20288 2.10576,-5.20288 -1.1,0 -2,-0.6199 -2,-1.37756 0,-0.75765 -0.64071,-1.90929 -1.4238,-2.5592 -1.44257,-1.19722 -3.27141,-0.4682 -12.0762,4.81386 -1.65,0.98985 -7.275,4.19016 -12.5,7.11181 -5.225,2.92165 -10.4,6.09053 -11.5,7.04195 -4.04077,3.49499 -8.72707,4.40645 -15.38804,2.9929 -3.36158,-0.71338 -6.11196,-1.61804 -6.11196,-2.01036 0,-1.23765 5.55417,-8.33618 10.18219,-13.0134 2.44896,-2.475 4.73504,-5.25973 5.08017,-6.18829 1.06736,-2.87171 -8.61199,-1.59457 -15.76236,2.07976 -3.3,1.69576 -6.675,3.09113 -7.5,3.10083 -0.825,0.01 -2.85,1.14642 -4.5,2.52604 -1.65,1.37962 -4.35,3.17534 -6,3.99048 -1.65,0.81514 -4.53928,2.41787 -6.42062,3.56163 -1.88134,1.14375 -4.24384,2.14156 -5.25,2.21736 -1.00616,0.0758 -1.82938,0.56514 -1.82938,1.08745 0,0.5223 -1.40963,3.14636 -3.13251,5.83123 -2.88152,4.49048 -3.08008,5.33875 -2.47825,10.58755 0.3659,3.19117 1.52613,6.90012 2.63251,8.41547 1.08804,1.49023 1.97825,3.92992 1.97825,5.42154 0,3.35355 4.39502,14.52396 7.59782,19.31067 4.59416,6.86614 5.88881,8.6176 11.67979,15.8009 3.21134,3.98345 8.26487,9.33714 11.23005,11.89709 2.96519,2.55996 5.69086,5.37577 6.05704,6.25738 2.84763,6.85566 2.11104,20.57298 -1.64331,30.60291 -2.99355,7.99743 -11.65848,17.06314 -21.00125,21.97263 -9.92263,5.21419 -9.51769,6.03495 3.78394,7.66956 15.36168,1.88776 29.29948,-1.17441 48.29592,-10.61074 8.50366,-4.22413 11.10582,-5.89443 23.02794,-14.78145 6.65786,-4.96292 7.54719,-5.20356 17.72206,-4.79542 3.43924,0.13796 6.25,-0.17477 6.25,-0.69539 0,-0.52035 -0.8319,-3.37904 -1.84866,-6.35264 -2.68648,-7.85682 -4.52825,-23.77506 -3.85486,-33.31708 0.56293,-7.97683 4.39709,-20.80728 6.89955,-23.08832 0.76979,-0.70168 0.92761,-0.51282 0.52761,0.63137 -5.48343,15.68534 -6.8806,28.88035 -4.3273,40.86748 1.42963,6.71177 6.67886,18.83273 11.34354,26.1933 0.93877,1.48132 1.41825,2.98191 1.06551,3.33465 -0.35274,0.35274 -5.24092,-0.29675 -10.86261,-1.4433 -5.6217,-1.14656 -11.17111,-2.06687 -12.33202,-2.04513 -1.16092,0.0217 -6.61076,3.41731 -12.11076,7.54574 -14.99177,11.25316 -34.00282,19.83559 -49.5,22.34648 -7.58577,1.22907 -22.59597,1.22319 -28.87975,-0.0113 z M 392.68967,817.16992 c -0.008,-1.7875 -0.43781,-3.91821 -0.9542,-4.73491 -0.6562,-1.03783 -0.19997,-2.80699 1.51531,-5.87595 1.34981,-2.41508 2.4542,-5.09402 2.4542,-5.95321 0,-1.69141 -4.08301,-8.16792 -5.15637,-8.1791 -0.361,-0.004 -4.08796,2.31147 -8.28213,5.14496 -7.08404,4.78581 -7.8025,5.05719 -10.11383,3.8202 -1.9115,-1.023 -2.76148,-1.05818 -3.66788,-0.15178 -0.90639,0.90639 -0.78584,1.17979 0.52021,1.17979 2.13746,0 2.1824,1.80947 0.10204,4.10825 -0.87888,0.97115 -1.33759,2.18701 -1.01937,2.70191 0.84821,1.37242 11.02236,6.18984 13.07265,6.18984 0.96578,0 3.09295,1.125 4.72705,2.5 4.29789,3.61644 6.82158,3.33818 6.80232,-0.75 z m -143.98469,-10.75 c 0,-0.55 -0.47656,-1 -1.05902,-1 -0.58246,0 -0.7809,0.45 -0.44098,1 0.33992,0.55 0.81648,1 1.05902,1 0.24254,0 0.44098,-0.45 0.44098,-1 z m 101.05134,-7.14901 c 2.103,-1.18195 5.22973,-4.10695 6.94829,-6.5 1.71855,-2.39304 3.57324,-4.35099 4.12152,-4.35099 0.54829,0 0.73799,-0.41891 0.42156,-0.9309 -0.31644,-0.512 -0.0965,-1.22686 0.48883,-1.58859 0.58529,-0.36173 0.93013,-1.63032 0.76631,-2.8191 -0.224,-1.62553 0.29461,-2.24517 2.09175,-2.49926 1.99461,-0.282 2.29936,0.007 1.84362,1.75 -0.30029,1.14832 -0.35417,2.08785 -0.11973,2.08785 1.27588,0 8.56933,-5.31284 9.06435,-6.60284 0.32026,-0.83459 2.33689,-2.21949 4.4814,-3.07755 5.06377,-2.02612 6.31476,-4.35334 4.8028,-8.93464 -0.63841,-1.93441 -0.93317,-4.38737 -0.65501,-5.45103 0.91689,-3.50623 -4.28972,-2.22891 -5.62291,1.37944 -0.3685,0.99736 -1.15311,1.5148 -1.74359,1.14987 -0.59048,-0.36494 -2.3599,0.54029 -3.93206,2.01161 -6.20588,5.80786 -9.8327,9.09731 -11.75506,10.66159 -1.10607,0.90005 -2.17808,2.02505 -2.38223,2.5 -0.89422,2.08039 -13.22801,11.63385 -17.40509,13.48158 -2.52568,1.11722 -5.88564,3.23406 -7.4666,4.70408 l -2.87445,2.67276 3.68748,1.14771 c 5.88125,1.83051 11.05125,1.56195 15.23882,-0.79159 z m 3.44866,-11.85099 c 0.33992,-0.55 1.29303,-1 2.11803,-1 0.825,0 1.22189,0.45 0.88197,1 -0.33992,0.55 -1.29303,1 -2.11803,1 -0.825,0 -1.22189,-0.45 -0.88197,-1 z m 3.5,-3.37756 c 0,-0.20765 0.7875,-0.99515 1.75,-1.75 1.58606,-1.24387 1.62143,-1.2085 0.37756,0.37756 -1.30637,1.66575 -2.12756,2.19548 -2.12756,1.37244 z m -98.36259,4.12756 c 0.85415,-0.6875 2.65561,-2.2625 4.00325,-3.5 1.34764,-1.2375 3.11485,-2.25 3.92714,-2.25 0.81229,0 3.37933,-1.73976 5.70454,-3.86613 2.32521,-2.12638 5.72717,-4.63207 7.55989,-5.56821 1.83273,-0.93614 6.55773,-3.84923 10.5,-6.47353 11.64608,-7.7526 13.39392,-8.44583 22.16777,-8.79214 4.4,-0.17367 9.24847,-0.37624 10.77438,-0.45016 4.27785,-0.20723 4.40048,0.86494 0.56255,4.91853 -1.94321,2.0524 -4.75929,5.39214 -6.25795,7.42165 -1.49866,2.0295 -3.65856,3.8295 -4.79978,4 -1.14122,0.17049 -2.5709,1.12385 -3.17707,2.11856 -2.96907,4.87218 9.9577,6.23947 15.15842,1.60333 1.5067,-1.34313 4.31445,-3.28646 6.23945,-4.31852 1.925,-1.03206 5.87719,-3.63845 8.78264,-5.79197 2.90546,-2.15352 8.42422,-5.51149 12.26393,-7.46216 5.87148,-2.98286 7.65467,-3.4519 11.21735,-2.9505 2.32984,0.32789 6.60496,0.76499 9.50025,0.97133 4.85451,0.34597 5.31067,0.18991 5.86167,-2.00544 0.32862,-1.30934 0.0682,-3.01836 -0.5787,-3.79784 -0.6469,-0.77947 -1.03465,-3.13613 -0.86167,-5.23701 l 0.31453,-3.81979 3.38438,3.5 c 4.05732,4.19594 3.50803,2.08346 -1.49447,-5.74744 -18.93543,-29.6415 -60.06836,-53.36774 -102.57242,-59.16569 -51.15478,-6.97799 -100.85472,6.04747 -136.0011,35.64342 -9.51048,8.00856 -18.78055,18.85929 -22.87007,26.76971 l -3.10188,6 3.06368,-3.25 c 3.97293,-4.21454 5.46288,-4.21566 4.53772,-0.003 -0.39219,1.78562 -0.77926,5.04812 -0.86017,7.25 -0.16944,4.61177 -1.52644,7.40395 -6.31961,13.00341 -3.49098,4.07821 -3.53606,4.36665 -1.91006,12.22106 0.5184,2.50417 1.49882,2.3333 3.20733,-0.55898 0.98194,-1.6623 2.90135,-3.21331 4.34743,-3.51301 1.42408,-0.29514 6.11448,-2.92442 10.42311,-5.84284 13.85729,-9.38615 16.7859,-10.84049 20.93402,-10.39573 2.12515,0.22785 5.89357,-0.37298 8.64348,-1.37811 2.9816,-1.08981 5.40255,-1.44819 6.23211,-0.92255 0.74609,0.47274 2.36902,0.86643 3.60652,0.87485 4.17354,0.0284 2.80663,2.12578 -7.03182,10.78956 -4.20456,3.70256 -4.87564,6.91633 -1.54651,7.4062 3.28597,0.48351 3.28676,2.46409 10e-4,3.60936 -2.16085,0.75328 -3.03173,1.79354 -3.35703,4.00998 -0.31991,2.17967 -0.0829,2.85609 0.87233,2.48954 0.72141,-0.27723 1.31163,-0.84304 1.31163,-1.25777 0,-0.41472 2.025,-1.82831 4.5,-3.14129 2.475,-1.31299 4.5,-2.88319 4.5,-3.48935 0,-0.60616 2.91924,-2.58383 6.4872,-4.39483 3.56796,-1.81101 8.18046,-4.74202 10.25,-6.51337 2.06954,-1.77134 6.6878,-4.57626 10.2628,-6.23315 5.33892,-2.47441 7.8397,-3.02262 14,-3.06899 4.125,-0.031 8.90792,-0.35706 10.62872,-0.72447 3.5495,-0.75785 5.954,1.30683 2.55659,2.19527 -1.10876,0.28995 -2.28761,1.60966 -2.61967,2.93269 -0.33206,1.32304 -1.01683,2.40552 -1.52171,2.40552 -1.33911,0 -8.02506,7.28067 -8.03526,8.75 -0.005,0.6875 -0.62857,1.25 -1.38623,1.25 -1.63062,0 -4.16799,2.78779 -3.31434,3.64144 0.32621,0.3262 2.63135,0.82284 5.12253,1.10363 2.93781,0.33113 4.31239,0.90487 3.91178,1.63273 -0.33971,0.61721 0.36637,0.1876 1.56907,-0.95469 1.20271,-1.14228 2.2604,-3.05478 2.35043,-4.25 0.13564,-1.80063 0.78442,-2.17311 3.78511,-2.17311 2.60274,0 5.21739,-1.11799 9.29516,-3.97447 3.12056,-2.18596 8.25766,-5.18601 11.41578,-6.66678 3.15812,-1.48077 6.06117,-3.1766 6.45123,-3.76851 0.66656,-1.01152 22.44718,-1.26721 23.43923,-0.27515 0.83138,0.83138 -8.6207,10.95539 -15.57753,16.68491 -3.58248,2.95047 -3.74317,3.59093 -1.07594,4.28843 3.35566,0.87752 3.53252,3.55157 0.44786,6.77127 -2.82944,2.9533 -2.70606,4.02503 0.1946,1.6903 z m 5.86259,-13.75 c -0.33992,-0.55 -0.14148,-1 0.44098,-1 0.58246,0 1.05902,0.45 1.05902,1 0,0.55 -0.19844,1 -0.44098,1 -0.24254,0 -0.7191,-0.45 -1.05902,-1 z m 37.07294,11.23469 c 1.50851,-1.03294 2.56374,-4.23469 1.39568,-4.23469 -0.53274,0 -0.96862,0.41968 -0.96862,0.93261 0,0.51294 -0.9,1.21826 -2,1.56739 -1.1,0.34913 -2,1.05445 -2,1.56739 0,1.10747 2.0591,1.20389 3.57294,0.1673 z M 153.95498,781.8794 c 4.09531,-3.80744 4.70746,-5.47165 2,-5.43724 -1.89805,0.0241 -4.38921,1.921 -8.17883,6.22776 l -2.4198,2.75 2.42431,-0.0271 c 1.35743,-0.0152 4.07462,-1.56135 6.17432,-3.51346 z m 52.75,2.08757 c 0,-0.24912 -0.52223,-1.59912 -1.16052,-3 -1.24457,-2.73155 -3.45962,-3.6055 -2.44647,-0.96526 0.33385,0.86998 0.60699,2.21998 0.60699,3 0,0.78001 0.675,1.41821 1.5,1.41821 0.825,0 1.5,-0.20383 1.5,-0.45295 z m 70,94.73209 c -1.375,-0.24667 -2.95,-0.91849 -3.5,-1.49292 -1.27319,-1.32977 4.56609,-0.0691 5.95,1.28454 0.5225,0.51108 0.7475,0.86796 0.5,0.79306 -0.2475,-0.0749 -1.575,-0.33801 -2.95,-0.58468 z m 38.16188,-1.30992 c 1.04769,-0.6115 2.52598,-0.62368 4,-0.033 2.04499,0.81952 1.83664,0.94112 -1.66188,0.96997 -3.05007,0.0251 -3.60533,-0.19738 -2.33812,-0.93699 z m -91.16188,-25.7821 c 0,-0.66244 1.35,-3.06806 3,-5.34582 1.65,-2.27776 3,-3.86449 3,-3.52607 0,0.33842 -1.35,2.74404 -3,5.34582 -1.65,2.60178 -3,4.18851 -3,3.52607 z"
         id="path3347"
         inkscape:connector-curvature="0" />
      <path
         style="fill:#2b52a4"
         d="m 115.82523,954.34035 c -6.37364,-1.25216 -9.30918,-3.45938 -8.93063,-6.71492 0.26444,-2.27418 1.67993,-3.34639 9.56348,-7.24422 13.80027,-6.82321 20.08498,-13.91181 22.8864,-25.81384 1.38379,-5.87912 1.63193,-15.04289 0.51082,-18.86386 -0.35768,-1.21902 -5.61337,-7.29402 -11.67933,-13.5 -17.31087,-17.71046 -27.08757,-34.30914 -32.571217,-55.29872 -2.012662,-7.70381 -2.337328,-11.26615 -2.277075,-24.98487 0.06115,-13.9241 0.407976,-17.26855 2.673123,-25.77735 5.416439,-20.3463 15.954959,-38.06675 32.320479,-54.34667 30.14686,-29.98918 72.9217,-46.37598 121.05625,-46.37598 48.35584,0 90.53494,16.21515 120.8882,46.47375 16.85983,16.80724 26.97705,33.71337 32.63041,54.52625 2.00451,7.37962 2.3066,10.80666 2.29182,26 -0.0147,15.1398 -0.32867,18.64253 -2.32782,25.97141 -1.27094,4.65927 -2.52809,8.82299 -2.79367,9.2527 -0.79302,1.28314 -3.73993,-0.83917 -5.61295,-4.04234 -1.70973,-2.92393 -1.70372,-2.98281 0.25207,-2.47136 2.75573,0.72064 4.50633,-3.79459 5.89721,-15.21041 1.99311,-16.35863 0.74597,-29.33918 -4.30566,-44.81443 -14.70374,-45.04367 -60.38192,-79.97296 -116.59216,-89.15594 -89.88282,-14.68403 -175.12609,37.65264 -182.022075,111.75581 -3.024756,32.50354 8.642585,61.71976 35.109615,87.91805 9.50462,9.40813 10.89677,12.14089 10.90688,21.41002 0.0201,18.43223 -7.77626,31.18156 -24.40822,39.91452 -4.16055,2.18458 -7.56949,4.33243 -7.57542,4.773 -0.056,4.16371 25.39261,5.71082 38.21051,2.32294 13.74044,-3.63172 30.94942,-11.9486 40.74494,-19.69151 11.19766,-8.85124 11.39472,-8.93246 21.67332,-8.93246 5.14825,0 9.36045,-0.39642 9.36045,-0.88094 0,-0.48452 -1.07272,-3.74702 -2.38382,-7.25 -1.3111,-3.50298 -2.67073,-8.84406 -3.0214,-11.86906 l -0.63758,-5.5 2.35627,7 c 2.16878,6.44302 6.31153,15.03805 10.45603,21.6933 0.92248,1.48132 1.38863,2.98191 1.03589,3.33465 -0.35274,0.35274 -5.24092,-0.29675 -10.86261,-1.4433 -5.6217,-1.14656 -11.17111,-2.06687 -12.33202,-2.04513 -1.16092,0.0217 -6.61076,3.41731 -12.11076,7.54574 -14.99177,11.25316 -34.00282,19.83559 -49.5,22.34648 -7.58577,1.22907 -22.59597,1.22319 -28.87975,-0.0113 z"
         id="path3345"
         inkscape:connector-curvature="0" />
    </g>
  </g>
</svg>
