<?xml version="1.0" encoding="UTF-8" standalone="no"?>
<!-- Created with Inkscape (http://www.inkscape.org/) -->

<svg
   xmlns:dc="http://purl.org/dc/elements/1.1/"
   xmlns:cc="http://creativecommons.org/ns#"
   xmlns:rdf="http://www.w3.org/1999/02/22-rdf-syntax-ns#"
   xmlns:svg="http://www.w3.org/2000/svg"
   xmlns="http://www.w3.org/2000/svg"
   xmlns:sodipodi="http://sodipodi.sourceforge.net/DTD/sodipodi-0.dtd"
   xmlns:inkscape="http://www.inkscape.org/namespaces/inkscape"
   width="298.81088mm"
   height="237.16138mm"
   viewBox="0 0 1058.7787 840.33558"
   id="svg3342"
   version="1.1"
   inkscape:version="0.91 r13725"
   sodipodi:docname="notifyActive_v2.svg">
  <defs
     id="defs3344" />
  <sodipodi:namedview
     id="base"
     pagecolor="#ffffff"
     bordercolor="#666666"
     borderopacity="1.0"
     inkscape:pageopacity="0.0"
     inkscape:pageshadow="2"
     inkscape:zoom="0.35"
     inkscape:cx="-248.35602"
     inkscape:cy="420.67651"
     inkscape:document-units="px"
     inkscape:current-layer="layer1"
     showgrid="false"
     inkscape:window-width="1920"
     inkscape:window-height="1017"
     inkscape:window-x="-8"
     inkscape:window-y="-8"
     inkscape:window-maximized="1"
     fit-margin-top="0"
     fit-margin-left="0"
     fit-margin-right="0"
     fit-margin-bottom="0" />
  <metadata
     id="metadata3347">
    <rdf:RDF>
      <cc:Work
         rdf:about="">
        <dc:format>image/svg+xml</dc:format>
        <dc:type
           rdf:resource="http://purl.org/dc/dcmitype/StillImage" />
        <dc:title></dc:title>
      </cc:Work>
    </rdf:RDF>
  </metadata>
  <g
     inkscape:label="Layer 1"
     inkscape:groupmode="layer"
     id="layer1"
     transform="translate(1125.2154,-112.70312)">
    <g
       id="g3353"
       transform="matrix(2.7133751,0,0,2.2603998,-1359.144,-58.093271)">
      <path
         style="fill:#d2abf0"
         d="m 381.49999,446.77706 c -1.1,-0.23351 -5.99873,-1.81536 -10.88607,-3.51521 -8.4029,-2.92259 -13.49132,-5.46979 -25.11393,-12.57171 -4.69693,-2.87003 -5.36368,-3.00582 -11,-2.24025 -11.99884,1.62979 -34.01663,1.12011 -44.57659,-1.03187 -21.54203,-4.38998 -38.12057,-12.38208 -54.18133,-26.11945 l -6.75792,-5.78031 -10.24208,0.5404 c -5.63314,0.29722 -11.39884,0.90162 -12.81267,1.34312 -1.41382,0.4415 -7.49512,4.15363 -13.51401,8.24919 -18.45052,12.55468 -39.87427,19.78266 -58.63585,19.78266 -11.85106,0 -15.72437,-1.05583 -19.70386,-5.37112 -1.33337,-1.44588 -2.98635,-2.62888 -3.67328,-2.62888 -1.88925,0 -7.284,-4.87034 -8.93832,-8.06946 -2.952661,-5.7098 -0.90338,-9.10032 7.45795,-12.33912 15.49725,-6.00293 24.22255,-17.50922 24.46053,-32.25676 l 0.11743,-7.27756 -8.60016,-8.77855 C 113.15878,336.7276 107.98189,330.0044 102.14469,319.16019 92.310877,300.89118 87.289651,283.65604 86.346517,264.93363 83.340689,205.26414 131.42188,151.39176 201.9491,135.40718 c 36.31415,-8.23038 72.65309,-6.0228 107.82837,6.55055 5.34739,1.91142 10.00893,3.47544 10.35898,3.4756 0.35005,1.7e-4 0.94072,-2.02872 1.31261,-4.50864 0.82946,-5.5312 4.49609,-16.48548 7.53466,-22.51023 15.33399,-30.403583 50.30809,-47.883352 83.1783,-41.571842 16.72319,3.21107 29.28226,9.914829 41.33797,22.0653 8.35569,8.421372 13.07849,15.430842 17.09226,25.367922 4.59593,11.37838 5.82815,17.96594 5.82815,31.15779 0,13.19185 -1.23222,19.77941 -5.82815,31.15779 -4.00965,9.92689 -8.73272,16.94185 -17.09226,25.38634 -11.81116,11.93119 -24.35663,18.5354 -43,22.63613 -4.22179,0.92861 -5.95795,1.76429 -5.85811,2.81974 0.0781,0.825 1.31555,5.93676 2.75,11.35948 2.25459,8.52305 2.60811,11.88497 2.60811,24.80259 0,9.9396 -0.52228,17.2394 -1.5598,21.80102 l -1.55979,6.8579 3.97117,9.33951 c 6.96293,16.37558 8.95,27.94715 7.20259,41.94381 -2.24681,17.99677 -9.43447,32.51395 -22.21872,44.87599 l -7.83545,7.57668 0,5.55006 c 0,7.17924 3.99954,13.50801 11.8209,18.70505 12.39491,8.23602 7.26759,17.3625 -9.59114,17.07191 -3.70137,-0.0638 -7.62976,-0.30706 -8.72976,-0.54057 z"
         id="path3367"
         inkscape:connector-curvature="0" />
      <path
         style="fill:#aa5de7"
         d="m 372.72613,442.4212 c -10.50022,-3.5559 -15.02664,-5.77465 -24.0002,-11.76437 l -6.77405,-4.52159 -13.42921,1.2962 c -34.12165,3.29347 -65.60648,-5.47843 -88.61118,-24.6877 -14.68339,-12.26084 -13.02553,-11.53063 -24.39761,-10.74596 -11.06317,0.76335 -12.55634,1.33313 -23.51389,8.97255 -10.1553,7.0801 -19.30459,11.50417 -33,15.95691 -9.51583,3.09384 -13.3979,3.8271 -22.5,4.24988 l -11,0.51094 -10.39768,-5.37722 c -17.17317,-8.88119 -18.075052,-12.59656 -4.57207,-18.83495 15.68056,-7.24444 23.19132,-17.22082 24.21562,-32.16507 0.61243,-8.93516 -0.18919,-10.81108 -7.31845,-17.12634 -7.48721,-6.63235 -19.08705,-21.95936 -24.7866,-32.75085 -12.420901,-23.51762 -16.481952,-41.40076 -14.611894,-64.34452 5.03046,-61.71875 62.696414,-111.1284 138.394754,-118.58015 14.84197,-1.46105 24.71399,-1.35243 40.08245,0.441 15.07156,1.75878 32.18558,5.86389 44.99387,10.79262 5.76982,2.22026 9.40962,3.13366 10.14129,2.54493 0.62771,-0.50507 1.45457,-3.00744 1.83747,-5.5608 1.00233,-6.684 5.62536,-19.18775 9.5977,-25.95856 1.88267,-3.20898 7.49009,-9.93 12.46094,-14.935583 7.64545,-7.698877 10.49576,-9.817158 18.50026,-13.748943 13.36137,-6.563069 20.0256,-8.136478 34.46234,-8.136478 13.92467,0 20.87696,1.55155 33,7.364639 15.5125,7.438363 26.61718,18.124715 34.44687,33.149215 8.56521,16.43589 11.22227,36.65259 7.13939,54.3213 -4.10244,17.75343 -13.61583,33.28011 -26.82047,43.77336 -9.85196,7.82898 -19.76992,12.42573 -33.4572,15.50664 -6.21972,1.40002 -11.48617,2.72138 -11.70321,2.93636 -0.21705,0.21499 0.63043,5.4633 1.88328,11.66293 2.94252,14.56083 3.60742,28.3356 2.04457,42.35747 l -1.2514,11.22755 4.51018,9.84351 c 7.26352,15.85266 8.22132,19.96483 8.11572,34.84351 -0.0805,11.3431 -0.44555,14.08336 -2.86413,21.5 -3.91664,12.01047 -9.6666,21.14254 -19.29297,30.64102 -8.2086,8.09956 -8.25063,8.16722 -8.25063,13.28212 0,2.82761 0.61871,6.62187 1.3749,8.43171 1.958,4.68614 7.28738,10.43221 11.82071,12.74494 2.13674,1.09009 4.31691,3.11804 4.84483,4.50656 3.4583,9.09604 -13.24601,12.50003 -31.3143,6.38122 z m 28.79696,-66.75288 c 1.88736,-1.35532 4.19283,-5.70733 7.01831,-13.24839 2.49999,-6.67233 2.81332,-8.8454 2.88178,-19.9863 0.0866,-14.09932 -1.09022,-19.11473 -7.53661,-32.11858 -7.93079,-15.99825 -30.52494,-33.5877 -52.97297,-41.23924 -22.96511,-7.82779 -53.99835,-7.94266 -76.4907,-0.28313 -14.94917,5.09078 -27.00208,12.28711 -37.81784,22.5796 -16.22589,15.44088 -24.65358,35.74389 -22.56559,54.36243 1.44234,12.86132 1.06686,12.33483 9.2841,13.01809 8.73351,0.72619 122.3473,12.33234 157.67642,16.10735 15.08973,1.61237 19.17895,1.7734 20.5231,0.80817 z M 259.68224,357.17028 c -1.91967,-1.81048 -4.02089,-5.13489 -4.71963,-7.46709 -3.50743,-11.70675 9.21732,-22.07426 20.51387,-16.71369 4.95266,2.35019 7.51506,6.6927 7.51977,12.74379 0.007,9.41068 -5.14886,14.70034 -14.32943,14.70034 -4.86378,0 -5.93821,-0.39025 -8.98458,-3.26335 z m 15.8632,-5.1912 c 2.71891,-2.7189 2.94324,-3.7638 1.41937,-6.61119 -1.50628,-2.81451 -11.12987,-2.76921 -13.96482,0.0657 -2.50032,2.50032 -2.49344,3.10297 0.0726,6.36514 2.84028,3.61083 8.95398,3.69921 12.47287,0.18031 z m 29.35243,6.18462 c -15.06565,-10.06451 -2.31555,-33.10574 13.77655,-24.89617 7.39886,3.77463 9.87952,10.86471 6.48568,18.53704 -3.64906,8.24932 -13.02707,11.19252 -20.26223,6.35913 z m 13.64757,-6.18462 c 4.6977,-4.69769 2.66116,-8.54545 -4.52294,-8.54545 -5.43702,0 -9.02251,2.18566 -9.02251,5.5 0,5.40132 9.13561,7.4553 13.54545,3.04545 z m 30.95455,6.92105 c -9.37182,-4.64828 -10.53947,-18.50894 -2.04737,-24.30344 7.11872,-4.85738 15.57839,-3.29923 20.27744,3.73482 7.75634,11.61055 -5.69401,26.78632 -18.23007,20.56862 z m 11.91988,-6.58213 c 2.07758,-1.63423 2.62025,-2.82885 2.38485,-5.25 -0.29845,-3.06982 -0.42214,-3.14052 -6.00627,-3.43283 -4.66409,-0.24415 -6.07428,0.0743 -7.75,1.75 -2.57826,2.57826 -2.59151,4.50541 -0.0485,7.04846 2.64794,2.64794 7.97513,2.594 11.41988,-0.11563 z M 354.49999,98.433632 c 0.99549,-1.1 1.58498,-2 1.30998,-2 -0.275,0 -1.31449,0.9 -2.30998,2 -0.99549,1.1 -1.58498,1.999998 -1.30998,1.999998 0.275,0 1.31449,-0.899998 2.30998,-1.999998 z m 11.70374,-7.561337 c 3.46294,-1.866281 5.9438,-3.403458 5.51302,-3.41595 -1.377,-0.03993 -10.1622,4.70023 -12.27343,6.622284 -1.12068,1.020252 -1.4747,1.479681 -0.78672,1.020953 0.68797,-0.458727 4.08418,-2.361007 7.54713,-4.227287 z"
         id="path3365"
         inkscape:connector-curvature="0" />
      <path
         style="fill:#f9ed01"
         d="m 383.33474,444.37383 c -11.13371,-1.93856 -21.8024,-6.73851 -38.50415,-17.32338 -2.73697,-1.73458 -3.75784,-1.79376 -12.93687,-0.75 -36.26273,4.12349 -70.4418,-5.40877 -93.39373,-26.04673 -2.75,-2.47275 -6.98002,-5.91885 -9.40004,-7.658 -4.21568,-3.02961 -4.80226,-3.16117 -14,-3.14013 -11.13635,0.0255 -13.83274,1.00523 -24.59996,8.93859 -13.07261,9.63198 -34.32667,18.00771 -50.62609,19.95055 -9.87242,1.17677 -15.45005,0.32011 -20.62729,-3.16811 -2.06064,-1.38838 -6.22162,-3.30154 -9.24662,-4.25148 -3.025,-0.94993 -6.12084,-2.31105 -6.87965,-3.0247 -1.77395,-1.66838 -0.68485,-6.34466 1.65945,-7.12519 17.89406,-5.95781 29.22028,-18.4815 30.85447,-34.11658 1.08411,-10.37226 0.15159,-12.66429 -9.02879,-22.19164 -10.83854,-11.24818 -15.23408,-16.79152 -21.43586,-27.0334 -16.605605,-27.4232 -20.971923,-57.47142 -12.65141,-87.06476 9.44222,-33.58289 35.17778,-62.17358 71.98179,-79.96755 44.15815,-21.34955 100.07246,-23.77863 145.83578,-6.33553 4.85968,1.85231 9.59072,3.36784 10.51343,3.36784 1.29136,0 2.18213,-2.1298 3.86869,-9.25 1.30228,-5.49788 4.12047,-13.10352 6.94762,-18.75 3.93489,-7.85891 6.31802,-11.06944 13.79553,-18.5852 7.63401,-7.673076 10.51555,-9.811797 18.53895,-13.759898 12.47971,-6.140931 22.64608,-8.6549 35,-8.6549 34.60626,0 64.11646,23.203018 73.12999,57.499998 2.93161,11.15494 2.91581,27.95818 -0.0367,39 -8.30975,31.07729 -31.99608,52.6415 -63.0908,57.43833 -4.12361,0.63613 -7.89709,1.55622 -8.38551,2.04464 -0.51739,0.51739 -0.20541,5.27097 0.74746,11.38906 1.85705,11.92344 2.15752,34.38041 0.59478,44.45256 l -1.04074,6.7077 4.90896,10.48385 c 8.59076,18.34695 9.68254,22.60858 9.60295,37.48386 -0.0609,11.38134 -0.4147,14.05836 -2.84147,21.5 -3.72762,11.43067 -10.41929,21.93133 -19.80874,31.08413 l -7.78018,7.58414 0,5.71552 c 0,8.20706 4.17701,15.40617 11.89229,20.49646 4.62004,3.04816 6.10771,4.94442 6.10771,7.7852 0,4.4025 -9.71258,7.00767 -19.66525,5.27475 z m 14.19737,-5.38917 c 4.31842,-1.80435 4.36938,-2.8192 0.21788,-4.33914 -4.85609,-1.7779 -10.29288,-7.37746 -13.98654,-14.40528 -1.74933,-3.32839 -2.26346,-5.95941 -2.26346,-11.58307 l 0,-7.27646 9.13683,-8.72354 c 10.0748,-9.61908 15.57056,-17.99921 19.49295,-29.72354 2.00691,-5.99881 2.34389,-9.00238 2.35604,-21 0.0156,-15.44244 -1.00407,-19.72291 -7.93791,-33.32106 -6.28257,-12.32094 -29.96302,-31.72288 -46.5039,-38.10172 -32.14086,-12.39483 -68.15432,-11.36344 -97.28469,2.78614 -22.26533,10.81501 -38.71543,28.51875 -45.37309,48.8309 -2.52969,7.71797 -2.8784,10.22633 -2.82284,20.30574 0.0858,15.56035 3.71032,26.73574 13.22774,40.78439 4.02739,5.94482 18.65002,18.88376 26.97291,23.86718 8.19101,4.90445 23.28788,10.73989 33.4701,12.93729 10.60721,2.28912 30.00879,2.9315 43.41375,1.4374 l 11.43099,-1.27407 5.71056,4.1399 c 9.35579,6.78254 24.72959,13.9102 33.21056,15.39721 5.62495,0.98625 14.2767,0.62193 17.53212,-0.73827 z M 261.72199,356.29815 c -5.91101,-4.40906 -7.39168,-12.09112 -3.4561,-17.93112 6.26257,-9.29303 21.23214,-6.45644 23.27062,4.40956 0.97512,5.19788 -0.16498,8.57048 -4.17606,12.35341 -2.95241,2.78448 -4.23811,3.29865 -8.18166,3.27195 -3.13428,-0.0212 -5.59585,-0.71571 -7.4568,-2.1038 z m 11.72963,-1.27986 c 4.00136,-1.67188 5.54837,-4.16631 5.54837,-8.94634 0,-2.61853 -0.68856,-4.03594 -2.75,-5.66096 -8.13415,-6.41206 -21.59064,5.81513 -14,12.72105 3.9007,3.54882 6.26833,3.94751 11.20163,1.88625 z m 31.85799,1.33804 c -3.69341,-2.36582 -6.87984,-9.51462 -5.92921,-13.30226 0.34046,-1.35646 1.7773,-3.84285 3.19299,-5.52531 7.82116,-9.29491 22.4266,-4.12428 22.4266,7.93949 0,4.29446 -0.46218,5.36702 -3.84516,8.92327 -3.36597,3.53837 -4.39411,4.04001 -8.25,4.02526 -2.70432,-0.0103 -5.63651,-0.80579 -7.59522,-2.06045 z m 12.46531,-1.9269 c 5.78652,-3.52804 6.47746,-10.07891 1.47783,-14.01162 -3.20533,-2.52131 -6.86893,-2.51557 -11.02315,0.0173 -6.32843,3.85846 -6.77783,10.47416 -0.95277,14.02584 4.07222,2.48294 6.38544,2.476 10.49809,-0.0315 z m 29.55632,0.66896 c -3.14969,-2.88648 -3.70031,-4.07003 -4.09224,-8.7962 -0.39967,-4.81944 -0.13797,-5.83519 2.22776,-8.64669 3.93363,-4.67487 9.23341,-5.98999 15.10396,-3.74801 3.75733,1.43494 4.992,2.55345 6.51095,5.89843 2.43062,5.3526 2.3853,7.02452 -0.32092,11.83959 -2.66565,4.74289 -6.19858,6.78812 -11.72579,6.78812 -3.21259,0 -4.82703,-0.69895 -7.70372,-3.33524 z m 15.91875,-2.64581 c 3.51355,-3.89749 3.62438,-8.23548 0.29545,-11.5644 -5.38347,-5.38347 -16.54545,-0.63216 -16.54545,7.04288 0,8.3212 10.25284,11.17402 16.25,4.52152 z m -212.18783,50.42451 c 12.68791,-4.09322 24.14563,-9.51472 30.85102,-14.59792 15.46391,-11.72285 13.48768,-10.84554 24.43084,-10.84554 9.01625,0 9.8057,-0.15136 9.12715,-1.75 -4.97578,-11.72272 -6.78224,-19.29894 -7.21277,-30.25 -0.54527,-13.86975 0.90287,-21.68779 6.68836,-36.10819 2.22928,-5.5565 4.05323,-10.44336 4.05323,-10.85969 0,-0.41634 -3.9375,-2.79741 -8.75,-5.29129 -9.67378,-5.01302 -22.52686,-12.0596 -28.12252,-15.41791 -1.99511,-1.19739 -6.10248,-3.4391 -9.12748,-4.98157 -3.025,-1.54248 -9.44812,-5.14717 -14.27359,-8.01042 -4.82548,-2.86326 -11.12548,-6.36027 -14,-7.77113 -2.87453,-1.41087 -6.57641,-3.39568 -8.22641,-4.41069 -1.65,-1.015 -7.725,-4.4578 -13.5,-7.65066 -5.775,-3.19285 -13.55622,-7.52418 -17.29161,-9.62517 -5.99456,-3.37167 -6.863974,-3.61772 -7.408187,-2.09663 -0.339115,0.94784 -1.408283,3.78337 -2.37593,6.30117 -2.266835,5.89828 -3.792626,33.43113 -2.034687,36.71587 0.633588,1.18387 1.586734,4.5271 2.118103,7.4294 0.531369,2.9023 1.933656,7.52691 3.116192,10.27691 7.671399,17.83991 9.042149,20.61233 11.816189,23.8989 1.43962,1.70561 3.92188,5.0405 5.51613,7.41087 1.59425,2.37037 3.75287,4.76693 4.79692,5.32569 1.04405,0.55876 2.68901,1.76937 3.65547,2.69023 0.96646,0.92087 4.51896,4.28975 7.89445,7.48639 6.85501,6.49182 8.20345,9.66428 8.15576,19.18792 -0.0636,12.70986 -5.56795,26.34528 -13.42785,33.26384 -2.51441,2.21327 -7.5127,5.48663 -11.10731,7.27413 -4.3795,2.17781 -6.20405,3.58162 -5.5305,4.25517 1.82718,1.82718 8.4706,2.61981 18.66903,2.22741 8.1694,-0.31433 12.21371,-1.08126 21.5,-4.07709 z M 344.87334,107.72347 c 9.53122,-11.695038 27.01679,-21.584237 42.89004,-24.257032 4.3427,-0.731241 4.44222,-0.80735 1.19671,-0.915187 -8.32425,-0.276587 -22.13955,4.980541 -32.48079,12.35989 -5.36555,3.82878 -14.25121,13.533839 -16.95864,18.522489 -1.08335,1.99616 0.10767,0.7256 5.35268,-5.71016 z"
         id="path3363"
         inkscape:connector-curvature="0" />
      <path
         style="fill:#8a24db"
         d="m 383.33474,444.37383 c -11.13371,-1.93856 -21.8024,-6.73851 -38.50415,-17.32338 -2.73697,-1.73458 -3.75784,-1.79376 -12.93687,-0.75 -36.26273,4.12349 -70.4418,-5.40877 -93.39373,-26.04673 -2.75,-2.47275 -6.98002,-5.91885 -9.40004,-7.658 -4.21568,-3.02961 -4.80226,-3.16117 -14,-3.14013 -11.13635,0.0255 -13.83274,1.00523 -24.59996,8.93859 -13.07261,9.63198 -34.32667,18.00771 -50.62609,19.95055 -9.87242,1.17677 -15.45005,0.32011 -20.62729,-3.16811 -2.06064,-1.38838 -6.22162,-3.30154 -9.24662,-4.25148 -3.025,-0.94993 -6.12084,-2.31105 -6.87965,-3.0247 -1.77395,-1.66838 -0.68485,-6.34466 1.65945,-7.12519 17.89406,-5.95781 29.22028,-18.4815 30.85447,-34.11658 1.08411,-10.37226 0.15159,-12.66429 -9.02879,-22.19164 -10.83854,-11.24818 -15.23408,-16.79152 -21.43586,-27.0334 -16.605605,-27.4232 -20.971923,-57.47142 -12.65141,-87.06476 9.44222,-33.58289 35.17778,-62.17358 71.98179,-79.96755 44.15815,-21.34955 100.07246,-23.77863 145.83578,-6.33553 4.85968,1.85231 9.59072,3.36784 10.51343,3.36784 1.29136,0 2.18213,-2.1298 3.86869,-9.25 1.30228,-5.49788 4.12047,-13.10352 6.94762,-18.75 3.93489,-7.85891 6.31802,-11.06944 13.79553,-18.5852 7.63401,-7.673076 10.51555,-9.811797 18.53895,-13.759898 12.47971,-6.140931 22.64608,-8.6549 35,-8.6549 34.60626,0 64.11646,23.203018 73.12999,57.499998 2.93161,11.15494 2.91581,27.95818 -0.0367,39 -8.30975,31.07729 -31.99608,52.6415 -63.0908,57.43833 -4.12361,0.63613 -7.89709,1.55622 -8.38551,2.04464 -0.51739,0.51739 -0.20541,5.27097 0.74746,11.38906 1.85705,11.92344 2.15752,34.38041 0.59478,44.45256 l -1.04074,6.7077 4.90896,10.48385 c 8.59076,18.34695 9.68254,22.60858 9.60295,37.48386 -0.0609,11.38134 -0.4147,14.05836 -2.84147,21.5 -3.72762,11.43067 -10.41929,21.93133 -19.80874,31.08413 l -7.78018,7.58414 0,5.71552 c 0,8.20706 4.17701,15.40617 11.89229,20.49646 4.62004,3.04816 6.10771,4.94442 6.10771,7.7852 0,4.4025 -9.71258,7.00767 -19.66525,5.27475 z m 14.19737,-5.38917 c 4.31842,-1.80435 4.36938,-2.8192 0.21788,-4.33914 -4.85609,-1.7779 -10.29288,-7.37746 -13.98654,-14.40528 -1.74933,-3.32839 -2.26346,-5.95941 -2.26346,-11.58307 l 0,-7.27646 9.13683,-8.72354 c 10.0748,-9.61908 15.57056,-17.99921 19.49295,-29.72354 2.00691,-5.99881 2.34389,-9.00238 2.35604,-21 0.0156,-15.44244 -1.00407,-19.72291 -7.93791,-33.32106 -6.28257,-12.32094 -29.96302,-31.72288 -46.5039,-38.10172 -32.14086,-12.39483 -68.15432,-11.36344 -97.28469,2.78614 -22.26533,10.81501 -38.71543,28.51875 -45.37309,48.8309 -2.52969,7.71797 -2.8784,10.22633 -2.82284,20.30574 0.0858,15.56035 3.71032,26.73574 13.22774,40.78439 4.02739,5.94482 18.65002,18.88376 26.97291,23.86718 8.19101,4.90445 23.28788,10.73989 33.4701,12.93729 10.60721,2.28912 30.00879,2.9315 43.41375,1.4374 l 11.43099,-1.27407 5.71056,4.1399 c 9.35579,6.78254 24.72959,13.9102 33.21056,15.39721 5.62495,0.98625 14.2767,0.62193 17.53212,-0.73827 z M 261.72199,356.29815 c -5.91101,-4.40906 -7.39168,-12.09112 -3.4561,-17.93112 6.26257,-9.29303 21.23214,-6.45644 23.27062,4.40956 0.97512,5.19788 -0.16498,8.57048 -4.17606,12.35341 -2.95241,2.78448 -4.23811,3.29865 -8.18166,3.27195 -3.13428,-0.0212 -5.59585,-0.71571 -7.4568,-2.1038 z m 11.72963,-1.27986 c 4.00136,-1.67188 5.54837,-4.16631 5.54837,-8.94634 0,-2.61853 -0.68856,-4.03594 -2.75,-5.66096 -8.13415,-6.41206 -21.59064,5.81513 -14,12.72105 3.9007,3.54882 6.26833,3.94751 11.20163,1.88625 z m 31.85799,1.33804 c -3.69341,-2.36582 -6.87984,-9.51462 -5.92921,-13.30226 0.34046,-1.35646 1.7773,-3.84285 3.19299,-5.52531 7.82116,-9.29491 22.4266,-4.12428 22.4266,7.93949 0,4.29446 -0.46218,5.36702 -3.84516,8.92327 -3.36597,3.53837 -4.39411,4.04001 -8.25,4.02526 -2.70432,-0.0103 -5.63651,-0.80579 -7.59522,-2.06045 z m 12.46531,-1.9269 c 5.78652,-3.52804 6.47746,-10.07891 1.47783,-14.01162 -3.20533,-2.52131 -6.86893,-2.51557 -11.02315,0.0173 -6.32843,3.85846 -6.77783,10.47416 -0.95277,14.02584 4.07222,2.48294 6.38544,2.476 10.49809,-0.0315 z m 29.55632,0.66896 c -3.14969,-2.88648 -3.70031,-4.07003 -4.09224,-8.7962 -0.39967,-4.81944 -0.13797,-5.83519 2.22776,-8.64669 3.93363,-4.67487 9.23341,-5.98999 15.10396,-3.74801 3.75733,1.43494 4.992,2.55345 6.51095,5.89843 2.43062,5.3526 2.3853,7.02452 -0.32092,11.83959 -2.66565,4.74289 -6.19858,6.78812 -11.72579,6.78812 -3.21259,0 -4.82703,-0.69895 -7.70372,-3.33524 z m 15.91875,-2.64581 c 3.51355,-3.89749 3.62438,-8.23548 0.29545,-11.5644 -5.38347,-5.38347 -16.54545,-0.63216 -16.54545,7.04288 0,8.3212 10.25284,11.17402 16.25,4.52152 z m -212.18783,50.42451 c 12.68791,-4.09322 24.14563,-9.51472 30.85102,-14.59792 15.46391,-11.72285 13.48768,-10.84554 24.43084,-10.84554 9.01625,0 9.8057,-0.15136 9.12715,-1.75 -4.97578,-11.72272 -6.78224,-19.29894 -7.21277,-30.25 -0.54527,-13.86975 0.90287,-21.68779 6.68836,-36.10819 2.22928,-5.5565 4.05323,-10.44336 4.05323,-10.85969 0,-0.41634 -3.9375,-2.79741 -8.75,-5.29129 -9.67378,-5.01302 -22.52686,-12.0596 -28.12252,-15.41791 -1.99511,-1.19739 -6.10248,-3.4391 -9.12748,-4.98157 -3.025,-1.54248 -9.44812,-5.14717 -14.27359,-8.01042 -4.82548,-2.86326 -11.12548,-6.36027 -14,-7.77113 -2.87453,-1.41087 -6.57641,-3.39568 -8.22641,-4.41069 -1.65,-1.015 -7.725,-4.4578 -13.5,-7.65066 -5.775,-3.19285 -13.55622,-7.52418 -17.29161,-9.62517 -5.99456,-3.37167 -6.863974,-3.61772 -7.408187,-2.09663 -0.339115,0.94784 -1.408283,3.78337 -2.37593,6.30117 -2.266835,5.89828 -3.792626,33.43113 -2.034687,36.71587 0.633588,1.18387 1.586734,4.5271 2.118103,7.4294 0.531369,2.9023 1.933656,7.52691 3.116192,10.27691 7.671399,17.83991 9.042149,20.61233 11.816189,23.8989 1.43962,1.70561 3.92188,5.0405 5.51613,7.41087 1.59425,2.37037 3.75287,4.76693 4.79692,5.32569 1.04405,0.55876 2.68901,1.76937 3.65547,2.69023 0.96646,0.92087 4.51896,4.28975 7.89445,7.48639 6.85501,6.49182 8.20345,9.66428 8.15576,19.18792 -0.0636,12.70986 -5.56795,26.34528 -13.42785,33.26384 -2.51441,2.21327 -7.5127,5.48663 -11.10731,7.27413 -4.3795,2.17781 -6.20405,3.58162 -5.5305,4.25517 1.82718,1.82718 8.4706,2.61981 18.66903,2.22741 8.1694,-0.31433 12.21371,-1.08126 21.5,-4.07709 z M 415.49999,224.93562 c 27.58671,-6.99723 48.61483,-31.38096 52.54745,-60.93282 4.62766,-34.77475 -19.35012,-70.200427 -53.54745,-79.113027 -9.65162,-2.515431 -26.76322,-3.032807 -34.5,-1.04312 -20.04971,5.156234 -34.59592,17.309147 -43.8458,36.631827 -6.24834,13.05256 -7.63373,19.33433 -7.59883,34.45515 0.0278,12.03289 0.27302,13.70674 3.29651,22.5 4.30396,12.51726 10.52086,22.28276 19.55924,30.72361 17.59751,16.43413 41.14335,22.59841 64.08888,16.77838 z"
         id="path3361"
         inkscape:connector-curvature="0" />
      <path
         style="fill:#7c0cd5"
         d="m 383.33474,444.37383 c -11.13371,-1.93856 -21.8024,-6.73851 -38.50415,-17.32338 -2.73697,-1.73458 -3.75784,-1.79376 -12.93687,-0.75 -36.97142,4.20407 -70.34137,-5.33937 -94.45304,-27.01255 -11.03251,-9.91676 -10.88732,-9.85427 -22.89472,-9.85427 -11.99979,0 -12.64038,0.22336 -24.54597,8.55875 -10.1184,7.08414 -19.28369,11.51038 -32.88667,15.88211 -13.93715,4.47913 -28.21138,5.82406 -34.36333,3.23772 -2.0625,-0.86709 -3.75,-2.03043 -3.75,-2.58521 0,-0.55477 -3.2625,-1.96743 -7.25,-3.13924 -3.9875,-1.17181 -7.87084,-2.72778 -8.62965,-3.45771 -1.77058,-1.70321 -0.6874,-6.37342 1.65945,-7.1548 18.44182,-6.14018 29.82953,-19.1493 30.99266,-35.40544 0.69341,-9.69131 -0.63806,-12.5274 -10.66583,-22.71882 C 111.20885,328.52641 99.345212,309.3754 93.688318,291.93363 89.814927,279.9909 88.705643,272.30199 88.81517,258.15579 c 0.349219,-45.10432 28.2429,-84.8173 75.68482,-107.75447 44.15815,-21.34955 100.07246,-23.77863 145.83578,-6.33553 4.85968,1.85231 9.59072,3.36784 10.51343,3.36784 1.29136,0 2.18213,-2.1298 3.86869,-9.25 1.30228,-5.49788 4.12047,-13.10352 6.94762,-18.75 3.93489,-7.85891 6.31802,-11.06944 13.79553,-18.5852 7.63401,-7.673076 10.51555,-9.811797 18.53895,-13.759898 12.47971,-6.140931 22.64608,-8.6549 35,-8.6549 34.60626,0 64.11646,23.203018 73.12999,57.499998 2.93161,11.15494 2.91581,27.95818 -0.0367,39 -8.30975,31.07729 -31.99608,52.6415 -63.0908,57.43833 -4.12361,0.63613 -7.89036,1.54949 -8.37056,2.02969 -0.49745,0.49745 -0.11139,5.91188 0.8973,12.58467 1.38926,9.19029 1.63733,14.9662 1.15233,26.82945 -0.33993,8.31482 -1.08282,16.69149 -1.65086,18.61483 -0.94911,3.21361 -0.55353,4.51004 4.88213,16 8.97594,18.97343 9.59858,21.36147 9.51756,36.50303 -0.0609,11.38134 -0.4147,14.05836 -2.84147,21.5 -3.72762,11.43067 -10.41929,21.93133 -19.80874,31.08413 l -7.78018,7.58414 0,5.69911 c 0,7.18292 3.27663,14.00164 9.14001,19.02047 2.321,1.98668 3.75327,3.61215 3.18285,3.61215 -1.9507,0 -11.15771,-10.11723 -13.24176,-14.55086 -1.40205,-2.98273 -2.0811,-6.43246 -2.0811,-10.57249 l 0,-6.14516 8.7797,-8.62228 c 13.96149,-13.71117 19.81047,-25.40409 22.32625,-44.63329 1.86287,-14.2387 -0.28096,-25.0011 -8.02932,-40.30859 -3.07317,-6.0713 -16.01338,-19.60947 -24.67033,-25.81035 -12.64729,-9.0591 -28.96006,-16.28813 -43.4063,-19.23555 -29.29242,-5.97644 -60.15821,-0.94897 -85.08273,13.85841 -8.48664,5.04182 -22.77882,18.3979 -28.36188,26.50427 -9.02661,13.10623 -14.29728,33.96455 -11.66164,46.15018 2.49869,11.55243 3.467,14.94312 5.79903,20.30626 10.57526,24.32059 36.14133,43.2557 68.54136,50.76407 8.52978,1.97669 42.45101,2.37545 49.5287,0.58224 4.66547,-1.18205 4.15483,-1.40824 15.85659,7.02407 2.81569,2.02899 5.76319,3.68907 6.55,3.68907 0.78681,0 1.89953,0.46896 2.4727,1.04213 0.57317,0.57317 4.60067,2.38362 8.95,4.02322 10.04895,3.78824 21.00836,4.80185 27.2836,2.52341 5.3992,-1.96037 6.12427,-1.97392 6.12427,-0.11444 0,3.60077 -10.6905,6.02853 -19.66525,4.46588 z M 149.31648,404.34112 c 14.73664,-4.54009 26.8559,-10.56509 37.68351,-18.73407 l 9.5,-7.16736 10.75,-0.003 c 5.9125,-0.002 10.75,-0.17204 10.75,-0.3786 0,-0.20656 -1.10328,-2.87027 -2.45172,-5.91935 -9.75377,-22.05499 -7.9504,-45.25214 5.21154,-67.03747 5.85637,-9.69332 20.7715,-24.41788 30.86907,-30.47464 24.68082,-14.80415 54.23481,-20.21592 85.75846,-15.70363 5.56196,0.79614 11.65785,1.90403 13.54642,2.46199 5.86735,1.73344 4.59522,0.34272 -3.58029,-3.91405 -10.72453,-5.58399 -16.44197,-8.82732 -18.29439,-10.37786 -0.8575,-0.71779 -5.60909,-3.26453 -10.55909,-5.65945 -4.95,-2.39492 -9.675,-4.90347 -10.5,-5.57455 -2.20813,-1.79617 -9.69256,-6.09841 -16.25689,-9.34487 -3.16629,-1.56592 -6.3512,-3.34036 -7.07758,-3.9432 -1.29537,-1.07506 -6.83303,-4.06412 -23.52023,-12.69548 -4.59508,-2.37679 -9.09508,-4.92988 -10,-5.67355 -0.90491,-0.74367 -3.6703,-2.36917 -6.1453,-3.61223 -2.475,-1.24306 -5.85,-3.05335 -7.5,-4.02286 -3.59291,-2.11114 -49.65939,-27.68194 -61,-33.86018 -4.4,-2.39707 -8.92406,-4.59072 -10.05346,-4.87477 -2.38371,-0.59953 -14.41281,5.4952 -24.94654,12.63953 -8.27744,5.61405 -24.50638,21.98415 -30.19948,30.46216 -6.08505,9.06169 -11.16942,19.74412 -15.446284,32.45316 -3.806583,11.31157 -3.854234,11.64268 -3.854234,26.78212 0,11.36352 0.388034,16.25765 1.5,18.91896 0.825,1.97451 1.514072,4.77255 1.531272,6.21788 0.0172,1.44534 1.138086,4.87788 2.490857,7.62788 1.352772,2.75 2.463699,5.41151 2.468728,5.91446 0.0222,2.22005 7.309561,15.99349 11.512111,21.75837 2.53684,3.47994 9.42397,10.72167 15.30474,16.09272 11.84716,10.82033 13.01912,12.85722 13.08059,22.73445 0.0529,8.5052 -1.89166,16.35015 -5.93178,23.93021 -3.91808,7.35106 -7.52476,10.68346 -17.47079,16.14216 -9.63176,5.28622 -9.72025,6.31475 -0.68545,7.96758 8.60745,1.57466 22.43101,0.28269 33.51621,-3.13246 z M 392.99999,283.54864 c 0,-0.91525 -4.38489,-4.11501 -5.63913,-4.11501 -0.39022,0 0.34738,1.125 1.63913,2.5 2.39771,2.55224 4,3.19917 4,1.61501 z m 22.5,-58.61302 c 27.58671,-6.99723 48.61483,-31.38096 52.54745,-60.93282 4.62766,-34.77475 -19.35012,-70.200427 -53.54745,-79.113027 -9.65162,-2.515431 -26.76322,-3.032807 -34.5,-1.04312 -20.04971,5.156234 -34.59592,17.309147 -43.8458,36.631827 -6.24834,13.05256 -7.63373,19.33433 -7.59883,34.45515 0.0278,12.03289 0.27302,13.70674 3.29651,22.5 4.30396,12.51726 10.52086,22.28276 19.55924,30.72361 17.59751,16.43413 41.14335,22.59841 64.08888,16.77838 z M 260.45893,354.09257 c -5.32851,-5.32851 -5.74802,-10.47913 -1.31277,-16.11764 4.85041,-6.1663 13.61607,-6.61664 18.91896,-0.97197 2.02144,2.15173 2.43487,3.61081 2.43487,8.59326 0,5.5145 -0.26499,6.23824 -3.26578,8.91944 -1.79617,1.60488 -4.04617,2.91629 -5,2.91423 -1.16022,-0.002 -0.69715,-0.63611 1.39907,-1.91432 6.92508,-4.22271 8.30507,-10.29743 3.44363,-15.15886 -3.28733,-3.28734 -4.71174,-3.52033 -9.44114,-1.54426 -8.90023,3.71875 -10.24337,13.71117 -2.30704,17.16342 2.82144,1.22731 2.91203,1.38379 0.82126,1.41862 -1.3683,0.0228 -3.74571,-1.35657 -5.69106,-3.30192 z m 44.31039,1.08609 c -3.37012,-2.77077 -5.75646,-8.36154 -5.07982,-11.90114 1.3708,-7.17086 10.26937,-12.17099 16.74504,-9.40908 6.00714,2.56208 7.9783,6.13537 7.67614,13.91519 -0.1293,3.32926 -5.91563,9.67377 -8.76069,9.6058 -1.20746,-0.0288 -0.55827,-0.72628 1.86912,-2.00805 4.36374,-2.30423 5.78088,-4.55794 5.78088,-9.19345 0,-3.62779 -2.56438,-7.16388 -5.98187,-8.24855 -3.0941,-0.98203 -8.64154,1.25799 -11.4854,4.63773 -4.03628,4.79684 -3.05573,9.34733 2.78109,12.90629 2.53667,1.54672 2.77847,1.9425 1.18618,1.94152 -1.1,-6.7e-4 -3.2288,-1.01149 -4.73067,-2.24626 z m 42.17684,-1.30057 c -2.97147,-3.06578 -3.44617,-4.22758 -3.44617,-8.43434 0,-4.03743 0.50756,-5.40857 2.94315,-7.95079 5.86852,-6.12541 14.80124,-5.69585 19.30685,0.92842 2.66404,3.91676 2.85896,7.9267 0.61516,12.65517 -1.55917,3.28569 -5.78369,6.40172 -8.5655,6.31794 -0.71481,-0.0215 0.15398,-0.67108 1.93065,-1.44345 3.50964,-1.52574 7.25998,-6.75568 7.26595,-10.13255 0.005,-3.07566 -3.56854,-7.13201 -6.93546,-7.87151 -5.58588,-1.22686 -12.99546,4.34365 -13.03856,9.80239 -0.0299,3.78064 1.46925,6.34348 4.7529,8.12546 2.36877,1.28548 2.45646,1.48396 0.67103,1.51876 -1.12961,0.022 -3.60461,-1.55995 -5.5,-3.5155 z"
         id="path3359"
         inkscape:connector-curvature="0" />
      <path
         style="fill:#641d9e"
         d="m 383.33474,444.37383 c -11.13371,-1.93856 -21.8024,-6.73851 -38.50415,-17.32338 -2.73697,-1.73458 -3.75784,-1.79376 -12.93687,-0.75 -36.97142,4.20407 -70.34137,-5.33937 -94.45304,-27.01255 -11.03251,-9.91676 -10.88732,-9.85427 -22.89472,-9.85427 -11.99979,0 -12.64038,0.22336 -24.54597,8.55875 -10.1184,7.08414 -19.28369,11.51038 -32.88667,15.88211 -13.93715,4.47913 -28.21138,5.82406 -34.36333,3.23772 -2.0625,-0.86709 -3.75,-2.03043 -3.75,-2.58521 0,-0.55477 -3.2625,-1.96743 -7.25,-3.13924 -3.9875,-1.17181 -7.87084,-2.72778 -8.62965,-3.45771 -1.77058,-1.70321 -0.6874,-6.37342 1.65945,-7.1548 18.44182,-6.14018 29.82953,-19.1493 30.99266,-35.40544 0.69341,-9.69131 -0.63806,-12.5274 -10.66583,-22.71882 C 111.20885,328.52641 99.345212,309.3754 93.688318,291.93363 89.814927,279.9909 88.705643,272.30199 88.81517,258.15579 c 0.349219,-45.10432 28.2429,-84.8173 75.68482,-107.75447 44.15815,-21.34955 100.07246,-23.77863 145.83578,-6.33553 4.85968,1.85231 9.59072,3.36784 10.51343,3.36784 1.29136,0 2.18213,-2.1298 3.86869,-9.25 1.30228,-5.49788 4.12047,-13.10352 6.94762,-18.75 3.93489,-7.85891 6.31802,-11.06944 13.79553,-18.5852 7.63401,-7.673076 10.51555,-9.811797 18.53895,-13.759898 12.47971,-6.140931 22.64608,-8.6549 35,-8.6549 34.60626,0 64.11646,23.203018 73.12999,57.499998 2.93161,11.15494 2.91581,27.95818 -0.0367,39 -8.30975,31.07729 -31.99608,52.6415 -63.0908,57.43833 -4.12361,0.63613 -7.89036,1.54949 -8.37056,2.02969 -0.49745,0.49745 -0.11139,5.91188 0.8973,12.58467 1.38926,9.19029 1.63733,14.9662 1.15233,26.82945 -0.33993,8.31482 -1.08282,16.69149 -1.65086,18.61483 -0.94911,3.21361 -0.55353,4.51004 4.88213,16 8.97594,18.97343 9.59858,21.36147 9.51756,36.50303 -0.0609,11.38134 -0.4147,14.05836 -2.84147,21.5 -3.72762,11.43067 -10.41929,21.93133 -19.80874,31.08413 l -7.78018,7.58414 0,5.69911 c 0,7.18292 3.27663,14.00164 9.14001,19.02047 2.321,1.98668 3.75327,3.61215 3.18285,3.61215 -1.9507,0 -11.15771,-10.11723 -13.24176,-14.55086 -1.40205,-2.98273 -2.0811,-6.43246 -2.0811,-10.57249 l 0,-6.14516 8.7797,-8.62228 c 13.96149,-13.71117 19.81047,-25.40409 22.32625,-44.63329 1.86287,-14.2387 -0.28096,-25.0011 -8.02932,-40.30859 -3.07317,-6.0713 -16.01338,-19.60947 -24.67033,-25.81035 -12.64729,-9.0591 -28.96006,-16.28813 -43.4063,-19.23555 -29.29242,-5.97644 -60.15821,-0.94897 -85.08273,13.85841 -8.48664,5.04182 -22.77882,18.3979 -28.36188,26.50427 -9.02661,13.10623 -14.29728,33.96455 -11.66164,46.15018 2.49869,11.55243 3.467,14.94312 5.79903,20.30626 10.57526,24.32059 36.14133,43.2557 68.54136,50.76407 8.52978,1.97669 42.45101,2.37545 49.5287,0.58224 4.66547,-1.18205 4.15483,-1.40824 15.85659,7.02407 2.81569,2.02899 5.76319,3.68907 6.55,3.68907 0.78681,0 1.89953,0.46896 2.4727,1.04213 0.57317,0.57317 4.60067,2.38362 8.95,4.02322 10.04895,3.78824 21.00836,4.80185 27.2836,2.52341 5.3992,-1.96037 6.12427,-1.97392 6.12427,-0.11444 0,3.60077 -10.6905,6.02853 -19.66525,4.46588 z M 149.31648,404.34112 c 14.73664,-4.54009 26.8559,-10.56509 37.68351,-18.73407 l 9.5,-7.16736 10.75,-0.003 c 5.9125,-0.002 10.75,-0.17204 10.75,-0.3786 0,-0.20656 -1.10328,-2.87027 -2.45172,-5.91935 -6.12909,-13.85896 -7.76898,-31.70884 -4.15305,-45.20508 7.61632,-28.42742 30.28758,-50.76508 62.38226,-61.46432 39.08239,-13.02871 86.51865,-4.44548 114.3393,20.6888 2.09431,1.89208 4.24038,3.17281 4.76906,2.84607 0.52868,-0.32674 1.69108,-2.79145 2.58312,-5.47712 2.6061,-7.84624 1.33426,-44.62354 -1.64626,-47.60405 -0.19369,-0.1937 -4.84554,-1.26608 -10.33744,-2.38308 -23.01053,-4.6801 -42.60121,-19.19823 -53.68282,-39.78292 -4.53511,-8.4242 -8.52677,-22.15287 -9.54168,-32.81709 l -0.76077,-7.99375 -4,-1.88523 c -7.47988,-3.52533 -26.96669,-9.3748 -37,-11.10651 -5.5,-0.94928 -11.03367,-2.12981 -12.29705,-2.62339 -3.04608,-1.19007 -38.70885,-1.15731 -42.63195,0.0391 -1.68905,0.51513 -8.246,1.88384 -14.571,3.04159 -32.5507,5.95818 -62.80911,21.58474 -83.51818,43.13186 -15.37443,15.9966 -22.6303,28.00738 -29.59607,48.99096 -3.849277,11.5955 -3.885748,11.85205 -3.885748,27.3343 0,11.63016 0.383786,16.54747 1.5,19.21894 0.825,1.97451 1.514072,4.77255 1.531272,6.21788 0.0172,1.44534 1.138086,4.87788 2.490857,7.62788 1.352772,2.75 2.463699,5.41151 2.468728,5.91446 0.0222,2.22005 7.309561,15.99349 11.512111,21.75837 2.53684,3.47994 9.42397,10.72167 15.30474,16.09272 11.84716,10.82033 13.01912,12.85722 13.08059,22.73445 0.0529,8.5052 -1.89166,16.35015 -5.93178,23.93021 -3.91808,7.35106 -7.52476,10.68346 -17.47079,16.14216 -9.63176,5.28622 -9.72025,6.31475 -0.68545,7.96758 8.60745,1.57466 22.43101,0.28269 33.51621,-3.13246 z m 266.18351,-179.4055 c 27.58671,-6.99723 48.61483,-31.38096 52.54745,-60.93282 4.62766,-34.77475 -19.35012,-70.200427 -53.54745,-79.113027 -9.65162,-2.515431 -26.76322,-3.032807 -34.5,-1.04312 -20.04971,5.156234 -34.59592,17.309147 -43.8458,36.631827 -6.24834,13.05256 -7.63373,19.33433 -7.59883,34.45515 0.0278,12.03289 0.27302,13.70674 3.29651,22.5 4.30396,12.51726 10.52086,22.28276 19.55924,30.72361 17.59751,16.43413 41.14335,22.59841 64.08888,16.77838 z M 260.45893,354.09257 c -5.32851,-5.32851 -5.74802,-10.47913 -1.31277,-16.11764 4.85041,-6.1663 13.61607,-6.61664 18.91896,-0.97197 2.02144,2.15173 2.43487,3.61081 2.43487,8.59326 0,5.5145 -0.26499,6.23824 -3.26578,8.91944 -1.79617,1.60488 -4.04617,2.91629 -5,2.91423 -1.16022,-0.002 -0.69715,-0.63611 1.39907,-1.91432 6.92508,-4.22271 8.30507,-10.29743 3.44363,-15.15886 -3.28733,-3.28734 -4.71174,-3.52033 -9.44114,-1.54426 -8.90023,3.71875 -10.24337,13.71117 -2.30704,17.16342 2.82144,1.22731 2.91203,1.38379 0.82126,1.41862 -1.3683,0.0228 -3.74571,-1.35657 -5.69106,-3.30192 z m 44.31039,1.08609 c -3.37012,-2.77077 -5.75646,-8.36154 -5.07982,-11.90114 1.3708,-7.17086 10.26937,-12.17099 16.74504,-9.40908 6.00714,2.56208 7.9783,6.13537 7.67614,13.91519 -0.1293,3.32926 -5.91563,9.67377 -8.76069,9.6058 -1.20746,-0.0288 -0.55827,-0.72628 1.86912,-2.00805 4.36374,-2.30423 5.78088,-4.55794 5.78088,-9.19345 0,-3.62779 -2.56438,-7.16388 -5.98187,-8.24855 -3.0941,-0.98203 -8.64154,1.25799 -11.4854,4.63773 -4.03628,4.79684 -3.05573,9.34733 2.78109,12.90629 2.53667,1.54672 2.77847,1.9425 1.18618,1.94152 -1.1,-6.7e-4 -3.2288,-1.01149 -4.73067,-2.24626 z m 42.17684,-1.30057 c -2.97147,-3.06578 -3.44617,-4.22758 -3.44617,-8.43434 0,-4.03743 0.50756,-5.40857 2.94315,-7.95079 5.86852,-6.12541 14.80124,-5.69585 19.30685,0.92842 2.66404,3.91676 2.85896,7.9267 0.61516,12.65517 -1.55917,3.28569 -5.78369,6.40172 -8.5655,6.31794 -0.71481,-0.0215 0.15398,-0.67108 1.93065,-1.44345 3.50964,-1.52574 7.25998,-6.75568 7.26595,-10.13255 0.005,-3.07566 -3.56854,-7.13201 -6.93546,-7.87151 -5.58588,-1.22686 -12.99546,4.34365 -13.03856,9.80239 -0.0299,3.78064 1.46925,6.34348 4.7529,8.12546 2.36877,1.28548 2.45646,1.48396 0.67103,1.51876 -1.12961,0.022 -3.60461,-1.55995 -5.5,-3.5155 z"
         id="path3357"
         inkscape:connector-curvature="0" />
      <path
         style="fill:#423242"
         d="m 137.49999,410.74552 c 10.23051,-2.33308 33.49096,-11.02607 39.35459,-14.70775 2.00498,-1.25889 4.77041,-2.83361 6.14541,-3.49938 5.48316,-2.65491 -3.50436,3.89447 -10,7.2872 -13.12817,6.85694 -28.04254,11.78225 -34.79922,11.49204 -2.03539,-0.0874 -2.20804,-0.22837 -0.70078,-0.57211 z m 51.42431,-22.67617 c 1.33338,-1.44965 2.85098,-2.63572 3.37245,-2.63572 1.34213,0 -1.22791,2.89925 -3.71452,4.19031 -1.85806,0.96473 -1.82123,0.79735 0.34207,-1.55459 z m 21.57569,-5.63572 c -0.75476,-1.22122 5.15806,-1.22122 8,0 1.50956,0.64868 0.84968,0.87666 -2.69098,0.92971 -2.58004,0.0387 -4.9691,-0.37971 -5.30902,-0.92971 z m 183.5,-148.5 c -1.375,-0.78602 -3.63404,-1.44508 -5.0201,-1.46456 -4.41138,-0.062 -16.89296,-3.96651 -23.80138,-7.44554 -24.19718,-12.1855 -39.04,-34.00948 -42.12178,-61.93332 -0.5975,-5.41387 -1.53267,-10.67735 -2.07816,-11.69661 -0.74592,-1.39375 -0.59637,-2.07448 0.60322,-2.74581 0.92481,-0.51755 2.16903,-3.63098 2.9611,-7.40966 1.8668,-8.90571 5.72676,-18.83763 10.17229,-26.1739 3.63677,-6.0016 16.02399,-19.350277 19.86329,-21.405008 1.06594,-0.570472 -1.45366,2.407895 -5.5991,6.618598 -4.14544,4.2107 -8.15666,9.23081 -8.91381,11.15581 -0.75716,1.925 -2.86579,6.66424 -4.68586,10.53165 -5.46761,11.61795 -6.85812,18.33551 -6.82434,32.96835 0.0278,12.03289 0.27302,13.70674 3.29651,22.5 4.34144,12.62626 10.5098,22.27242 19.77611,30.92614 13.19098,12.31892 28.76657,18.4498 46.87201,18.4498 18.10544,0 33.68103,-6.13088 46.87201,-18.4498 21.3256,-19.91576 28.69752,-49.91393 18.9827,-77.2453 -7.31039,-20.56683 -25.55035,-38.487068 -45.85471,-45.050949 -5.54998,-1.794167 -23.51747,-4.548174 -30.5,-4.674955 -3.74007,-0.06791 -4.11727,-0.235456 -2.23364,-0.992146 7.79587,-3.131759 24.85996,-1.813085 38.36064,2.964425 11.18329,3.95745 18.29211,8.529069 27.35441,17.591375 16.3634,16.3634 23.33144,34.68136 22.24597,58.48141 -1.74336,38.22475 -28.60591,67.58324 -66.66313,72.85715 -4.03608,0.55931 -7.81666,1.49526 -8.40129,2.07989 -1.3351,1.3351 -1.6076,1.30956 -4.66296,-0.43704 z"
         id="path3355"
         inkscape:connector-curvature="0" />
    </g>
  </g>
</svg>
