<?xml version="1.0" encoding="UTF-8" standalone="no"?>
<svg
   xmlns:dc="http://purl.org/dc/elements/1.1/"
   xmlns:cc="http://creativecommons.org/ns#"
   xmlns:rdf="http://www.w3.org/1999/02/22-rdf-syntax-ns#"
   xmlns:svg="http://www.w3.org/2000/svg"
   xmlns="http://www.w3.org/2000/svg"
   version="1.1"
   id="svg2"
   viewBox="0 0 744.09448819 1052.3622047"
   height="297mm"
   width="210mm">
  <defs
     id="defs4" />
  <metadata
     id="metadata7">
    <rdf:RDF>
      <cc:Work
         rdf:about="">
        <dc:format>image/svg+xml</dc:format>
        <dc:type
           rdf:resource="http://purl.org/dc/dcmitype/StillImage" />
        <dc:title></dc:title>
      </cc:Work>
    </rdf:RDF>
  </metadata>
  <g
     id="layer1">
    <path
       id="path3373"
       d="m 474.32883,455.1428 c -0.73207,-1.97897 -1.53216,-2.22268 -7.38669,-2.25 -9.29576,-0.0434 -10.82713,-1.68836 -13.30539,-14.29262 -1.1417,-5.8066 -2.62021,-10.43575 -3.66763,-11.48317 -0.96516,-0.96516 -1.75484,-2.13599 -1.75484,-2.60183 0,-0.46584 -0.9,-1.8847 -2,-3.15301 -1.1,-1.26831 -2,-3.1148 -2,-4.10332 0,-0.98851 -0.61863,-2.15716 -1.37473,-2.59699 -1.50826,-0.87737 -2.87476,-10.47162 -2.74013,-19.23857 0.0647,-4.21458 -0.52402,-6.46558 -2.61549,-10 -1.79719,-3.03711 -2.97846,-6.90003 -3.53536,-11.56112 -1.20614,-10.0952 -1.55772,-23.82987 -0.64073,-25.03054 0.43288,-0.5668 -0.12141,-5.0668 -1.23176,-10 -3.77299,-16.76306 -1.28707,-21.19092 13.47204,-23.99604 10.3477,-1.96668 14.26906,-3.37561 17.17633,-6.17139 2.43542,-2.34201 16.42192,-5.30391 25.04056,-5.30281 l 6.05074,7.8e-4 2.16812,-4.46264 c 1.19247,-2.45446 3.74228,-6.20506 5.66626,-8.33467 l 3.49814,-3.87202 -23.66152,-9.41533 c -19.30754,-7.68282 -24.43848,-9.35406 -27.88395,-9.0823 -3.24028,0.25558 -4.70696,-0.15148 -6.30548,-1.75 -2.69558,-2.69558 -2.83787,-9.08995 -0.2543,-11.42805 3.27756,-2.96615 13.17126,-1.6321 13.17126,1.776 0,0.8481 10.45298,5.5425 27.75,12.46243 l 27.75,11.10181 6,-1.9379 c 3.3,-1.06585 7.18865,-2.18609 8.64144,-2.48942 1.76,-0.36748 3.28255,-1.80563 4.56264,-4.30971 1.05666,-2.06701 8.97295,-15.34975 17.59177,-29.5172 8.61881,-14.16745 15.9397,-26.99245 16.26864,-28.5 1.6195,-7.42219 2.35493,-8.24099 7.40184,-8.24099 5.38712,0 8.03367,2.06344 8.03367,6.26364 0,4.46958 -1.71424,7.44109 -4.94178,8.56621 -1.69653,0.59141 -3.38271,1.88414 -3.74706,2.87272 -0.6782,1.84009 -8.28365,14.39568 -9.2663,15.29742 -0.29967,0.275 -1.44486,2.17168 -2.54486,4.21484 -3.00905,5.58907 -13.68549,23.21372 -14.40828,23.78516 -0.34784,0.275 -1.28383,1.85 -2.07999,3.5 -0.79615,1.65 -1.58983,3.271 -1.76371,3.60222 -0.17389,0.33121 2.54137,0.86905 6.03391,1.19519 6.72062,0.62758 17.71807,4.21172 17.71807,5.77444 0,0.51048 0.59656,0.92815 1.32569,0.92815 0.72912,0 2.39699,1.14036 3.70637,2.53413 1.90596,2.0288 2.98762,2.41081 5.42432,1.91571 1.67399,-0.34013 12.39677,-2.66065 23.82839,-5.15671 20.75777,-4.53239 20.79059,-4.53606 25.27129,-2.82487 5.0119,1.91406 6.8172,4.54476 7.91357,11.53174 0.38836,2.475 5.84158,28.37581 12.11824,57.55737 6.27667,29.18155 11.41213,54.4275 11.41213,56.10211 0,1.67462 -1.02568,4.5738 -2.2793,6.44264 -1.82754,2.72443 -3.41312,3.68633 -8,4.85325 -5.46012,1.38909 -5.7207,1.60058 -5.7207,4.64302 0,3.67256 -1.23783,4.40161 -7.47338,4.40161 -3.78867,0 -4.3874,-0.30916 -4.95152,-2.55681 -0.45349,-1.80683 -1.14528,-2.4124 -2.35841,-2.06447 -0.94418,0.27079 -12.51669,2.79611 -25.71669,5.61183 -13.2,2.81572 -26.925,5.79234 -30.5,6.61472 -3.575,0.82238 -7.5125,1.7062 -8.75,1.96404 -1.2375,0.25783 -2.25,1.13522 -2.25,1.94974 0,0.8994 -0.949,1.48095 -2.41667,1.48095 -1.32916,0 -2.56666,0.43386 -2.75,0.96414 -0.32313,0.93462 -9.23443,1.98989 -21.14256,2.50368 -3.19508,0.13785 -6.32258,0.76399 -6.95,1.39141 -0.62742,0.62742 -2.2179,1.14077 -3.53439,1.14077 -1.55262,0 -2.57738,0.7027 -2.91663,2 -0.33177,1.2687 -1.36402,2 -2.82305,2 -1.26502,0 -2.45003,0.43386 -2.63337,0.96414 -0.18333,0.53028 -3.70833,1.26326 -7.83333,1.62886 -6.64933,0.58933 -9.83414,0.79871 -19.5,1.282 -1.95667,0.0978 -2.5,0.66068 -2.5,2.58982 0,3.06271 -2.58653,4.53518 -7.96648,4.53518 -3.3197,0 -4.25389,-0.42149 -4.91897,-2.21937 z m 10.38545,-26.31831 c 9.4335,-1.51955 107.01623,-22.66823 108.66459,-23.5504 0.99809,-0.53417 2.45174,-2.20309 3.23033,-3.70873 1.30123,-2.51629 0.65832,-6.2514 -7.9558,-46.22035 -8.55667,-39.70245 -9.59656,-43.67845 -11.96103,-45.73284 -1.42429,-1.2375 -3.57702,-2.24908 -4.78385,-2.24795 -1.92733,0.002 -31.28509,6.2106 -83.19424,17.59454 -8.8,1.92988 -18.475,3.97628 -21.5,4.54756 -14.70673,2.77738 -16.8204,4.4593 -15.07401,11.99493 0.55586,2.3985 2.61483,11.78592 4.57548,20.86092 1.96066,9.075 5.30629,23.925 7.43473,33 2.12844,9.075 4.16106,18.3 4.51693,20.5 1.20622,7.45688 2.68831,10.61541 5.89661,12.5665 1.72896,1.05144 3.82007,1.7156 4.64691,1.47592 0.82684,-0.23968 3.30335,-0.72573 5.50335,-1.0801 z m 1.5,-43.96232 0,-28.5 -7.375,0 c -4.05625,0 -8.78125,-0.28125 -10.5,-0.625 -3.07447,-0.61489 -3.125,-0.72 -3.125,-6.5 l 0,-5.875 22.84444,0 c 12.56444,0 27.63397,-0.29305 33.48784,-0.65122 l 10.6434,-0.65123 1.51216,3.61911 c 0.83169,1.99051 1.51216,4.61276 1.51216,5.82723 0,2.37082 8.52205,25.62116 11.93357,32.5578 1.13653,2.31094 2.06643,4.67344 2.06643,5.25 0,0.57657 0.38503,1.04831 0.85561,1.04831 0.90554,0 17.14439,-43.07363 17.14439,-45.47556 0,-2.338 1.85066,-2.77343 8.67951,-2.04212 6.38967,0.68428 6.51093,0.75189 6.02228,3.35801 -0.27428,1.46282 -5.00643,14.13467 -10.51589,28.15967 -5.50946,14.025 -11.01546,28.3125 -12.23554,31.75 l -2.21834,6.25 -6.68876,0 -6.68875,0 -2.13747,-4.27987 c -1.79948,-3.60311 -10.82119,-26.41025 -18.38196,-46.47013 l -1.97878,-5.25 -10.42815,0 -10.42815,0 -0.11071,9.25 c -0.0609,5.0875 -0.0177,17.9125 0.0961,28.5 l 0.20678,19.25 -7.09607,0 -7.09607,0 0,-28.5 z m -217,56.71506 c 0,-0.98172 1.5442,-5.59422 3.43155,-10.25 6.82461,-16.83518 17.06261,-52.63793 30.65795,-107.21223 l 7.4105,-29.74716 7.75,-0.003 c 9.11279,-0.003 8.68519,-1.04959 5.80202,14.19641 -4.95291,26.19056 -5.26119,42.92216 -1.03698,56.28032 l 2.20713,6.97957 2.37586,-2.97957 c 3.59668,-4.51059 14.20166,-25.54033 16.94075,-33.59358 1.33225,-3.91696 2.98037,-10.6687 3.66251,-15.00386 l 1.24024,-7.88216 7.02924,0.0136 c 9.55386,0.0186 11.52923,0.6494 11.52923,3.68187 0,1.35424 -2.27395,8.53016 -5.05321,15.94648 -6.35652,16.962 -9.44927,29.32821 -11.46896,45.858 -2.75721,22.56583 -0.0759,39.70742 7.39088,47.24915 5.53216,5.58773 9.38491,7.00346 13.45299,4.94344 6.13783,-3.10812 9.05156,-5.2411 14.59023,-10.68073 l 5.58807,-5.48814 -10,-0.58414 c -18.97907,-1.10864 -27.04353,-8.52058 -28.23841,-25.95357 -0.44411,-6.4794 -0.16363,-8.42536 1.97897,-13.7299 2.6094,-6.46021 7.37001,-13.06034 9.50944,-13.18391 0.6875,-0.0397 1.25,-0.51616 1.25,-1.05878 0,-2.17293 7.36351,-4.01342 16.05702,-4.01342 9.88038,0 13.16019,0.91353 17.28226,4.81362 4.14221,3.91916 5.66072,7.44312 5.66072,13.13672 l 0,5.04966 -18.11354,0 -18.11355,0 0.69619,4.75 c 0.79073,5.39505 3.78122,12.76345 6.31909,15.56987 2.46342,2.72409 8.6732,5.68074 11.92197,5.67639 3.80618,-0.005 8.86303,-3.27022 10.76697,-6.95204 1.29595,-2.50609 2.18839,-3.04422 5.04855,-3.04422 3.10288,0 3.47432,0.28698 3.47432,2.68428 0,4.0782 -3.81722,11.09468 -7.0866,13.02595 -1.9215,1.13505 -2.9134,2.5324 -2.9134,4.10425 0,6.28022 -10.30673,19.02241 -18.45609,22.81724 -7.31769,3.40755 -17.85129,3.32017 -24.89868,-0.20653 -6.26288,-3.13412 -8.80771,-5.43311 -12.58309,-11.36751 -6.11557,-9.61288 -6.85087,-16.23412 -4.4446,-40.02282 l 0.65397,-6.46514 -3.50383,3.71514 c -4.01861,4.26096 -8.45951,4.90427 -14.39892,2.08584 -4.05356,-1.92354 -9.62284,-9.89164 -11.44225,-16.3707 -1.71109,-6.09331 -2.55585,-6.78931 -3.31686,-2.73278 -0.35253,1.87914 -2.21523,8.77525 -4.13934,15.3247 -1.9241,6.54944 -4.18007,14.34249 -5.01326,17.31789 -0.83318,2.97539 -2.12206,6.80039 -2.86416,8.5 -0.74211,1.6996 -2.14636,5.34019 -3.12057,8.09019 -2.00301,5.65409 -8.76955,19.76717 -10.41152,21.71547 -0.59541,0.70649 -2.01033,2.52203 -3.14426,4.03453 -2.47182,3.2971 -7.91654,3.96083 -7.91654,0.96511 z m -40.25,-7.29516 c -2.22081,-1.2935 -2.35209,-7.46067 -0.20453,-9.60823 1.16798,-1.16798 3.03119,-1.43801 7.62798,-1.1055 l 6.08251,0.43996 2.36225,-5.07306 c 1.29924,-2.79019 2.36665,-6.21384 2.37202,-7.60812 0.008,-2.03281 -5.36056,-15.90899 -17.70043,-45.75194 -0.29269,-0.70784 -1.82763,-1.95689 -3.41098,-2.77568 -1.995,-1.03165 -2.87882,-2.24832 -2.87882,-3.96301 l 0,-2.47432 15,0 15,0 0,3 c 0,2.49757 -0.40078,3 -2.39301,3 -1.31616,0 -2.6552,0.68326 -2.97566,1.51835 -0.44674,1.1642 7.51517,24.96148 8.77189,26.2182 0.2731,0.27311 7.8993,-18.64866 9.02047,-22.38118 0.70183,-2.33649 -1.55026,-5.35537 -3.99512,-5.35537 -0.92063,0 -1.42857,-1.06667 -1.42857,-3 l 0,-3 11.5,0 11.5,0 0,2.89159 c 0,2.24646 -0.55495,3.03088 -2.48735,3.51588 -1.36804,0.34336 -3.21689,1.7377 -4.10855,3.09855 -1.70099,2.59604 -11.81075,26.43879 -21.0787,49.71177 -3.19194,8.01538 -6.64026,14.97826 -8.29531,16.75 -2.62817,2.81346 -3.32659,3.03002 -9.6813,3.0018 -3.76683,-0.0167 -7.63629,-0.48908 -8.59879,-1.04969 z M 101.54926,425.7927 c -0.33125,-0.8632 -0.34966,-8.1757 -0.0409,-16.25 0.50942,-13.32259 1.95411,-22.56934 6.39492,-40.93053 0.52766,-2.18172 0.30545,-2.25359 -7.3224,-2.36831 -11.413431,-0.17166 -13.803401,-0.84745 -14.170496,-4.00686 -0.294186,-2.5319 -0.06473,-2.65124 7.164735,-3.72649 4.10777,-0.61096 9.923621,-1.39936 12.924131,-1.75201 l 5.45547,-0.64118 3.68978,-10.12758 c 2.02939,-5.57016 6.69347,-16.20257 10.36463,-23.62757 3.67116,-7.425 6.85491,-13.90724 7.075,-14.40498 0.23282,-0.52654 -3.52434,-0.66437 -8.98483,-0.3296 -21.98764,1.34801 -40.494427,12.18625 -42.528427,24.90619 -0.560828,3.50723 -0.879043,3.82839 -3.793247,3.82839 -4.673121,0 -6.692284,-1.96453 -7.267885,-7.07125 -1.582869,-14.04318 8.032873,-23.30163 30.204569,-29.08226 8.07214,-2.10458 11.16499,-2.34517 29.99999,-2.3337 17.33592,0.0106 22.22136,0.33952 28,1.88534 7.89026,2.11071 16.29311,5.59421 18.5655,7.69657 0.83543,0.77292 2.39996,1.89788 3.47673,2.49993 3.01357,1.68495 8.25996,9.0319 9.41216,13.18063 2.69517,9.70444 0.27618,20.32861 -5.79094,25.43375 -4.53271,3.81403 -14.77848,8.3948 -24.09973,10.77472 -9.02463,2.30419 -26.3949,4.96971 -32.56991,4.99795 l -4.00619,0.0183 -7.1974,25.75 c -3.95857,14.1625 -7.48257,27.55 -7.83112,29.75 -0.34855,2.2 -0.84976,4.7875 -1.1138,5.75 -0.6059,2.20867 -5.17934,2.34605 -6.01032,0.18053 z m 4.15795,-2.41908 c 0.35034,-0.56686 -0.0511,-0.7345 -0.94099,-0.39301 -1.73241,0.66479 -2.04938,1.38156 -0.61095,1.38156 0.51754,0 1.21591,-0.44485 1.55194,-0.98855 z m 0.50708,-2.6191 c 0,-0.82763 -1.94173,-1.29565 -2.38692,-0.57533 -0.28881,0.46731 0.1301,0.84965 0.9309,0.84965 0.80081,0 1.45602,-0.12345 1.45602,-0.27432 z m 0.6744,-5.52941 c -0.2749,-1.05124 -0.0563,-3.51765 0.48578,-5.48091 0.54208,-1.96327 0.76944,-3.78574 0.50523,-4.04995 -0.76233,-0.76233 -3.80857,10.62727 -3.13419,11.71844 0.99315,1.60695 2.68412,-0.11904 2.14318,-2.18758 z m -2.32933,-8.40607 c -0.32568,-0.84872 -0.80662,-1.32866 -1.06875,-1.06653 -0.26213,0.26213 -0.17998,0.95654 0.18256,1.54313 0.98605,1.59546 1.56238,1.28551 0.88619,-0.4766 z m 6.34792,-9.18784 c -0.25355,-0.97297 -0.47767,-0.41903 -0.49805,1.23097 -0.0204,1.65 0.18707,2.44606 0.46099,1.76903 0.27393,-0.67703 0.2906,-2.02703 0.0371,-3 z m -3.41286,-11.3058 c -0.69762,-2.66771 -0.97767,-2.47739 -1.48988,1.01252 -0.33151,2.25871 -0.14277,2.73178 0.78326,1.96324 0.67101,-0.55689 0.98899,-1.89598 0.70662,-2.97576 z m 5.71986,2.53677 c 0,-0.825 -0.17685,-1.5 -0.39301,-1.5 -0.21615,0 -0.65203,0.675 -0.96861,1.5 -0.31659,0.825 -0.13973,1.5 0.39301,1.5 0.53274,0 0.96861,-0.675 0.96861,-1.5 z m -3.7514,-7.65737 c -0.34537,-1.3207 -0.17133,-1.91291 0.44943,-1.52926 0.62756,0.38785 0.82259,-0.37026 0.51253,-1.99226 -0.37665,-1.97034 -0.17892,-2.41959 0.79897,-1.81523 0.85687,0.52958 1.05646,0.4099 0.58596,-0.35137 -0.39243,-0.63498 -0.37845,-1.69666 0.0311,-2.35928 0.40953,-0.66263 0.86006,-2.57513 1.00118,-4.25 0.25253,-2.99714 0.24,-3.00575 -0.79356,-0.54523 -0.57758,1.375 -1.69544,3.7264 -2.48412,5.22533 -1.42036,2.69946 -1.62667,11.06367 -0.25194,10.21404 0.39277,-0.24275 0.46049,-1.41128 0.15049,-2.59674 z m 7.19115,-4.34263 c 0.6293,-3.57015 0.555,-3.79908 -0.69141,-2.13036 -1.15274,1.54333 -1.41675,3.62162 -0.83167,6.54703 0.22303,1.11516 0.88779,-0.8125 1.52308,-4.41667 z m -19.939741,-14.5 c -0.33992,-0.55 -1.04148,-1 -1.55902,-1 -0.51754,0 -0.94098,0.45 -0.94098,1 0,0.55 0.70155,1 1.55901,1 0.85746,0 1.2809,-0.45 0.94099,-1 z m 34.957291,-2.0691 c -0.31643,-0.51199 -1.47533,-0.9309 -2.57533,-0.9309 -1.1,0 -1.73403,0.43035 -1.40896,0.95633 0.32507,0.52598 1.32545,0.6745 2.22306,0.33006 1.17858,-0.45226 1.40459,-0.25828 0.81347,0.69818 -0.5487,0.88782 -0.43257,1.0859 0.35227,0.60084 0.64395,-0.39798 0.91192,-1.14251 0.59549,-1.65451 z m 8.98507,-0.83764 c 0.30821,-0.49871 -0.34023,-0.67122 -1.44099,-0.38337 -2.33498,0.61061 -2.63014,1.29011 -0.56039,1.29011 0.79254,0 1.69316,-0.40803 2.00138,-0.90674 z m 7,-1 c 0.30821,-0.49871 -0.34023,-0.67122 -1.44099,-0.38337 -2.33498,0.61061 -2.63014,1.29011 -0.56039,1.29011 0.79254,0 1.69316,-0.40803 2.00138,-0.90674 z m 7.95076,-1.5438 c 1.04122,-0.3281 1.69334,-0.79633 1.44915,-1.04052 -0.77369,-0.77369 -7.79055,1.76574 -7.25836,2.62684 0.27984,0.45279 1.27544,0.41533 2.21244,-0.0833 0.93701,-0.49859 2.55555,-1.17497 3.59677,-1.50306 z m -18.04996,-1.79616 c 3.1799,-0.0103 3.57658,-0.16807 1.68787,-0.67116 -2.02798,-0.54019 -1.40286,-0.88556 3.5,-1.93364 6.93683,-1.4829 16.39755,-4.35536 11.96896,-3.63402 -9.90608,1.61353 -13.96504,2.57103 -16.71557,3.94317 -1.70044,0.84829 -3.67101,1.54235 -4.37905,1.54235 -0.70804,0 -1.60843,0.51953 -2.00087,1.15451 -0.46109,0.74606 -0.27212,0.8817 0.53415,0.3834 0.68623,-0.42411 3.11825,-0.77718 5.40451,-0.78461 z m 24.386,-0.35747 c -0.33229,-0.33229 -1.19479,-0.36781 -1.91667,-0.0789 -0.79773,0.31922 -0.56077,0.55618 0.60417,0.60416 1.05417,0.0434 1.64479,-0.19293 1.3125,-0.52522 z m -42.79982,-4.623 c 0.61875,-1.77495 0.71335,-2.78745 0.21022,-2.25 -1.066,1.13871 -2.49557,5.47717 -1.80478,5.47717 0.25826,0 0.97581,-1.45223 1.59456,-3.22717 z m 47.79982,2.623 c -0.3323,-0.33229 -1.1948,-0.36781 -1.91667,-0.0789 -0.79773,0.31922 -0.56078,0.55618 0.60417,0.60416 1.05416,0.0434 1.64479,-0.19293 1.3125,-0.52522 z m -21.7977,-5.08704 c 19.8129,-5.93726 33.06853,-13.9044 33.06853,-19.87546 0,-6.47064 -17.49676,-16.02771 -34.53753,-18.86507 l -4.03753,-0.67226 -1.2038,7.01998 c -0.66208,3.86098 -3.23269,13.18562 -5.71246,20.7214 -2.47977,7.53578 -4.50868,14.30877 -4.50868,15.05107 0,1.60089 0.93196,1.41486 16.93147,-3.37966 z m 17.56853,-1.30879 c 0.33992,-0.55 0.14148,-1 -0.44098,-1 -0.58246,0 -1.05902,0.45 -1.05902,1 0,0.55 0.19844,1 0.44099,1 0.24254,0 0.71909,-0.45 1.05901,-1 z m -33.65765,-10.62399 c 1.23366,-4.19319 2.08925,-7.77775 1.90131,-7.96569 -0.18794,-0.18794 -1.51684,3.24286 -2.95312,7.62399 -1.43628,4.38113 -2.29187,7.96569 -1.90131,7.96569 0.39056,0 1.71946,-3.43079 2.95312,-7.62399 z m 43.15765,6.62399 c 0,-0.55 -0.19844,-1 -0.44098,-1 -0.24254,0 -0.7191,0.45 -1.05902,1 -0.33992,0.55 -0.14148,1 0.44098,1 0.58246,0 1.05902,-0.45 1.05902,-1 z m 6.88693,-4.56988 c 1.41549,0.87482 2.36604,-1.15568 1.37229,-2.93141 -0.6954,-1.2426 -1.47425,-0.85803 -4.30413,2.12522 -3.03499,3.19948 -3.12607,3.43329 -0.74907,1.92301 1.48832,-0.94563 3.14472,-1.4482 3.68091,-1.11682 z M 78.67158,333.43127 c 0.316431,-0.512 0.117988,-1.21356 -0.440983,-1.55902 -0.558972,-0.34546 -1.016312,-0.125 -1.016312,0.48992 0,0.61492 -0.45,0.83992 -1,0.5 -0.55,-0.33992 -1,-1.46492 -1,-2.5 0,-1.03508 -0.408034,-2.13414 -0.906741,-2.44236 -1.114841,-0.68901 -0.17512,3.46854 1.173618,5.19236 1.160214,1.48287 2.394848,1.60636 3.190418,0.3191 z m 51.09544,-9.24807 c 0.521,-0.92343 1.34822,-1.59843 1.83828,-1.5 0.49005,0.0984 1.20761,-0.49603 1.59457,-1.32103 0.38696,-0.825 1.21429,-2.49164 1.83851,-3.70364 1.68087,-3.26362 -0.19245,-3.64228 -2.50877,-0.50709 -2.53512,3.43133 -6.32915,11.95404 -6.27143,14.08785 0.0241,0.89258 0.61037,0.0479 1.30274,-1.87712 0.69236,-1.925 1.68511,-4.25554 2.2061,-5.17897 z m 1.46258,-2.51201 c 0.008,-0.44496 0.45153,-1.48402 0.98468,-2.30902 0.8354,-1.29269 0.97149,-1.26629 0.98469,0.19098 0.008,0.93004 -0.43469,1.9691 -0.98469,2.30902 -0.55,0.33992 -0.99311,0.25398 -0.98468,-0.19098 z m -56.131316,0.31854 c -0.11018,-2.02079 -0.140674,-2.02719 -0.607609,-0.12756 -0.270384,1.1 -1.005683,2.675 -1.633998,3.5 -0.993551,1.30457 -0.914387,1.32119 0.607608,0.12756 0.9625,-0.75485 1.697799,-2.32985 1.633999,-3.5 z m 106.497556,-2.1795 c 0.34149,-0.88992 0.17385,-1.29132 -0.39301,-0.94098 -0.5437,0.33602 -0.98855,1.0344 -0.98855,1.55194 0,1.43843 0.71677,1.12146 1.38156,-0.61096 z m -90.410511,-5.409 c 2.3806,-1.50554 0.75675,-1.82359 -1.97104,-0.38604 -1.377946,0.72617 -1.826769,1.31724 -1.000004,1.31693 0.825004,-3.2e-4 2.161964,-0.41922 2.971044,-0.93089 z m -8.540332,-2.94168 c -0.263082,-0.26308 -1.255117,0.33267 -2.204522,1.3239 -1.649287,1.72194 -1.627977,1.74325 0.478332,0.47833 1.212486,-0.72815 1.989272,-1.53915 1.72619,-1.80223 z m 87.462443,0.46245 c -0.24209,-0.2421 -3.95696,-1.55696 -8.25525,-2.92193 -9.11985,-2.89609 -9.35179,-2.14109 -0.31766,1.03402 5.83175,2.04962 9.55442,2.86942 8.57291,1.88791 z m 3.17405,-2.43425 c -0.55174,-1.03093 -3.38007,-2.63107 -6.28519,-3.55586 -2.90511,-0.92479 -6.70234,-2.3324 -8.4383,-3.12802 -2.14693,-0.98398 -3.90578,-1.1633 -5.5,-0.56073 -2.03388,0.76875 -1.83475,0.88805 1.50628,0.90244 2.1175,0.009 4.345,0.51159 4.95,1.11659 0.605,0.605 1.92413,1.1 2.93139,1.1 1.00726,0 2.07132,0.62527 2.36458,1.38949 0.3089,0.80499 1.34958,1.176 2.47394,0.88198 2.14534,-0.56102 5.22327,1.44514 4.36006,2.84184 -0.3014,0.48768 0.16939,0.88669 1.0462,0.88669 1.24872,0 1.3768,-0.40621 0.59104,-1.87442 z m -66.59003,-3.22352 c 0.53744,-0.52602 -0.58756,-0.42737 -2.5,0.21922 -4.477731,1.51392 -5.346941,2.36633 -1.47717,1.44863 1.65,-0.39129 3.43972,-1.14182 3.97717,-1.66785 z m 10.52282,-1.90206 c 0,-0.55 -0.19844,-1 -0.44098,-1 -0.24254,0 -0.7191,0.45 -1.05902,1 -0.33992,0.55 -0.14147,1 0.44099,1 0.58246,0 1.05901,-0.45 1.05901,-1 z m 16.3455,0.25 c 0.25493,-0.4125 -2.15054,-0.75 -5.3455,-0.75 -3.19496,0 -5.60043,0.3375 -5.34549,0.75 0.25494,0.4125 2.66041,0.75 5.34549,0.75 2.68508,0 5.09056,-0.3375 5.3455,-0.75 z m 8.6545,0.36663 c 0,-0.21085 -0.90062,-0.61888 -2.00138,-0.90674 -1.10076,-0.28785 -1.7492,-0.11534 -1.44098,0.38337 0.53825,0.87091 3.44236,1.31244 3.44236,0.52337 z m 37.91245,106.10335 c -4.24887,-2.86331 -5.87891,-6.04233 -5.89771,-11.5021 -0.0184,-5.34802 2.05451,-10.44817 5.12963,-12.62078 1.29559,-0.91536 6.1653,-2.83104 10.82156,-4.25707 10.19293,-3.1217 11.63198,-3.95509 13.14759,-7.6141 1.59151,-3.84224 -0.32042,-10.16016 -3.75586,-12.41115 -3.336,-2.18583 -5.17754,-1.04235 -8.09795,5.02832 l -2.24028,4.6569 -5.30972,0 c -6.39074,0 -7.70971,-1.1164 -7.70971,-6.52569 0,-7.57949 5.54551,-10.47431 20.06526,-10.47431 9.85165,0 16.54257,1.8829 20.05824,5.64462 2.33022,2.49329 2.37067,2.86156 2.07716,18.90901 -0.30851,16.86815 0.70791,24.44637 3.27887,24.44637 0.77134,0 1.68055,-0.45 2.02047,-1 0.33992,-0.55 2.16648,-1 4.05902,-1 3.09484,0 3.43778,0.27663 3.40918,2.75 -0.0655,5.65975 -4.4367,8.25 -13.92252,8.25 -4.21609,0 -6.46695,-0.52054 -8.15243,-1.88535 -2.28111,-1.84714 -2.39961,-1.84714 -5.84597,0 -5.40308,2.89587 -18.58571,2.67099 -23.13483,-0.39467 z m 18.23831,-5.80066 c 2.88143,-1.5421 5.80158,-8.61928 5.82728,-14.12281 l 0.022,-4.70349 -3.25,1.70349 c -8.88825,4.65878 -12.29312,11.65738 -8.00476,16.45349 1.82231,2.03807 2.65526,2.14121 5.40552,0.66932 z m -18.48848,-12.16932 c -0.27741,-0.6875 -0.50439,-0.125 -0.50439,1.25 0,1.375 0.22698,1.9375 0.50439,1.25 0.27741,-0.6875 0.27741,-1.8125 0,-2.5 z m 0.58247,-27.25 c 0.26285,-1.375 0.0903,-2.5 -0.38342,-2.5 -0.47373,0 -0.86133,1.125 -0.86133,2.5 0,1.375 0.17254,2.5 0.38342,2.5 0.21089,0 0.59848,-1.125 0.86133,-2.5 z"
       style="fill:#000000" />
  </g>
</svg>
