<?xml version="1.0" encoding="UTF-8" standalone="no"?>
<!-- Created with Inkscape (http://www.inkscape.org/) -->

<svg
   xmlns:dc="http://purl.org/dc/elements/1.1/"
   xmlns:cc="http://creativecommons.org/ns#"
   xmlns:rdf="http://www.w3.org/1999/02/22-rdf-syntax-ns#"
   xmlns:svg="http://www.w3.org/2000/svg"
   xmlns="http://www.w3.org/2000/svg"
   xmlns:sodipodi="http://sodipodi.sourceforge.net/DTD/sodipodi-0.dtd"
   xmlns:inkscape="http://www.inkscape.org/namespaces/inkscape"
   width="187mm"
   height="95mm"
   viewBox="0 0 662.59824 336.61398"
   id="svg2"
   version="1.1"
   inkscape:version="0.91 r13725"
   sodipodi:docname="tvlogo-whiteout2.svg">
  <defs
     id="defs4" />
  <sodipodi:namedview
     id="base"
     pagecolor="#ffffff"
     bordercolor="#666666"
     borderopacity="1.0"
     inkscape:pageopacity="0.0"
     inkscape:pageshadow="2"
     inkscape:zoom="1.615981"
     inkscape:cx="220"
     inkscape:cy="121.42857"
     inkscape:document-units="px"
     inkscape:current-layer="layer1"
     showgrid="false"
     inkscape:window-width="1920"
     inkscape:window-height="1017"
     inkscape:window-x="-8"
     inkscape:window-y="-8"
     inkscape:window-maximized="1"
     showguides="false"
     height="211mm" />
  <metadata
     id="metadata7">
    <rdf:RDF>
      <cc:Work
         rdf:about="">
        <dc:format>image/svg+xml</dc:format>
        <dc:type
           rdf:resource="http://purl.org/dc/dcmitype/StillImage" />
        <dc:title></dc:title>
      </cc:Work>
    </rdf:RDF>
  </metadata>
  <g
     inkscape:label="Layer 1"
     inkscape:groupmode="layer"
     id="layer1"
     transform="translate(0,-715.74837)">
    <path
       style="fill:#000000"
       d="m 434.32883,1003.7142 c -0.73207,-1.979 -1.53216,-2.2227 -7.38669,-2.25 -9.29576,-0.043 -10.82713,-1.68841 -13.30539,-14.29267 -1.1417,-5.8066 -2.62021,-10.43575 -3.66763,-11.48317 -0.96516,-0.96516 -1.75484,-2.13599 -1.75484,-2.60183 0,-0.46584 -0.9,-1.8847 -2,-3.15301 -1.1,-1.26831 -2,-3.1148 -2,-4.10332 0,-0.98851 -0.61863,-2.15716 -1.37473,-2.59699 -1.50826,-0.87737 -2.87476,-10.47162 -2.74013,-19.23857 0.0647,-4.21458 -0.52402,-6.46558 -2.61549,-10 -1.79719,-3.03711 -2.97846,-6.90003 -3.53536,-11.56112 -1.20614,-10.0952 -1.55772,-23.82987 -0.64073,-25.03054 0.43288,-0.5668 -0.12141,-5.0668 -1.23176,-10 -3.77299,-16.76306 -1.28707,-21.19092 13.47204,-23.99604 10.3477,-1.96668 14.26906,-3.37561 17.17633,-6.17139 2.43542,-2.34201 16.42192,-5.30391 25.04056,-5.30281 l 6.05074,7.8e-4 2.16812,-4.46264 c 1.19247,-2.45446 3.74228,-6.20506 5.66626,-8.33467 l 3.49814,-3.87202 -23.66152,-9.41533 c -19.30754,-7.68282 -24.43848,-9.35406 -27.88395,-9.0823 -3.24028,0.25558 -4.70696,-0.15148 -6.30548,-1.75 -2.69558,-2.69558 -2.83787,-9.08995 -0.2543,-11.42805 3.27756,-2.96615 13.17126,-1.6321 13.17126,1.776 0,0.8481 10.45298,5.5425 27.75,12.46243 l 27.75,11.10181 6,-1.9379 c 3.3,-1.06585 7.18865,-2.18609 8.64144,-2.48942 1.76,-0.36748 3.28255,-1.80563 4.56264,-4.30971 1.05666,-2.06701 8.97295,-15.34975 17.59177,-29.5172 8.61881,-14.16745 15.9397,-26.99245 16.26864,-28.5 1.6195,-7.42219 2.35493,-8.24099 7.40184,-8.24099 5.38712,0 8.03367,2.06344 8.03367,6.26364 0,4.46958 -1.71424,7.44109 -4.94178,8.56621 -1.69653,0.59141 -3.38271,1.88414 -3.74706,2.87272 -0.6782,1.84009 -8.28365,14.39568 -9.2663,15.29742 -0.29967,0.275 -1.44486,2.17168 -2.54486,4.21484 -3.00905,5.58907 -13.68549,23.21372 -14.40828,23.78516 -0.34784,0.275 -1.28383,1.85 -2.07999,3.5 -0.79615,1.65 -1.58983,3.271 -1.76371,3.60222 -0.17389,0.33121 2.54137,0.86905 6.03391,1.19519 6.72062,0.62758 17.71807,4.21172 17.71807,5.77444 0,0.51048 0.59656,0.92815 1.32569,0.92815 0.72912,0 2.39699,1.14036 3.70637,2.53413 1.90596,2.0288 2.98762,2.41081 5.42432,1.91571 1.67399,-0.34013 12.39677,-2.66065 23.82839,-5.15671 20.75777,-4.53239 20.79059,-4.53606 25.27129,-2.82487 5.0119,1.91406 6.8172,4.54476 7.91357,11.53174 0.38836,2.475 5.84158,28.37581 12.11824,57.55737 6.27667,29.18155 11.41213,54.4275 11.41213,56.10211 0,1.67462 -1.02568,4.5738 -2.2793,6.44264 -1.82754,2.72443 -3.41312,3.68633 -8,4.85325 -5.46012,1.38909 -5.7207,1.60058 -5.7207,4.64302 0,3.67256 -1.23783,4.40161 -7.47338,4.40161 -3.78867,0 -4.3874,-0.30916 -4.95152,-2.55681 -0.45349,-1.80683 -1.14528,-2.4124 -2.35841,-2.06447 -0.94418,0.27079 -12.51669,2.79611 -25.71669,5.61183 -13.2,2.81572 -26.925,5.79234 -30.5,6.61472 -3.575,0.82238 -7.5125,1.7062 -8.75,1.96404 -1.2375,0.25783 -2.25,1.13522 -2.25,1.94974 0,0.8994 -0.949,1.48095 -2.41667,1.48095 -1.32916,0 -2.56666,0.43386 -2.75,0.96414 -0.32313,0.93462 -9.23443,1.98989 -21.14256,2.50368 -3.19508,0.13785 -6.32258,0.76399 -6.95,1.39141 -0.62742,0.62742 -2.2179,1.14077 -3.53439,1.14077 -1.55262,0 -2.57738,0.7027 -2.91663,2 -0.33177,1.2687 -1.36402,2 -2.82305,2 -1.26502,0 -2.45003,0.43386 -2.63337,0.96414 -0.18333,0.53028 -3.70833,1.26326 -7.83333,1.62886 -6.64933,0.58933 -9.83414,0.79871 -19.5,1.282 -1.95667,0.0978 -2.5,0.66068 -2.5,2.58978 0,3.0628 -2.58653,4.5352 -7.96648,4.5352 -3.3197,0 -4.25389,-0.4215 -4.91897,-2.2193 z m 10.38545,-26.31836 c 9.4335,-1.51955 107.01623,-22.66823 108.66459,-23.5504 0.99809,-0.53417 2.45174,-2.20309 3.23033,-3.70873 1.30123,-2.51629 0.65832,-6.2514 -7.9558,-46.22035 -8.55667,-39.70245 -9.59656,-43.67845 -11.96103,-45.73284 -1.42429,-1.2375 -3.57702,-2.24908 -4.78385,-2.24795 -1.92733,0.002 -31.28509,6.2106 -83.19424,17.59454 -8.8,1.92988 -18.475,3.97628 -21.5,4.54756 -14.70673,2.77738 -16.8204,4.4593 -15.07401,11.99493 0.55586,2.3985 2.61483,11.78592 4.57548,20.86092 1.96066,9.075 5.30629,23.925 7.43473,33 2.12844,9.075 4.16106,18.3 4.51693,20.5 1.20622,7.45688 2.68831,10.61541 5.89661,12.5665 1.72896,1.05144 3.82007,1.7156 4.64691,1.47592 0.82684,-0.23968 3.30335,-0.72573 5.50335,-1.0801 z m 1.5,-43.96232 0,-28.5 -7.375,0 c -4.05625,0 -8.78125,-0.28125 -10.5,-0.625 -3.07447,-0.61489 -3.125,-0.72 -3.125,-6.5 l 0,-5.875 22.84444,0 c 12.56444,0 27.63397,-0.29305 33.48784,-0.65122 l 10.6434,-0.65123 1.51216,3.61911 c 0.83169,1.99051 1.51216,4.61276 1.51216,5.82723 0,2.37082 8.52205,25.62116 11.93357,32.5578 1.13653,2.31094 2.06643,4.67344 2.06643,5.25 0,0.57657 0.38503,1.04831 0.85561,1.04831 0.90554,0 17.14439,-43.07363 17.14439,-45.47556 0,-2.338 1.85066,-2.77343 8.67951,-2.04212 6.38967,0.68428 6.51093,0.75189 6.02228,3.35801 -0.27428,1.46282 -5.00643,14.13467 -10.51589,28.15967 -5.50946,14.025 -11.01546,28.3125 -12.23554,31.75 l -2.21834,6.25 -6.68876,0 -6.68875,0 -2.13747,-4.27987 c -1.79948,-3.60311 -10.82119,-26.41025 -18.38196,-46.47013 l -1.97878,-5.25 -10.42815,0 -10.42815,0 -0.11071,9.25 c -0.0609,5.0875 -0.0177,17.9125 0.0961,28.5 l 0.20678,19.25 -7.09607,0 -7.09607,0 0,-28.5 z m -217,56.71506 c 0,-0.98172 1.5442,-5.59422 3.43155,-10.25 6.82461,-16.83518 17.06261,-52.63793 30.65795,-107.21223 l 7.4105,-29.74716 7.75,-0.003 c 9.11279,-0.003 8.68519,-1.04959 5.80202,14.19641 -4.95291,26.19056 -5.26119,42.92216 -1.03698,56.28032 l 2.20713,6.97957 2.37586,-2.97957 c 3.59668,-4.51059 14.20166,-25.54033 16.94075,-33.59358 1.33225,-3.91696 2.98037,-10.6687 3.66251,-15.00386 l 1.24024,-7.88216 7.02924,0.0136 c 9.55386,0.0186 11.52923,0.6494 11.52923,3.68187 0,1.35424 -2.27395,8.53016 -5.05321,15.94648 -6.35652,16.962 -9.44927,29.32821 -11.46896,45.858 -2.75721,22.56583 -0.0759,39.70742 7.39088,47.24915 5.53216,5.58773 9.38491,7.00346 13.45299,4.94344 6.13783,-3.10812 9.05156,-5.2411 14.59023,-10.68073 l 5.58807,-5.48814 -10,-0.58414 c -18.97907,-1.10864 -27.04353,-8.52058 -28.23841,-25.95357 -0.44411,-6.4794 -0.16363,-8.42536 1.97897,-13.7299 2.6094,-6.46021 7.37001,-13.06034 9.50944,-13.18391 0.6875,-0.0397 1.25,-0.51616 1.25,-1.05878 0,-2.17293 7.36351,-4.01342 16.05702,-4.01342 9.88038,0 13.16019,0.91353 17.28226,4.81362 4.14221,3.91916 5.66072,7.44312 5.66072,13.13672 l 0,5.04966 -18.11354,0 -18.11355,0 0.69619,4.75 c 0.79073,5.39505 3.78122,12.76345 6.31909,15.56987 2.46342,2.72409 8.6732,5.68074 11.92197,5.67639 3.80618,-0.005 8.86303,-3.27022 10.76697,-6.95204 1.29595,-2.50609 2.18839,-3.04422 5.04855,-3.04422 3.10288,0 3.47432,0.28698 3.47432,2.68428 0,4.0782 -3.81722,11.09468 -7.0866,13.02595 -1.9215,1.13505 -2.9134,2.5324 -2.9134,4.10425 0,6.28022 -10.30673,19.02241 -18.45609,22.81724 -7.31769,3.40755 -17.85129,3.32017 -24.89868,-0.20653 -6.26288,-3.13412 -8.80771,-5.43311 -12.58309,-11.36751 -6.11557,-9.61288 -6.85087,-16.23412 -4.4446,-40.02282 l 0.65397,-6.46514 -3.50383,3.71514 c -4.01861,4.26096 -8.45951,4.90427 -14.39892,2.08584 -4.05356,-1.92354 -9.62284,-9.89164 -11.44225,-16.3707 -1.71109,-6.09331 -2.55585,-6.78931 -3.31686,-2.73278 -0.35253,1.87914 -2.21523,8.77525 -4.13934,15.3247 -1.9241,6.54944 -4.18007,14.34249 -5.01326,17.31789 -0.83318,2.97539 -2.12206,6.80039 -2.86416,8.5 -0.74211,1.6996 -2.14636,5.34019 -3.12057,8.09019 -2.00301,5.65409 -8.76955,19.76717 -10.41152,21.71547 -0.59541,0.70649 -2.01033,2.52203 -3.14426,4.03453 -2.47182,3.2971 -7.91654,3.96083 -7.91654,0.96511 z m -40.25,-7.29516 c -2.22081,-1.2935 -2.35209,-7.46067 -0.20453,-9.60823 1.16798,-1.16798 3.03119,-1.43801 7.62798,-1.1055 l 6.08251,0.43996 2.36225,-5.07306 c 1.29924,-2.79019 2.36665,-6.21384 2.37202,-7.60812 0.008,-2.03281 -5.36056,-15.90899 -17.70043,-45.75194 -0.29269,-0.70784 -1.82763,-1.95689 -3.41098,-2.77568 -1.995,-1.03165 -2.87882,-2.24832 -2.87882,-3.96301 l 0,-2.47432 15,0 15,0 0,3 c 0,2.49757 -0.40078,3 -2.39301,3 -1.31616,0 -2.6552,0.68326 -2.97566,1.51835 -0.44674,1.1642 7.51517,24.96148 8.77189,26.2182 0.2731,0.27311 7.8993,-18.64866 9.02047,-22.38118 0.70183,-2.33649 -1.55026,-5.35537 -3.99512,-5.35537 -0.92063,0 -1.42857,-1.06667 -1.42857,-3 l 0,-3 11.5,0 11.5,0 0,2.89159 c 0,2.24646 -0.55495,3.03088 -2.48735,3.51588 -1.36804,0.34336 -3.21689,1.7377 -4.10855,3.09855 -1.70099,2.59604 -11.81075,26.43879 -21.0787,49.71177 -3.19194,8.01538 -6.64026,14.97826 -8.29531,16.75 -2.62817,2.81346 -3.32659,3.03002 -9.6813,3.0018 -3.76683,-0.0167 -7.63629,-0.48908 -8.59879,-1.04969 z M 61.549264,974.36405 c -0.33125,-0.8632 -0.34966,-8.1757 -0.0409,-16.25 0.50942,-13.32259 1.95411,-22.56934 6.39492,-40.93053 0.52766,-2.18172 0.30545,-2.25359 -7.3224,-2.36831 -11.413431,-0.17166 -13.803401,-0.84745 -14.170496,-4.00686 -0.294186,-2.5319 -0.06473,-2.65124 7.164735,-3.72649 4.10777,-0.61096 9.923621,-1.39936 12.924131,-1.75201 l 5.45547,-0.64118 3.68978,-10.12758 c 2.02939,-5.57016 6.69347,-16.20257 10.36463,-23.62757 3.67116,-7.425 6.85491,-13.90724 7.075,-14.40498 0.23282,-0.52654 -3.52434,-0.66437 -8.98483,-0.3296 -21.98764,1.34801 -40.494427,12.18625 -42.528427,24.90619 -0.560828,3.50723 -0.879043,3.82839 -3.793247,3.82839 -4.673121,0 -6.692284,-1.96453 -7.267885,-7.07125 -1.582869,-14.04318 8.032873,-23.30163 30.204569,-29.08226 8.07214,-2.10458 11.16499,-2.34517 29.99999,-2.3337 17.335916,0.0106 22.221356,0.33952 27.999996,1.88534 7.89026,2.11071 16.29311,5.59421 18.5655,7.69657 0.83543,0.77292 2.39996,1.89788 3.47673,2.49993 3.01357,1.68495 8.25996,9.0319 9.41216,13.18063 2.69517,9.70444 0.27618,20.32861 -5.79094,25.43375 -4.53271,3.81403 -14.77848,8.3948 -24.09973,10.77472 -9.02463,2.30419 -26.394896,4.96971 -32.569906,4.99795 l -4.00619,0.0183 -7.1974,25.75 c -3.95857,14.1625 -7.48257,27.55 -7.83112,29.75 -0.34855,2.2 -0.84976,4.7875 -1.1138,5.75 -0.6059,2.20867 -5.17934,2.34605 -6.01032,0.18053 z m 4.15795,-2.41908 c 0.35034,-0.56686 -0.0511,-0.7345 -0.94099,-0.39301 -1.73241,0.66479 -2.04938,1.38156 -0.61095,1.38156 0.51754,0 1.21591,-0.44485 1.55194,-0.98855 z m 0.50708,-2.6191 c 0,-0.82763 -1.94173,-1.29565 -2.38692,-0.57533 -0.28881,0.46731 0.1301,0.84965 0.9309,0.84965 0.80081,0 1.45602,-0.12345 1.45602,-0.27432 z m 0.6744,-5.52941 c -0.2749,-1.05124 -0.0563,-3.51765 0.48578,-5.48091 0.54208,-1.96327 0.76944,-3.78574 0.50523,-4.04995 -0.76233,-0.76233 -3.80857,10.62727 -3.13419,11.71844 0.99315,1.60695 2.68412,-0.11904 2.14318,-2.18758 z m -2.32933,-8.40607 c -0.32568,-0.84872 -0.80662,-1.32866 -1.06875,-1.06653 -0.26213,0.26213 -0.17998,0.95654 0.18256,1.54313 0.98605,1.59546 1.56238,1.28551 0.88619,-0.4766 z m 6.34792,-9.18784 c -0.25355,-0.97297 -0.47767,-0.41903 -0.49805,1.23097 -0.0204,1.65 0.18707,2.44606 0.46099,1.76903 0.27393,-0.67703 0.2906,-2.02703 0.0371,-3 z m -3.41286,-11.3058 c -0.69762,-2.66771 -0.97767,-2.47739 -1.48988,1.01252 -0.33151,2.25871 -0.14277,2.73178 0.78326,1.96324 0.67101,-0.55689 0.98899,-1.89598 0.70662,-2.97576 z m 5.71986,2.53677 c 0,-0.825 -0.17685,-1.5 -0.39301,-1.5 -0.21615,0 -0.65203,0.675 -0.96861,1.5 -0.31659,0.825 -0.13973,1.5 0.39301,1.5 0.53274,0 0.96861,-0.675 0.96861,-1.5 z m -3.7514,-7.65737 c -0.34537,-1.3207 -0.17133,-1.91291 0.44943,-1.52926 0.62756,0.38785 0.82259,-0.37026 0.51253,-1.99226 -0.37665,-1.97034 -0.17892,-2.41959 0.79897,-1.81523 0.85687,0.52958 1.05646,0.4099 0.58596,-0.35137 -0.39243,-0.63498 -0.37845,-1.69666 0.0311,-2.35928 0.40953,-0.66263 0.86006,-2.57513 1.00118,-4.25 0.25253,-2.99714 0.24,-3.00575 -0.79356,-0.54523 -0.57758,1.375 -1.69544,3.7264 -2.48412,5.22533 -1.42036,2.69946 -1.62667,11.06367 -0.25194,10.21404 0.39277,-0.24275 0.46049,-1.41128 0.15049,-2.59674 z m 7.19115,-4.34263 c 0.6293,-3.57015 0.555,-3.79908 -0.69141,-2.13036 -1.15274,1.54333 -1.41675,3.62162 -0.83167,6.54703 0.22303,1.11516 0.88779,-0.8125 1.52308,-4.41667 z m -19.939741,-14.5 c -0.33992,-0.55 -1.04148,-1 -1.55902,-1 -0.51754,0 -0.94098,0.45 -0.94098,1 0,0.55 0.70155,1 1.55901,1 0.85746,0 1.2809,-0.45 0.94099,-1 z m 34.957291,-2.0691 c -0.31643,-0.51199 -1.47533,-0.9309 -2.57533,-0.9309 -1.1,0 -1.73403,0.43035 -1.40896,0.95633 0.32507,0.52598 1.32545,0.6745 2.22306,0.33006 1.17858,-0.45226 1.40459,-0.25828 0.81347,0.69818 -0.5487,0.88782 -0.43257,1.0859 0.35227,0.60084 0.64395,-0.39798 0.91192,-1.14251 0.59549,-1.65451 z m 8.985066,-0.83764 c 0.30821,-0.49871 -0.34023,-0.67122 -1.440986,-0.38337 -2.33498,0.61061 -2.63014,1.29011 -0.56039,1.29011 0.79254,0 1.693156,-0.40803 2.001376,-0.90674 z m 7,-1 c 0.30821,-0.49871 -0.34023,-0.67122 -1.44099,-0.38337 -2.33498,0.61061 -2.63014,1.29011 -0.56039,1.29011 0.79254,0 1.69316,-0.40803 2.00138,-0.90674 z m 7.95076,-1.5438 c 1.04122,-0.3281 1.69334,-0.79633 1.44915,-1.04052 -0.77369,-0.77369 -7.79055,1.76574 -7.25836,2.62684 0.27984,0.45279 1.27544,0.41533 2.21244,-0.0833 0.93701,-0.49859 2.55555,-1.17497 3.59677,-1.50306 z m -18.049956,-1.79616 c 3.179896,-0.0103 3.576576,-0.16807 1.68787,-0.67116 -2.02798,-0.54019 -1.40286,-0.88556 3.499996,-1.93364 6.93683,-1.4829 16.39755,-4.35536 11.96896,-3.63402 -9.90608,1.61353 -13.96504,2.57103 -16.715566,3.94317 -1.70044,0.84829 -3.67101,1.54235 -4.37905,1.54235 -0.70804,0 -1.60843,0.51953 -2.00087,1.15451 -0.46109,0.74606 -0.27212,0.8817 0.53415,0.3834 0.68623,-0.42411 3.11825,-0.77718 5.40451,-0.78461 z m 24.385996,-0.35747 c -0.33229,-0.33229 -1.19479,-0.36781 -1.91667,-0.0789 -0.79773,0.31922 -0.56077,0.55618 0.60417,0.60416 1.05417,0.0434 1.64479,-0.19293 1.3125,-0.52522 z m -42.799816,-4.623 c 0.61875,-1.77495 0.71335,-2.78745 0.21022,-2.25 -1.066,1.13871 -2.49557,5.47717 -1.80478,5.47717 0.25826,0 0.97581,-1.45223 1.59456,-3.22717 z m 47.799816,2.623 c -0.3323,-0.33229 -1.1948,-0.36781 -1.91667,-0.0789 -0.79773,0.31922 -0.56078,0.55618 0.60417,0.60416 1.05416,0.0434 1.64479,-0.19293 1.3125,-0.52522 z m -21.7977,-5.08704 c 19.8129,-5.93726 33.06853,-13.9044 33.06853,-19.87546 0,-6.47064 -17.49676,-16.02771 -34.53753,-18.86507 l -4.037526,-0.67226 -1.2038,7.01998 c -0.66208,3.86098 -3.23269,13.18562 -5.71246,20.7214 -2.47977,7.53578 -4.50868,14.30877 -4.50868,15.05107 0,1.60089 0.93196,1.41486 16.931466,-3.37966 z m 17.56853,-1.30879 c 0.33992,-0.55 0.14148,-1 -0.44098,-1 -0.58246,0 -1.05902,0.45 -1.05902,1 0,0.55 0.19844,1 0.44099,1 0.24254,0 0.71909,-0.45 1.05901,-1 z M 89.056634,884.30953 c 1.23366,-4.19319 2.08925,-7.77775 1.90131,-7.96569 -0.18794,-0.18794 -1.51684,3.24286 -2.95312,7.62399 -1.43628,4.38113 -2.29187,7.96569 -1.90131,7.96569 0.39056,0 1.71946,-3.43079 2.95312,-7.62399 z m 43.157646,6.62399 c 0,-0.55 -0.19844,-1 -0.44098,-1 -0.24254,0 -0.7191,0.45 -1.05902,1 -0.33992,0.55 -0.14148,1 0.44098,1 0.58246,0 1.05902,-0.45 1.05902,-1 z m 6.88693,-4.56988 c 1.41549,0.87482 2.36604,-1.15568 1.37229,-2.93141 -0.6954,-1.2426 -1.47425,-0.85803 -4.30413,2.12522 -3.03499,3.19948 -3.12607,3.43329 -0.74907,1.92301 1.48832,-0.94563 3.14472,-1.4482 3.68091,-1.11682 z M 38.671584,882.00262 c 0.316431,-0.512 0.117988,-1.21356 -0.440983,-1.55902 -0.558972,-0.34546 -1.016312,-0.125 -1.016312,0.48992 0,0.61492 -0.45,0.83992 -1,0.5 -0.55,-0.33992 -1,-1.46492 -1,-2.5 0,-1.03508 -0.408034,-2.13414 -0.906741,-2.44236 -1.114841,-0.68901 -0.17512,3.46854 1.173618,5.19236 1.160214,1.48287 2.394848,1.60636 3.190418,0.3191 z m 51.09544,-9.24807 c 0.521,-0.92343 1.34822,-1.59843 1.83828,-1.5 0.49005,0.0984 1.20761,-0.49603 1.59457,-1.32103 0.38696,-0.825 1.21429,-2.49164 1.83851,-3.70364 1.68087,-3.26362 -0.19245,-3.64228 -2.50877,-0.50709 -2.53512,3.43133 -6.32915,11.95404 -6.27143,14.08785 0.0241,0.89258 0.61037,0.0479 1.30274,-1.87712 0.69236,-1.925 1.68511,-4.25554 2.2061,-5.17897 z m 1.46258,-2.51201 c 0.008,-0.44496 0.45153,-1.48402 0.98468,-2.30902 0.8354,-1.29269 0.97149,-1.26629 0.98469,0.19098 0.008,0.93004 -0.43469,1.9691 -0.98469,2.30902 -0.55,0.33992 -0.99311,0.25398 -0.98468,-0.19098 z m -56.131316,0.31854 c -0.11018,-2.02079 -0.140674,-2.02719 -0.607609,-0.12756 -0.270384,1.1 -1.005683,2.675 -1.633998,3.5 -0.993551,1.30457 -0.914387,1.32119 0.607608,0.12756 0.9625,-0.75485 1.697799,-2.32985 1.633999,-3.5 z m 106.497552,-2.1795 c 0.34149,-0.88992 0.17385,-1.29132 -0.39301,-0.94098 -0.5437,0.33602 -0.98855,1.0344 -0.98855,1.55194 0,1.43843 0.71677,1.12146 1.38156,-0.61096 z m -90.410507,-5.409 c 2.3806,-1.50554 0.75675,-1.82359 -1.97104,-0.38604 -1.377946,0.72617 -1.826769,1.31724 -1.000004,1.31693 0.825004,-3.2e-4 2.161964,-0.41922 2.971044,-0.93089 z m -8.540332,-2.94168 c -0.263082,-0.26308 -1.255117,0.33267 -2.204522,1.3239 -1.649287,1.72194 -1.627977,1.74325 0.478332,0.47833 1.212486,-0.72815 1.989272,-1.53915 1.72619,-1.80223 z m 87.462439,0.46245 c -0.24209,-0.2421 -3.95696,-1.55696 -8.25525,-2.92193 -9.11985,-2.89609 -9.35179,-2.14109 -0.31766,1.03402 5.83175,2.04962 9.55442,2.86942 8.57291,1.88791 z m 3.17405,-2.43425 c -0.55174,-1.03093 -3.38007,-2.63107 -6.28519,-3.55586 -2.90511,-0.92479 -6.70234,-2.3324 -8.4383,-3.12802 -2.14693,-0.98398 -3.90578,-1.1633 -5.5,-0.56073 -2.03388,0.76875 -1.83475,0.88805 1.50628,0.90244 2.1175,0.009 4.345,0.51159 4.95,1.11659 0.605,0.605 1.92413,1.1 2.93139,1.1 1.00726,0 2.07132,0.62527 2.36458,1.38949 0.3089,0.80499 1.34958,1.176 2.47394,0.88198 2.14534,-0.56102 5.22327,1.44514 4.36006,2.84184 -0.3014,0.48768 0.16939,0.88669 1.0462,0.88669 1.24872,0 1.3768,-0.40621 0.59104,-1.87442 z m -66.590026,-3.22352 c 0.53744,-0.52602 -0.58756,-0.42737 -2.5,0.21922 -4.477731,1.51392 -5.346941,2.36633 -1.47717,1.44863 1.65,-0.39129 3.43972,-1.14182 3.97717,-1.66785 z m 10.52282,-1.90206 c 0,-0.55 -0.19844,-1 -0.44098,-1 -0.24254,0 -0.7191,0.45 -1.05902,1 -0.33992,0.55 -0.14147,1 0.44099,1 0.58246,0 1.05901,-0.45 1.05901,-1 z m 16.3455,0.25 c 0.25493,-0.4125 -2.15054,-0.75 -5.3455,-0.75 -3.19496,0 -5.60043,0.3375 -5.34549,0.75 0.25494,0.4125 2.66041,0.75 5.34549,0.75 2.68508,0 5.09056,-0.3375 5.3455,-0.75 z m 8.654496,0.36663 c 0,-0.21085 -0.90062,-0.61888 -2.00138,-0.90674 -1.100756,-0.28785 -1.749196,-0.11534 -1.440976,0.38337 0.53825,0.87091 3.442356,1.31244 3.442356,0.52337 z m 37.91245,106.10335 c -4.24887,-2.86331 -5.87891,-6.04233 -5.89771,-11.5021 -0.0184,-5.34802 2.05451,-10.44817 5.12963,-12.62078 1.29559,-0.91536 6.1653,-2.83104 10.82156,-4.25707 10.19293,-3.1217 11.63198,-3.95509 13.14759,-7.6141 1.59151,-3.84224 -0.32042,-10.16016 -3.75586,-12.41115 -3.336,-2.18583 -5.17754,-1.04235 -8.09795,5.02832 l -2.24028,4.6569 -5.30972,0 c -6.39074,0 -7.70971,-1.1164 -7.70971,-6.52569 0,-7.57949 5.54551,-10.47431 20.06526,-10.47431 9.85165,0 16.54257,1.8829 20.05824,5.64462 2.33022,2.49329 2.37067,2.86156 2.07716,18.90901 -0.30851,16.86815 0.70791,24.44637 3.27887,24.44637 0.77134,0 1.68055,-0.45 2.02047,-1 0.33992,-0.55 2.16648,-1 4.05902,-1 3.09484,0 3.43778,0.27663 3.40918,2.75 -0.0655,5.65975 -4.4367,8.25 -13.92252,8.25 -4.21609,0 -6.46695,-0.52054 -8.15243,-1.88535 -2.28111,-1.84714 -2.39961,-1.84714 -5.84597,0 -5.40308,2.89587 -18.58571,2.67099 -23.13483,-0.39467 z m 18.23831,-5.80066 c 2.88143,-1.5421 5.80158,-8.61928 5.82728,-14.12281 l 0.022,-4.70349 -3.25,1.70349 c -8.88825,4.65878 -12.29312,11.65738 -8.00476,16.45349 1.82231,2.03807 2.65526,2.14121 5.40552,0.66932 z m -18.48848,-12.16932 c -0.27741,-0.6875 -0.50439,-0.125 -0.50439,1.25 0,1.375 0.22698,1.9375 0.50439,1.25 0.27741,-0.6875 0.27741,-1.8125 0,-2.5 z m 0.58247,-27.25 c 0.26285,-1.375 0.0903,-2.5 -0.38342,-2.5 -0.47373,0 -0.86133,1.125 -0.86133,2.5 0,1.375 0.17254,2.5 0.38342,2.5 0.21089,0 0.59848,-1.125 0.86133,-2.5 z"
       id="path3373"
       inkscape:connector-curvature="0" />
    <path
       style="fill:#000000"
       d="m 435.85714,286.89989 c -0.97119,-1.57143 -4.93178,-2.85715 -8.8013,-2.85715 -5.01559,0 -7.92932,-2.2558 -10.14877,-7.85714 -1.7123,-4.32143 -5.56218,-13.64286 -8.5553,-20.71428 -7.14088,-16.87084 -10.78613,-35.1646 -13.92413,-69.87862 -1.66013,-18.36512 -1.5733,-29.65312 0.24495,-31.84398 1.54919,-1.86666 7.59234,-4.28634 13.42921,-5.37706 5.83687,-1.09072 12.19563,-3.29129 14.13058,-4.89017 1.93496,-1.59888 10.02837,-3.73383 17.98537,-4.74433 12.22532,-1.55256 15.36432,-3.25718 20.256,-10.99996 l 5.78875,-9.16268 -10.91696,-4.59098 c -6.00433,-2.52503 -18.63125,-7.18172 -28.05983,-10.34819 -20.16887,-6.773471 -23.94443,-9.648174 -19.07154,-14.52106 2.76175,-2.761751 4.84064,-2.661462 9.85714,0.475518 3.4965,2.186468 17.73978,8.743257 31.65176,14.570642 37.00537,15.50064 39.28016,14.43723 65.11639,-30.44042 13.94736,-24.226635 21.38122,-34.524531 24.15441,-33.46036 5.49287,2.107812 5.02307,7.356682 -1.13001,12.625112 -7.76525,6.648816 -32.70956,50.566398 -30.63096,53.929648 1.00024,1.61843 4.6356,2.95107 8.07858,2.96143 3.44297,0.0103 9.86807,2.39783 14.27799,5.30551 7.71845,5.08915 8.91849,5.10269 32.11783,0.36218 18.01281,-3.6807 25.17081,-4.11868 28.34019,-1.73408 4.73799,3.5648 28.01722,109.95817 26.64191,121.76185 -0.48301,4.14545 -3.52992,8.32638 -7.26083,9.96322 -3.53571,1.5512 -6.42857,4.44406 -6.42857,6.42857 0,4.23966 -6.24682,4.78996 -10.14323,0.89355 -2.71643,-2.71643 -62.17433,8.61027 -72.16223,13.74687 -2.66057,1.36828 -11.7938,3.37459 -20.29607,4.45846 -8.50226,1.08388 -18.10977,3.82759 -21.35001,6.09715 -3.24025,2.26955 -11.89629,4.12646 -19.23565,4.12646 -9.22592,0 -13.85186,1.32268 -14.98888,4.28572 -1.88402,4.90965 -6.37332,5.62488 -8.96679,1.42857 z m 52.36642,-33.02127 c 72.67586,-15.50768 69.07491,-14.20557 68.98734,-24.946 -0.11885,-14.57766 -16.20767,-82.39685 -20.58569,-86.77486 -3.3892,-3.3892 -12.72525,-2.07788 -63.77144,8.95725 -32.89054,7.11025 -60.13428,12.92773 -60.54166,12.92773 -4.17224,0 14.20253,89.62123 19.74366,96.29789 4.05845,4.89013 1.68927,5.1627 56.16779,-6.46201 z"
       id="path3375"
       inkscape:connector-curvature="0"
       transform="translate(0,715.74832)" />
    <path
       style="fill:#ffffff"
       d="m 435.85714,286.89989 c -0.97119,-1.57143 -4.93178,-2.85715 -8.8013,-2.85715 -5.01559,0 -7.92932,-2.2558 -10.14877,-7.85714 -1.7123,-4.32143 -5.56218,-13.64286 -8.5553,-20.71428 -7.14088,-16.87084 -10.78613,-35.1646 -13.92413,-69.87862 -1.66013,-18.36512 -1.5733,-29.65312 0.24495,-31.84398 1.54919,-1.86666 7.59234,-4.28634 13.42921,-5.37706 5.83687,-1.09072 12.19563,-3.29129 14.13058,-4.89017 1.93496,-1.59888 10.02837,-3.73383 17.98537,-4.74433 12.22532,-1.55256 15.36432,-3.25718 20.256,-10.99996 l 5.78875,-9.16268 -10.91696,-4.59098 c -6.00433,-2.52503 -18.63125,-7.18172 -28.05983,-10.34819 -20.16887,-6.773471 -23.94443,-9.648174 -19.07154,-14.52106 2.76175,-2.761751 4.84064,-2.661462 9.85714,0.475518 3.4965,2.186468 17.73978,8.743257 31.65176,14.570642 37.00537,15.50064 39.28016,14.43723 65.11639,-30.44042 13.94736,-24.226635 21.38122,-34.524531 24.15441,-33.46036 5.49287,2.107812 5.02307,7.356682 -1.13001,12.625112 -7.76525,6.648816 -32.70956,50.566398 -30.63096,53.929648 1.00024,1.61843 4.6356,2.95107 8.07858,2.96143 3.44297,0.0103 9.86807,2.39783 14.27799,5.30551 7.71845,5.08915 8.91849,5.10269 32.11783,0.36218 18.01281,-3.6807 25.17081,-4.11868 28.34019,-1.73408 4.73799,3.5648 28.01722,109.95817 26.64191,121.76185 -0.48301,4.14545 -3.52992,8.32638 -7.26083,9.96322 -3.53571,1.5512 -6.42857,4.44406 -6.42857,6.42857 0,4.23966 -6.24682,4.78996 -10.14323,0.89355 -2.71643,-2.71643 -62.17433,8.61027 -72.16223,13.74687 -2.66057,1.36828 -11.7938,3.37459 -20.29607,4.45846 -8.50226,1.08388 -18.10977,3.82759 -21.35001,6.09715 -3.24025,2.26955 -11.89629,4.12646 -19.23565,4.12646 -9.22592,0 -13.85186,1.32268 -14.98888,4.28572 -1.88402,4.90965 -6.37332,5.62488 -8.96679,1.42857 z m 52.36642,-33.02127 c 72.67586,-15.50768 69.07491,-14.20557 68.98734,-24.946 -0.11885,-14.57766 -16.20767,-82.39685 -20.58569,-86.77486 -3.3892,-3.3892 -12.72525,-2.07788 -63.77144,8.95725 -32.89054,7.11025 -60.13428,12.92773 -60.54166,12.92773 -4.17224,0 14.20253,89.62123 19.74366,96.29789 4.05845,4.89013 1.68927,5.1627 56.16779,-6.46201 z"
       id="path3377"
       inkscape:connector-curvature="0"
       transform="translate(0,715.74832)" />
    <path
       style="fill:#ffffff"
       d="m 448.10346,216.1856 -0.81775,-27.85714 -10.71428,-0.88676 c -7.00874,-0.58007 -10.71429,-2.30933 -10.71429,-5 0,-3.25214 5.00943,-4.11324 23.92857,-4.11324 13.16072,0 27.73305,-0.7609 32.38296,-1.69088 8.27212,-1.65442 8.5954,-1.26946 14.99575,17.85714 8.21642,24.55369 11.46639,30.80897 14.39789,27.71191 1.27526,-1.34728 5.82287,-12.41389 10.1058,-24.59246 7.98557,-22.70705 8.73818,-23.70169 14.95066,-19.75836 2.76997,1.75821 0.75947,9.78802 -8.57142,34.23383 -10.1781,26.66537 -13.18106,31.93819 -18.19323,31.94498 -4.95891,0.007 -7.93971,-4.96137 -17.13773,-28.5633 l -11.13471,-28.57143 -10.71941,0 -10.71941,0 0,28.57143 c 0,26.49104 -0.40855,28.57142 -5.61083,28.57142 -5.13677,0 -5.67991,-2.35359 -6.42857,-27.85714 z"
       id="path3379"
       inkscape:connector-curvature="0"
       transform="translate(0,715.74832)" />
    <path
       style="fill:#ffffff"
       d="m 231.59135,273.49708 c 0.011,-1.27131 3.18636,-11.64113 7.05645,-23.04404 5.90619,-17.40213 15.23582,-51.17278 30.38405,-109.98172 2.19488,-8.52103 4.12092,-10.71429 9.40892,-10.71429 6.28618,0 6.52088,0.66276 4.30002,12.14286 -4.6553,24.06427 -2.56674,62.14285 3.40846,62.14285 3.57218,0 19.403,-32.37484 22.01012,-45.01184 1.8548,-8.99043 3.50711,-10.85287 10.32919,-11.64282 9.26972,-1.07336 9.30714,-2.00689 -1.29754,32.36895 -8.73222,28.30612 -9.22885,63.76935 -1.04723,74.7807 7.90008,10.63243 14.77228,11.2774 26.66581,2.50263 12.52584,-9.24127 15.04004,-6.88112 4.44756,4.17504 -11.67215,12.18311 -28.3749,12.08338 -40.15119,-0.23971 -7.84174,-8.20587 -8.36827,-10.17973 -8.03441,-30.11973 0.34143,-20.39187 0.12871,-21.13154 -4.79525,-16.67542 -7.09467,6.4206 -15.07173,3.18302 -21.48102,-8.71832 -2.9291,-5.43902 -6.14014,-8.94774 -7.13563,-7.79716 -0.9955,1.15058 -4.07523,10.44911 -6.84384,20.6634 -5.7877,21.35259 -19.30889,52.57569 -24.03208,55.49478 -1.76677,1.09192 -3.20335,0.94515 -3.19239,-0.32616 z"
       id="path3381"
       inkscape:connector-curvature="0"
       transform="translate(0,715.74832)" />
    <path
       style="fill:#ffffff"
       d="m 353.19719,247.21894 c -1.07965,-1.74691 -6.21373,-3.1762 -11.40907,-3.1762 -25.38912,0 -35.093,-30.10606 -15.56726,-48.29706 8.52095,-7.93847 26.11558,-8.08078 33.922,-0.27436 10.76039,10.76039 7.5876,14.28571 -12.85715,14.28571 -10.86147,0 -18.57142,1.22424 -18.57142,2.94891 0,1.6219 1.84384,7.36186 4.09743,12.75545 5.08809,12.17752 16.25663,16.01797 24.60664,8.46131 8.11322,-7.34236 10.09867,-3.04386 3.44672,7.46218 -3.50905,5.54215 -6.46047,7.78772 -7.66789,5.83406 z"
       id="path3383"
       inkscape:connector-curvature="0"
       transform="translate(0,715.74832)" />
    <path
       style="fill:#ffffff"
       d="m 188.71429,262.61417 c 0,-2.67638 2.70521,-4.28571 7.20411,-4.28571 4.86771,0 8.23593,-2.26462 10.38567,-6.98278 2.65745,-5.83245 1.65046,-10.78112 -6.11272,-30.03977 -5.11185,-12.68134 -10.42827,-23.75783 -11.81424,-24.61441 -6.20874,-3.83721 -1.43542,-6.93447 10.68702,-6.93447 10.73211,0 12.60998,0.71934 10.02112,3.83873 -2.37109,2.85699 -2.02634,7.24177 1.34804,17.14503 5.17342,15.18315 8.13004,14.9512 12.91304,-1.01304 2.64971,-8.84394 2.59234,-12.14412 -0.27108,-15.59434 -3.16568,-3.81441 -2.06274,-4.37638 8.58916,-4.37638 11.7593,0 12.03838,0.20205 7.38352,5.34562 -2.66075,2.94009 -9.38101,16.11866 -14.93392,29.28571 -17.74055,42.06638 -18.02488,42.51153 -27.15384,42.51153 -5.42491,0 -8.24588,-1.46617 -8.24588,-4.28572 z"
       id="path3385"
       inkscape:connector-curvature="0"
       transform="translate(0,715.74832)" />
    <path
       style="fill:#ffffff"
       d="m 136.99478,237.78485 c -2.41382,-4.51026 -2.26622,-6.44741 0.62749,-8.23582 2.08102,-1.28614 2.79409,-3.32802 1.5846,-4.53751 -1.20948,-1.20948 4.29204,-5.06376 12.22561,-8.56507 15.19724,-6.70697 17.20295,-10.63689 10.06181,-19.71476 -4.2894,-5.45272 -4.43956,-5.43786 -8.91992,0.88248 -2.50639,3.53572 -7.1291,6.42857 -10.2727,6.42857 -4.24856,0 -4.95484,-0.9167 -2.75162,-3.57142 1.63022,-1.96429 2.75193,-4.85715 2.4927,-6.42858 -0.6625,-4.01604 22.40782,-5.23954 29.29503,-1.55361 4.74892,2.54154 5.83879,6.4975 6.53773,23.73037 0.71605,17.65442 1.57038,20.62232 5.83878,20.28356 2.75,-0.21826 5,1.27732 5,3.3235 0,2.75853 -6.27744,3.73782 -24.28166,3.788 -21.64666,0.0603 -24.62417,-0.5723 -27.43785,-5.82971 z m 27.53109,-8.47081 c 2.28186,-10.38924 0.7089,-12.38264 -6.65931,-8.4393 -7.24381,3.87677 -10.10372,11.43608 -6.13553,16.21745 4.62788,5.57626 10.66822,1.90426 12.79484,-7.77815 z"
       id="path3387"
       inkscape:connector-curvature="0"
       transform="translate(0,715.74832)" />
    <path
       style="fill:#ffffff"
       d="m 136.99478,237.78485 c -2.41382,-4.51026 -2.26622,-6.44741 0.62749,-8.23582 2.08102,-1.28614 2.79409,-3.32802 1.5846,-4.53751 -1.20948,-1.20948 4.29204,-5.06376 12.22561,-8.56507 15.19724,-6.70697 17.20295,-10.63689 10.06181,-19.71476 -4.2894,-5.45272 -4.43956,-5.43786 -8.91992,0.88248 -2.50639,3.53572 -7.1291,6.42857 -10.2727,6.42857 -4.24856,0 -4.95484,-0.9167 -2.75162,-3.57142 1.63022,-1.96429 2.75193,-4.85715 2.4927,-6.42858 -0.6625,-4.01604 22.40782,-5.23954 29.29503,-1.55361 4.74892,2.54154 5.83879,6.4975 6.53773,23.73037 0.71605,17.65442 1.57038,20.62232 5.83878,20.28356 2.75,-0.21826 5,1.27732 5,3.3235 0,2.75853 -6.27744,3.73782 -24.28166,3.788 -21.64666,0.0603 -24.62417,-0.5723 -27.43785,-5.82971 z m 27.53109,-8.47081 c 2.28186,-10.38924 0.7089,-12.38264 -6.65931,-8.4393 -7.24381,3.87677 -10.10372,11.43608 -6.13553,16.21745 4.62788,5.57626 10.66822,1.90426 12.79484,-7.77815 z"
       id="path3389"
       inkscape:connector-curvature="0"
       transform="translate(0,715.74832)" />
    <path
       style="fill:#ffffff"
       d=""
       id="path3391"
       inkscape:connector-curvature="0"
       transform="translate(0,715.74832)" />
    <path
       style="fill:#ffffff"
       d="m 100.18661,192.1269 c -0.0279,-3.04127 3.20411,-5.48633 8.90808,-6.73914 4.9391,-1.0848 7.53692,-2.8406 5.79538,-3.91694 -1.8447,-1.14008 0.37195,-3.28262 5.33388,-5.15554 4.66968,-1.76261 8.49034,-2.15168 8.49034,-0.8646 0,1.28708 3.20425,0.85397 7.12056,-0.96246 7.1248,-3.30458 9.60737,-7.58833 4.39768,-7.58833 -1.52211,0 -2.0578,-1.84939 -1.19041,-4.10976 0.86738,-2.26037 -1.05494,-6.36335 -4.27183,-9.11774 -4.22243,-3.61535 -5.02509,-6.00061 -2.88641,-8.57755 4.54138,-5.47204 11.53502,-1.39334 9.79907,5.71483 -0.81804,3.34962 -0.74654,4.47506 0.15888,2.50099 3.0024,-6.54606 6.87246,-0.52437 6.87246,10.69333 0,8.58644 -1.70984,12.39754 -7.66303,17.08032 -4.21466,3.31525 -9.47354,5.33297 -11.6864,4.48381 -2.21286,-0.84915 -5.46011,-0.65597 -7.21612,0.4293 -1.756,1.08527 -6.34481,2.30928 -10.19736,2.72003 -3.85255,0.41075 -8.06582,2.41983 -9.36283,4.46463 -1.78427,2.813 -2.36884,2.55619 -2.40194,-1.05518 z"
       id="path3393"
       inkscape:connector-curvature="0"
       transform="translate(0,715.74832)" />
    <path
       style="fill:#ffffff"
       d="m 63.160708,259.68539 c -1.688413,-0.44128 -1.912373,-2.65801 -1.450679,-14.35867 0.537606,-13.62451 1.653656,-22.34916 4.508295,-35.24333 1.7229,-7.7822 2.062335,-10.224 1.47196,-10.58888 -0.422026,-0.26082 -4.433418,-0.62268 -8.914203,-0.80413 -4.480785,-0.18145 -8.904894,-0.62789 -9.831353,-0.9921 -1.776939,-0.69854 -2.946592,-3.43885 -1.910183,-4.47526 0.712239,-0.71223 5.211286,-1.51114 16.498339,-2.92964 l 8.571952,-1.07728 3.252154,-8.64298 c 3.76229,-9.99872 7.29434,-17.94473 13.348666,-30.03033 2.37196,-4.73488 4.312654,-9.03029 4.312654,-9.54536 0,-1.90899 -16.187842,-0.67546 -24.752766,1.88618 -14.953134,4.47227 -25.509649,13.28876 -26.989057,22.54047 -0.523669,3.27485 -2.326973,4.15882 -6.065191,2.97314 -3.364083,-1.06701 -4.368285,-3.16897 -4.372739,-9.15287 -0.008,-10.77899 6.929125,-18.06196 22.382179,-23.49796 12.305884,-4.32889 14.718276,-4.62614 37.322297,-4.59874 13.522507,0.0164 21.411667,0.27894 24.079667,0.80137 8.50586,1.66555 19.73972,6.16601 23.69995,9.49457 l 1.67759,1.41001 -3.06802,-0.004 c -1.68741,-0.002 -3.06888,-0.20641 -3.06993,-0.45383 -0.004,-0.88508 -3.04631,-2.41367 -10.22614,-5.13766 -7.16165,-2.71709 -9.12171,-3.14026 -11.07442,-2.39093 -1.86345,0.71507 -0.96476,1.36752 2.26996,1.64799 3.53315,0.30635 8.24278,1.88547 9.79512,3.28426 0.53733,0.48418 1.80683,0.88032 2.82112,0.88032 1.01429,0 2.27954,0.34809 2.81167,0.77353 1.16734,0.93329 1.84767,3.42129 1.0674,3.90352 -0.76036,0.46993 -0.71001,3.78884 0.0799,5.26474 0.35232,0.65831 0.52299,1.19694 0.37927,1.19694 -0.14374,0 -2.59013,-1.22466 -5.43644,-2.72146 -6.31318,-3.31995 -13.17786,-5.70478 -20.89619,-7.25948 -3.20098,-0.64477 -5.867208,-1.09943 -5.924956,-1.01035 -0.05774,0.0891 -0.703288,3.22511 -1.434528,6.96897 -0.731234,3.74385 -2.447269,10.4271 -3.813412,14.85166 -5.908593,19.13629 -6.481627,21.32801 -5.763937,22.0457 0.753347,0.75335 14.457453,-2.868 23.958173,-6.33101 5.79005,-2.11048 7.00577,-2.26298 4.14723,-0.52023 -1.14247,0.69652 -2.21741,1.80249 -2.38876,2.45771 -0.2081,0.79582 -1.05928,1.31773 -2.56392,1.57211 -8.30817,1.40463 -18.39829,4.65064 -20.092431,6.46378 -0.574922,0.6153 -0.293277,0.69463 1.363989,0.38417 1.148683,-0.21518 3.306814,-0.39124 4.795848,-0.39124 2.649844,0 3.767734,-0.93687 1.6244,-1.36137 -0.595613,-0.11796 2.513734,-1.11324 6.909654,-2.21173 4.39592,-1.09849 8.11434,-1.87551 8.26314,-1.7267 0.14881,0.1488 -2.19278,1.02191 -5.20352,1.94025 -4.56713,1.39306 -5.91532,2.11726 -8.13725,4.37108 -1.464742,1.48576 -2.928676,2.70139 -3.253179,2.70139 -0.324503,0 -0.590007,0.27846 -0.590007,0.61881 0,0.34036 0.48995,0.61882 1.088781,0.61882 0.598832,0 1.413513,0.51998 1.810415,1.15551 0.67732,1.08456 0.34319,1.19853 -5.442704,1.85645 -3.390374,0.38553 -7.341816,0.70096 -8.780978,0.70096 l -2.616659,0 -2.369376,8.50876 c -7.379708,26.50158 -12.102175,44.31506 -12.806531,48.30714 -0.575049,3.2592 -1.15368,4.77444 -2.067715,5.41466 -0.698066,0.48894 -1.416102,0.85669 -1.595634,0.81721 -0.179533,-0.0395 -0.813554,-0.1991 -1.408935,-0.3547 z m 1.650719,-2.42441 c 0.538362,-0.20659 0.97884,-0.79332 0.97884,-1.30385 0,-0.59218 -0.354365,-0.79224 -0.97884,-0.55261 -0.538363,0.20659 -1.0953,0.37562 -1.237638,0.37562 -0.142339,0 -0.258798,0.4177 -0.258798,0.92823 0,1.0415 0.113334,1.08336 1.496436,0.55261 z m 1.597659,-3.95612 c 0,-0.34035 -0.696171,-0.61882 -1.547047,-0.61882 -0.850877,0 -1.547048,0.27847 -1.547048,0.61882 0,0.34035 0.696171,0.61882 1.547048,0.61882 0.850876,0 1.547047,-0.27847 1.547047,-0.61882 z m 0.839746,-6.6523 c 0.212974,-2.29737 0.560465,-5.08206 0.772204,-6.1882 0.23078,-1.20561 0.132286,-2.01116 -0.245906,-2.01116 -0.852306,0 -2.538651,5.10805 -3.009817,9.11694 -0.349791,2.97618 -0.275347,3.25944 0.856605,3.25944 1.07969,0 1.289666,-0.5391 1.626914,-4.17702 z m -2.08686,-5.87879 c -0.01391,-1.1356 -1.096646,-2.65836 -1.560427,-2.19458 -0.541063,0.54107 0.270744,2.96811 0.992785,2.96811 0.317415,0 0.572854,-0.34809 0.567642,-0.77353 z m 6.197668,-9.1641 c 0,-1.00097 -0.278469,-1.81994 -0.618819,-1.81994 -0.340351,0 -0.61882,0.99108 -0.61882,2.20239 0,1.31068 0.250549,2.04754 0.61882,1.81994 0.34035,-0.21035 0.618819,-1.20143 0.618819,-2.20239 z m 1.856457,-10.34312 c 0,-1.52158 -0.07493,-1.5682 -1.012848,-0.63028 -0.571973,0.57197 -0.843237,1.45485 -0.62319,2.02828 0.559424,1.45784 1.636038,0.53787 1.636038,-1.398 z m -5.569372,-1.81467 c 0,-3.15696 -1.502624,-2.24409 -1.742696,1.05871 -0.173252,2.38351 -0.0847,2.59956 0.773523,1.88729 0.538054,-0.44654 0.969173,-1.75702 0.969173,-2.946 z m 2.049365,-4.73609 c -0.06408,-0.8988 0.144776,-1.63417 0.464115,-1.63417 0.319338,0 0.580616,-0.99108 0.580616,-2.20239 0,-1.21132 0.2259,-2.06277 0.502,-1.89214 0.575124,0.35545 2.329774,-8.75045 1.790142,-9.29008 -0.195057,-0.19506 -1.253513,1.41395 -2.352124,3.57559 -1.598446,3.1451 -2.056012,4.90419 -2.290503,8.80569 -0.238944,3.9756 -0.134734,4.81974 0.564614,4.57356 0.484207,-0.17044 0.806915,-1.01345 0.74114,-1.93606 z m 6.914873,-3.64858 c 0.224653,-1.44471 0.546117,-3.11406 0.714364,-3.70967 0.500529,-1.77192 -0.9077,-1.22923 -1.927472,0.74279 -1.402033,2.71124 -1.174777,6.81697 0.325987,5.88945 0.263264,-0.16271 0.662468,-1.47786 0.887121,-2.92257 z M 57.126799,195.48697 c 0,-0.9042 -2.292074,-1.97822 -2.907769,-1.36253 -0.186572,0.18657 -0.174326,0.76894 0.02722,1.29414 0.461871,1.20363 2.880553,1.26105 2.880553,0.0684 z m 34.542207,-1.74345 c -0.151561,-1.06716 -0.667461,-1.43764 -2.208906,-1.58626 -1.49407,-0.14405 -2.011162,0.0548 -2.011162,0.77353 0,0.62533 0.559975,0.96743 1.583568,0.96743 0.898134,0 1.418028,0.26785 1.201118,0.61882 -0.210349,0.34035 0.07105,0.61882 0.625338,0.61882 0.691156,0 0.945658,-0.43745 0.810044,-1.39234 z m -12.641318,-9.75893 c 1.130489,-2.82537 1.235431,-3.70039 0.443792,-3.70039 -0.54168,0 -2.542468,4.39266 -2.542468,5.5819 0,1.46203 1.186458,0.39835 2.098676,-1.88151 z m 9.932393,-14.22383 c 1.858762,-5.88402 2.603441,-9.82508 1.694795,-8.96936 -0.749525,0.70587 -4.127915,10.66221 -4.724502,13.92343 -0.375715,2.05382 -0.345734,2.10243 0.579558,0.93952 0.536673,-0.67449 1.63924,-3.3266 2.450149,-5.89359 z m -49.986857,-3.44158 c 0.559355,-1.45766 -0.75442,-2.50438 -1.924498,-1.5333 -1.034272,0.85837 -1.117501,0.74131 -1.850111,-2.60214 -0.205087,-0.93596 -0.680857,-1.70175 -1.057267,-1.70175 -0.887348,0 -0.218155,3.46116 1.040638,5.38232 1.068453,1.63066 3.240061,1.89121 3.791238,0.45487 z m 49.681562,-5.9993 c 1.021633,-2.4593 2.114082,-4.08479 3.010241,-4.47903 1.802558,-0.793 4.836802,-6.97453 3.888808,-7.92252 -1.085341,-1.08534 -3.609987,1.83419 -6.311,7.29812 -2.210929,4.47253 -3.967784,10.61374 -2.699178,9.43517 0.279144,-0.25933 1.229152,-2.20862 2.111129,-4.33174 z m -54.25259,-3.03708 c 0.646382,-0.86576 1.081029,-2.24054 0.965882,-3.05508 -0.177722,-1.25718 -0.454009,-0.98641 -1.828357,1.79181 -1.668116,3.37208 -1.21141,4.04101 0.862475,1.26327 z m 17.52352,-10.47989 c 0.950099,-1.04985 0.957023,-1.17258 0.06615,-1.17258 -1.561186,0 -4.147351,1.359 -4.147351,2.17938 0,1.0858 2.816134,0.39108 4.081204,-1.0068 z M 41.74247,145.6836 c 0.803494,-0.65141 1.243609,-1.40243 0.978032,-1.66894 -0.265577,-0.26651 -1.233888,0.26646 -2.151803,1.18437 -1.906189,1.90619 -1.027311,2.26902 1.173771,0.48457 z m 88.25551,-0.81113 c -0.29152,-0.87453 -11.7743,-4.76349 -14.08336,-4.76971 -1.4634,-0.004 -1.48077,0.0343 -0.32117,0.70658 1.22158,0.70826 13.16101,4.76112 14.14146,4.80036 0.28363,0.0113 0.402,-0.32041 0.26307,-0.73723 z m -64.0644,-4.88821 c 1.59365,-0.8529 1.367006,-1.94644 -0.298017,-1.43792 -2.667041,0.81454 -5.414668,2.07307 -5.414668,2.48014 0,0.5162 4.249309,-0.25905 5.712685,-1.04222 z m 11.614251,-2.60485 c 0,-1.28433 -0.732415,-1.70745 -1.644816,-0.95023 -1.199504,0.9955 -1.02065,1.77532 0.407178,1.77532 0.680701,0 1.237638,-0.37129 1.237638,-0.82509 z m 16.089298,0.27248 c 0,-0.89923 -1.728325,-1.30385 -5.569372,-1.30385 -3.958557,0 -5.748787,0.44671 -5.219888,1.30248 0.446676,0.72274 10.78926,0.72405 10.78926,0.001 z m 8.663471,8.6e-4 c 0,-0.61296 -3.067495,-1.53759 -3.538491,-1.0666 -0.164099,0.1641 -0.114803,0.59535 0.109537,0.95835 0.492135,0.7963 3.428954,0.88902 3.428954,0.10827 l 0,-2e-5 z"
       id="path3395"
       inkscape:connector-curvature="0"
       transform="translate(0,715.74832)" />
    <path
       style="fill:#ffffff"
       d="m 125.04871,173.11865 c 7.40485,-3.78535 12.4886,-8.31098 13.15359,-11.70954 0.39928,-2.0406 0.45878,-1.73807 0.33955,1.72642 -0.13478,3.91615 -0.29817,4.35788 -2.41302,6.52369 -2.76645,2.8331 -2.88457,3.54954 -0.37091,2.24968 1.04365,-0.5397 2.63942,-0.89493 3.54616,-0.78942 1.45599,0.16943 1.18399,0.4386 -2.32805,2.30384 -2.57048,1.36517 -4.06149,1.85752 -4.21655,1.39234 -0.34866,-1.04598 -1.42308,-0.8818 -2.37734,0.36328 -0.68799,0.89767 -0.92663,0.93606 -1.39493,0.22438 -0.5634,-0.85621 -4.3397,-0.74383 -8.12204,0.24169 -0.85087,0.22171 1.03172,-0.91516 4.18354,-2.52636 z"
       id="path3397"
       inkscape:connector-curvature="0"
       transform="translate(0,715.74832)" />
    <path
       style="fill:#ffffff"
       d="m 102.67728,193.57299 c 0.67107,-1.02418 1.39247,-1.44593 2.09295,-1.22361 1.49268,0.47376 3.23329,-0.30466 2.85948,-1.27879 -0.30988,-0.80753 3.69616,-2.5862 4.35068,-1.93169 0.17302,0.17302 -0.26334,0.49801 -0.96969,0.7222 -1.2354,0.3921 -1.84888,2.18067 -0.74798,2.18067 1.51758,0 6.88954,-2.76055 6.88954,-3.54041 0,-0.71273 0.53469,-0.80978 2.56839,-0.46619 2.13066,0.35997 2.50814,0.2769 2.21484,-0.48741 -0.22418,-0.58421 0.1946,-1.17109 1.14452,-1.6039 0.92437,-0.42117 1.49808,-0.45067 1.49808,-0.077 0,0.33305 0.55693,0.60555 1.23764,0.60555 0.6807,0 1.23763,-0.24426 1.23763,-0.5428 0,-0.29854 1.25644,-0.40119 2.79208,-0.2281 5.94114,0.66965 15.79518,-6.3906 17.94247,-12.85548 1.43052,-4.30689 1.10255,-16.62533 -0.52361,-19.66698 -1.28472,-2.40299 -2.61245,-3.06544 -4.18084,-2.08596 -1.03686,0.64752 -1.1282,0.47311 -1.07741,-2.05738 0.0324,-1.61286 -0.36982,-3.414 -0.96526,-4.32276 -1.75676,-2.68116 0.0236,-1.70178 2.91501,1.60358 5.61835,6.42262 7.90572,13.85973 6.65374,21.63382 -0.89705,5.57017 -3.86873,11.33313 -7.06006,13.69151 -3.39604,2.50966 -12.51593,6.8381 -18.53363,8.79635 -4.69731,1.52857 -19.61616,4.69767 -22.11474,4.69767 -1.19219,0 -1.20217,-0.0697 -0.22383,-1.56287 z"
       id="path3399"
       inkscape:connector-curvature="0"
       transform="translate(0,715.74832)" />
    <path
       style="fill:#ffffff"
       d="m 102.67728,193.57299 c 0.67107,-1.02418 1.39247,-1.44593 2.09295,-1.22361 1.49268,0.47376 3.23329,-0.30466 2.85948,-1.27879 -0.30988,-0.80753 3.69616,-2.5862 4.35068,-1.93169 0.17302,0.17302 -0.26334,0.49801 -0.96969,0.7222 -1.2354,0.3921 -1.84888,2.18067 -0.74798,2.18067 1.51758,0 6.88954,-2.76055 6.88954,-3.54041 0,-0.71273 0.53469,-0.80978 2.56839,-0.46619 2.13066,0.35997 2.50814,0.2769 2.21484,-0.48741 -0.22418,-0.58421 0.1946,-1.17109 1.14452,-1.6039 0.92437,-0.42117 1.49808,-0.45067 1.49808,-0.077 0,0.33305 0.55693,0.60555 1.23764,0.60555 0.6807,0 1.23763,-0.24426 1.23763,-0.5428 0,-0.29854 1.25644,-0.40119 2.79208,-0.2281 5.94114,0.66965 15.79518,-6.3906 17.94247,-12.85548 1.43052,-4.30689 1.10255,-16.62533 -0.52361,-19.66698 -1.28472,-2.40299 -2.61245,-3.06544 -4.18084,-2.08596 -1.03686,0.64752 -1.1282,0.47311 -1.07741,-2.05738 0.0324,-1.61286 -0.36982,-3.414 -0.96526,-4.32276 -1.75676,-2.68116 0.0236,-1.70178 2.91501,1.60358 5.61835,6.42262 7.90572,13.85973 6.65374,21.63382 -0.89705,5.57017 -3.86873,11.33313 -7.06006,13.69151 -3.39604,2.50966 -12.51593,6.8381 -18.53363,8.79635 -4.69731,1.52857 -19.61616,4.69767 -22.11474,4.69767 -1.19219,0 -1.20217,-0.0697 -0.22383,-1.56287 z"
       id="path3401"
       inkscape:connector-curvature="0"
       transform="translate(0,715.74832)" />
  </g>
</svg>
